<?xml version="1.0" encoding="utf-8"?>
<!-- Generator: Adobe Illustrator 16.0.0, SVG Export Plug-In . SVG Version: 6.00 Build 0)  -->
<!DOCTYPE svg PUBLIC "-//W3C//DTD SVG 1.1//EN" "http://www.w3.org/Graphics/SVG/1.1/DTD/svg11.dtd">
<svg version="1.1" id="Layer_1" xmlns="http://www.w3.org/2000/svg" xmlns:xlink="http://www.w3.org/1999/xlink" x="0px" y="0px"
	 width="60px" height="50px" viewBox="0 0 60 50" enable-background="new 0 0 60 50" xml:space="preserve">
<g>
	<g>
		<path fill="#6A1B9A" d="M54.827,24.999c-5.32,2.693-5.866,5.26-1.951,9.664c-5.89,0.263-7.318,2.364-5.321,7.892
			c-5.527-1.996-7.628-0.568-7.89,5.321c-4.405-3.915-6.971-3.369-9.665,1.951c-2.693-5.32-5.259-5.866-9.665-1.951
			c-0.262-5.89-2.364-7.317-7.89-5.321c1.997-5.527,0.568-7.629-5.321-7.892c3.915-4.404,3.369-6.971-1.951-9.664
			c5.32-2.693,5.866-5.259,1.951-9.663c5.89-0.264,7.318-2.364,5.321-7.892c5.526,1.997,7.628,0.568,7.89-5.321
			c4.405,3.916,6.971,3.37,9.665-1.95c2.693,5.32,5.259,5.866,9.665,1.95c0.262,5.89,2.363,7.318,7.89,5.321
			c-1.997,5.527-0.568,7.628,5.321,7.892C48.961,19.74,49.507,22.306,54.827,24.999z"/>
		<path fill="none" stroke="#6A1B9A" stroke-miterlimit="10" d="M54.827,24.999c-5.32,2.693-5.866,5.26-1.951,9.664
			c-5.89,0.263-7.318,2.364-5.321,7.892c-5.527-1.996-7.628-0.568-7.89,5.321c-4.405-3.915-6.971-3.369-9.665,1.951
			c-2.693-5.32-5.259-5.866-9.665-1.951c-0.262-5.89-2.364-7.317-7.89-5.321c1.997-5.527,0.568-7.629-5.321-7.892
			c3.915-4.404,3.369-6.971-1.951-9.664c5.32-2.693,5.866-5.259,1.951-9.663c5.89-0.264,7.318-2.364,5.321-7.892
			c5.526,1.997,7.628,0.568,7.89-5.321c4.405,3.916,6.971,3.37,9.665-1.95c2.693,5.32,5.259,5.866,9.665,1.95
			c0.262,5.89,2.363,7.318,7.89,5.321c-1.997,5.527-0.568,7.628,5.321,7.892C48.961,19.74,49.507,22.306,54.827,24.999z"/>
	</g>
	<circle fill="#FFFFFF" stroke="#6A1B9A" stroke-width="1.0569" stroke-miterlimit="10" cx="30" cy="25" r="16.25"/>
</g>
</svg>
