<?xml version="1.0" encoding="utf-8"?>
<!-- Generator: Adobe Illustrator 16.0.0, SVG Export Plug-In . SVG Version: 6.00 Build 0)  -->
<!DOCTYPE svg PUBLIC "-//W3C//DTD SVG 1.1//EN" "http://www.w3.org/Graphics/SVG/1.1/DTD/svg11.dtd">
<svg version="1.1" id="Layer_1" xmlns="http://www.w3.org/2000/svg" xmlns:xlink="http://www.w3.org/1999/xlink" x="0px" y="0px"
	 width="1980px" height="1080px" viewBox="0 0 1980 1080" enable-background="new 0 0 1980 1080" xml:space="preserve">
<linearGradient id="SVGID_1_" gradientUnits="userSpaceOnUse" x1="1607.4873" y1="1199.543" x2="-450.5127" y2="703.5425">
	<stop  offset="0" style="stop-color:#AA00C7"/>
	<stop  offset="0.2779" style="stop-color:#CE2BEA"/>
	<stop  offset="0.4462" style="stop-color:#E040FB"/>
	<stop  offset="0.5248" style="stop-color:#E951FC"/>
	<stop  offset="0.68" style="stop-color:#F96EFE"/>
	<stop  offset="0.7688" style="stop-color:#FF79FF"/>
	<stop  offset="0.8022" style="stop-color:#FF7EFF"/>
	<stop  offset="0.8445" style="stop-color:#FF8EFF"/>
	<stop  offset="0.8916" style="stop-color:#FFA8FF"/>
	<stop  offset="0.9422" style="stop-color:#FFCCFF"/>
	<stop  offset="0.9951" style="stop-color:#FFFAFF"/>
	<stop  offset="1" style="stop-color:#FFFFFF"/>
</linearGradient>
<polygon fill="url(#SVGID_1_)" points="1980,1080 990,782.844 0,1080 "/>
<g>
	<circle opacity="0.1" fill="#EE62ED" enable-background="new    " cx="43.711" cy="531.349" r="36.25"/>
	<circle opacity="0.1" fill="#EE62ED" enable-background="new    " cx="684.25" cy="364.491" r="14.541"/>
	<circle opacity="0.1" fill="#EE62ED" enable-background="new    " cx="736.259" cy="299.662" r="24.368"/>
	<circle opacity="0.1" fill="#EE62ED" enable-background="new    " cx="537.053" cy="139.189" r="14.54"/>
	<circle opacity="0.1" fill="#EE62ED" enable-background="new    " cx="494.581" cy="150.421" r="14.54"/>
	<path opacity="0.1" fill="#EE62ED" enable-background="new    " d="M430.503,195.474c-43.506-1.62-84.941-16.705-124.509-33.215
		s-78.766-34.788-121.195-43.533c-27.313-5.626-58.545-6.427-80.553,9.303c-21.209,15.166-28.053,41.269-31.709,65.509
		c-2.77,18.244-4.396,37.443,3.186,54.517c5.264,11.858,14.615,21.821,21.082,33.175c22.498,39.513,6.594,88.243-17.787,126.822
		c-11.428,18.096-24.698,35.359-33.524,54.626c-8.826,19.265-12.927,41.341-5.224,60.995c7.65,19.496,25.888,34.109,45.645,44.367
		c40.125,20.902,87.389,26.891,133.51,30.25c102.058,7.504,204.667,4.256,306.999,1.002c37.866-1.201,75.908-2.426,113.162-8.738
		c20.692-3.494,42.049-9.041,57.066-22.426c19.071-16.986,23.797-45.757,11.018-67.06c-21.431-35.736-80.667-44.616-95.664-82.966
		c-8.242-21.107,0.221-44.622,12.207-64.197c25.699-42.001,68.789-78.846,71.054-126.856c1.56-32.939-19.15-65.985-51.176-81.588
		c-33.57-16.355-80.115-14.298-104.867,12.772C513.732,186.217,468.916,196.912,430.503,195.474z"/>
	<linearGradient id="SVGID_2_" gradientUnits="userSpaceOnUse" x1="284.1733" y1="392.0322" x2="620.2739" y2="392.0322">
		<stop  offset="0" style="stop-color:#AA00C7"/>
		<stop  offset="0.5914" style="stop-color:#E040FB"/>
		<stop  offset="0.8978" style="stop-color:#FF79FF"/>
	</linearGradient>
	<path fill="url(#SVGID_2_)" d="M368.203,223.976v225.471c-7.521-2.42-15.379-3.632-23.279-3.59
		c-33.524,0-60.75,23.724-60.75,57.248c0,33.523,27.226,56.983,60.75,56.983c33.523,0,60.917-24.683,60.917-60.499V343.013h176.795
		v106.434c-7.521-2.42-15.378-3.632-23.279-3.59c-33.523,0-60.749,23.724-60.749,57.248c0,33.523,27.226,56.983,60.749,56.983
		c33.524,0,60.918-24.683,60.918-60.499V223.976H368.203z M582.642,308.004H405.847v-46.383h176.795V308.004z"/>
	<linearGradient id="SVGID_3_" gradientUnits="userSpaceOnUse" x1="103.5376" y1="328.1777" x2="275.4351" y2="328.1777">
		<stop  offset="0" style="stop-color:#AA00C7"/>
		<stop  offset="0.019" style="stop-color:#AD03CA"/>
		<stop  offset="0.2406" style="stop-color:#C924E5"/>
		<stop  offset="0.4249" style="stop-color:#DA39F5"/>
		<stop  offset="0.5484" style="stop-color:#E040FB"/>
		<stop  offset="0.957" style="stop-color:#FF79FF"/>
	</linearGradient>
	<path fill="url(#SVGID_3_)" d="M189.39,199.104v151.318c-27.383-15.797-62.388-6.405-78.184,20.979
		c-15.798,27.383-6.405,62.388,20.978,78.184c27.383,15.797,62.387,6.405,78.184-20.978c5.035-8.729,7.678-18.632,7.658-28.709
		V256.444h57.409v-57.341H189.39z"/>
	<path fill="#EE62ED" d="M174.043,553.742c-3.295-1.773-6.844-3.029-10.521-3.725c2.669-0.367,5.302-0.959,7.872-1.768
		c6.836-2.164,10.285-5.068,7.697-6.488c-2.589-1.417-10.232-0.818-17.068,1.346c-2.307,0.666-4.513,1.646-6.555,2.91
		c-0.705-1.498-2.629-3.24-5.626-4.887c-6.05-3.361-14.237-5.021-18.231-3.757c-3.992,1.266-2.305,4.988,3.771,8.33
		c2.96,1.596,6.127,2.775,9.411,3.502c-2.183,0.254-4.349,0.637-6.486,1.148c-7.442,1.789-11.744,4.484-9.613,6.051
		s9.901,1.344,17.344-0.43c2.706-0.582,5.327-1.51,7.798-2.756c0.611,1.545,2.568,3.359,5.727,5.115
		c6.051,3.359,14.238,5.021,18.232,3.756C181.788,560.828,180.094,557.076,174.043,553.742z"/>
	<path fill="#EE62ED" d="M216.872,504.616c-1.6-0.859-3.32-1.469-5.104-1.809c1.295-0.18,2.572-0.465,3.818-0.852
		c3.321-1.057,4.995-2.461,3.738-3.154c-1.258-0.691-4.968-0.396-8.289,0.672c-1.117,0.33-2.187,0.803-3.18,1.412
		c-0.342-0.725-1.277-1.572-2.729-2.373c-2.951-1.621-6.918-2.434-8.854-1.82c-1.936,0.611-1.116,2.426,1.828,4.033
		c1.442,0.773,2.984,1.344,4.585,1.693c-1.062,0.127-2.114,0.314-3.153,0.564c-3.609,0.859-5.7,2.172-4.665,2.924
		c1.036,0.754,4.807,0.672,8.416-0.207c1.315-0.289,2.589-0.74,3.792-1.346c0.295,0.746,1.243,1.641,2.776,2.48
		c2.95,1.621,6.911,2.439,8.853,1.828C220.649,508.052,219.822,506.237,216.872,504.616z"/>
	<path fill="#EE62ED" d="M101.658,454.811c-1.007-0.538-2.091-0.919-3.213-1.129c0.816-0.107,1.622-0.287,2.406-0.538
		c2.077-0.673,3.126-1.539,2.34-1.97c-0.787-0.43-3.106-0.248-5.183,0.411c-0.709,0.202-1.388,0.497-2.018,0.88
		c-0.412-0.648-1.006-1.163-1.707-1.479c-1.842-1.015-4.322-1.525-5.539-1.144c-1.217,0.383-0.672,1.513,1.149,2.528
		c0.902,0.486,1.868,0.845,2.87,1.063c-0.665,0.077-1.325,0.197-1.977,0.355c-2.258,0.539-3.569,1.345-2.924,1.829
		c0.646,0.483,3.012,0.41,5.271-0.129c0.823-0.179,1.62-0.461,2.373-0.84c0.398,0.689,1.006,1.232,1.734,1.553
		c1.849,1.016,4.329,1.526,5.538,1.143C103.991,456.963,103.5,455.827,101.658,454.811z"/>
	<path opacity="0.1" enable-background="new    " d="M266.696,199.104v47.93h-57.408v143.453
		c0.012,31.658-25.644,57.33-57.301,57.341c-12.92,0.004-25.463-4.356-35.594-12.375c19.631,24.841,55.682,29.064,80.522,9.436
		c13.761-10.875,21.787-27.451,21.783-44.99V256.444h57.408v-57.341H266.696z"/>
	<path opacity="0.1" enable-background="new    " d="M131.504,264.787c0,0-0.107,6.836-0.873,8.242L131.504,264.787z"/>
	<g opacity="0.1">
		<path d="M573.91,338.98H397.115v156.589c0,35.802-27.394,60.499-60.917,60.499c-7.983,0.029-15.91-1.361-23.407-4.107
			c9.841,5.424,20.91,8.227,32.146,8.141c33.523,0,60.916-24.683,60.916-60.499V343.013H573.91V338.98z"/>
		<polygon points="397.101,303.964 405.84,303.964 405.84,261.607 573.91,261.607 573.91,257.574 397.101,257.574 		"/>
		<path d="M611.548,223.976v271.578c0,35.804-27.394,60.501-60.917,60.501c-7.985,0.029-15.91-1.361-23.407-4.107
			c9.841,5.424,20.91,8.227,32.146,8.141c33.523,0,60.916-24.683,60.916-60.499V223.976H611.548z"/>
	</g>
	<path fill="#EE62ED" d="M620.752,167.497c4.336,8.96,11.428,19.151,19.447,15.259c8.02-3.893,14.009-20.402,9.674-29.376
		c-4.337-8.974-14.379-13.054-22.42-9.163C619.414,148.109,616.408,158.549,620.752,167.497z"/>
	<path fill="#EE62ED" d="M637.913,188.43c0,0,1.566-0.262,0.968-1.553c-0.054-0.114-0.117-0.225-0.188-0.329
		c-0.317-0.506-0.521-1.075-0.599-1.667c-0.095-0.691-0.069-1.394,0.075-2.077l-4.271-0.282c0,0,1.661,1.412,1.467,2.151
		c-0.028,0.107-0.1,0.199-0.195,0.255c-0.083,0.062-0.18,0.103-0.282,0.121l-0.323,0.094c-1.122,0.396-0.672,0.961-0.672,0.961
		C634.041,187.945,637.913,188.43,637.913,188.43z"/>
	<path fill="#444053" d="M635.171,184.927l3.012,0.417c-0.039-0.153-0.068-0.308-0.088-0.464c-0.766-0.033-1.97-0.134-2.729-0.208
		C635.338,184.779,635.267,184.871,635.171,184.927z"/>
	<path fill="#EE62ED" d="M637.913,188.43c0,0,1.566-0.262,0.968-1.553c-0.605,0.144-1.232,0.168-1.849,0.074
		c-1.024-0.261-1.909-0.91-2.467-1.809c-1.122,0.396-0.672,0.961-0.672,0.961C634.041,187.945,637.913,188.43,637.913,188.43z"/>
	<path opacity="0.1" enable-background="new    " d="M637.913,188.43c0,0,1.566-0.262,0.968-1.553
		c-0.605,0.144-1.232,0.168-1.849,0.074c-1.024-0.261-1.909-0.91-2.467-1.809c-1.122,0.396-0.672,0.961-0.672,0.961
		C634.041,187.945,637.913,188.43,637.913,188.43z"/>
	<path opacity="0.1" fill="#FFFFFF" enable-background="new    " d="M635.634,145.158c0,0,4.774-0.578,6.125,2.602
		c-0.572-0.096-1.157-0.062-1.714,0.101c-0.35,0.158-0.733,0.232-1.116,0.215C638.21,146.744,637.043,145.71,635.634,145.158z"/>
	<path fill="#EE62ED" d="M640.764,209.947c0.1-0.079,0.189-0.169,0.27-0.269c0.289-0.329,0.635-0.602,1.021-0.807
		c0.137-0.081,0.278-0.152,0.424-0.215c0.431-0.185,0.883-0.32,1.345-0.403c0.222-0.039,0.446-0.063,0.672-0.074l-0.605-2.891v-0.04
		l-0.263-1.257c-0.177,0.364-0.379,0.717-0.604,1.055c-0.309,0.471-0.673,0.921-1.075,0.927c-0.111-0.001-0.219-0.042-0.303-0.114
		c-0.076-0.07-0.141-0.151-0.188-0.242c-0.067-0.107-0.121-0.202-0.182-0.289c-0.672-0.968-1.095-0.363-1.095-0.363
		c-0.767,0.275-1.083,1.189-1.197,2.111c0,0.134,0,0.269-0.041,0.396c-0.038,0.653-0.016,1.308,0.068,1.956
		C639.01,209.43,639.701,210.875,640.764,209.947z"/>
	<path fill="#444053" d="M642.108,208.872c0.137-0.081,0.278-0.152,0.424-0.215c-0.148-0.625-0.329-1.566-0.458-2.306
		c0-0.054,0-0.101,0-0.155s0-0.155-0.039-0.222c-0.112-0.001-0.219-0.042-0.304-0.114l0.067,0.45v0.182L642.108,208.872z"/>
	<path fill="#EE62ED" d="M640.764,209.947c-0.299-0.545-0.491-1.143-0.564-1.761c-0.013-0.376,0.03-0.752,0.127-1.116
		c0.035-0.107,0.061-0.215,0.102-0.315c0.155-0.54,0.447-1.031,0.847-1.425c-0.672-0.968-1.095-0.363-1.095-0.363
		c-0.767,0.275-1.083,1.189-1.197,2.111c0,0.134,0,0.269-0.041,0.396c-0.038,0.653-0.016,1.308,0.068,1.956
		C639.01,209.43,639.701,210.875,640.764,209.947z"/>
	<path opacity="0.1" enable-background="new    " d="M640.764,209.947c-0.299-0.545-0.491-1.143-0.564-1.761
		c-0.013-0.376,0.03-0.752,0.127-1.116c0.035-0.107,0.061-0.215,0.102-0.315c0.155-0.54,0.447-1.031,0.847-1.425
		c-0.672-0.968-1.095-0.363-1.095-0.363c-0.767,0.275-1.083,1.189-1.197,2.111c0,0.134,0,0.269-0.041,0.396
		c-0.038,0.653-0.016,1.308,0.068,1.956C639.01,209.43,639.701,210.875,640.764,209.947z"/>
	<path fill="#EE62ED" d="M611.69,182.285c3.63,2.333,7.818,4.591,11.798,5.788c3.058,0.927,5.988,1.223,8.442,0.444
		c1.063-0.339,2.04-0.903,2.863-1.654c0.56-0.504,1.045-1.083,1.445-1.721c2.844-4.443,2.79-12.254,0.538-19.017
		c-1.572-4.706-4.182-8.874-7.616-11.078c-8.376-5.378-19.078-3.63-23.904,3.892C600.431,166.461,603.313,176.908,611.69,182.285z"
		/>
	<path opacity="0.1" enable-background="new    " d="M611.69,182.285c3.63,2.333,7.818,4.591,11.798,5.788
		c3.058,0.927,5.988,1.223,8.442,0.444c1.063-0.339,2.04-0.903,2.863-1.654c0.56-0.504,1.045-1.083,1.445-1.721
		c2.844-4.443,2.79-12.254,0.538-19.017c-1.572-4.706-4.182-8.874-7.616-11.078c-8.376-5.378-19.078-3.63-23.904,3.892
		C600.431,166.461,603.313,176.908,611.69,182.285z"/>
	<path fill="#EE62ED" d="M632.637,191.3c1.068,1.492,4.611-0.107,4.611-0.107s1.203-1.035,0-1.822
		c-0.105-0.07-0.216-0.133-0.33-0.188c-0.397-0.188-0.759-0.445-1.068-0.759c-0.107-0.108-0.216-0.222-0.315-0.343
		c-0.295-0.367-0.548-0.766-0.753-1.189c-0.102-0.202-0.189-0.411-0.263-0.625l-3.791,2.017c0.403,0.068,0.801,0.164,1.189,0.289
		c0.545,0.174,1.082,0.43,1.184,0.779c0.043,0.104,0.043,0.219,0,0.323c-0.044,0.094-0.105,0.179-0.182,0.249
		c-0.079,0.079-0.152,0.162-0.222,0.249C631.931,191.064,632.637,191.3,632.637,191.3z"/>
	<path fill="#444053" d="M633.087,189.68l2.777-1.224c-0.108-0.107-0.216-0.222-0.316-0.343c-0.673,0.363-1.741,0.908-2.435,1.244
		C633.147,189.464,633.139,189.58,633.087,189.68z"/>
	<path fill="#EE62ED" d="M632.637,191.3c1.068,1.492,4.611-0.107,4.611-0.107s1.203-1.035,0-1.822
		c-0.44,0.44-0.963,0.788-1.539,1.022c-1.007,0.311-2.096,0.222-3.039-0.249C631.931,191.064,632.637,191.3,632.637,191.3z"/>
	<path opacity="0.1" enable-background="new    " d="M632.637,191.3c1.068,1.492,4.611-0.107,4.611-0.107s1.203-1.035,0-1.822
		c-0.44,0.44-0.963,0.788-1.539,1.022c-1.007,0.311-2.096,0.222-3.039-0.249C631.931,191.064,632.637,191.3,632.637,191.3z"/>
	<path opacity="0.1" fill="#FFFFFF" enable-background="new    " d="M612.718,155.477c0,0,3.772-2.978,6.582-0.975
		c-0.536,0.218-1.017,0.554-1.405,0.981c-0.218,0.319-0.508,0.582-0.847,0.767C615.74,155.49,614.207,155.216,612.718,155.477z"/>
	<g opacity="0.1">
		<path d="M653.24,186.836l-0.874-4.188c-0.175,0.366-0.377,0.719-0.605,1.055c0.029,1.118,0.305,2.215,0.808,3.213
			C652.79,186.874,653.015,186.847,653.24,186.836z"/>
		<path d="M649.503,188.611c0.099-0.081,0.188-0.171,0.269-0.269c0.291-0.329,0.636-0.604,1.021-0.813
			c0.137-0.081,0.279-0.152,0.425-0.215c0.429-0.187,0.881-0.32,1.345-0.396c0.222-0.043,0.445-0.07,0.672-0.081l-0.875-4.188
			c-0.174,0.366-0.377,0.719-0.605,1.055c-0.308,0.471-0.704,0.928-1.074,0.935c-0.109-0.006-0.215-0.049-0.296-0.121
			c-0.083-0.059-0.153-0.131-0.209-0.215c-0.061-0.108-0.12-0.202-0.175-0.29c-0.672-0.968-1.103-0.356-1.103-0.356
			c-1.728,0.625-1.17,4.463-1.17,4.463S648.421,189.532,649.503,188.611z"/>
		<path d="M650.793,187.528c0.137-0.081,0.279-0.152,0.425-0.215c-0.177-0.732-0.391-1.923-0.532-2.689
			c-0.108-0.006-0.213-0.049-0.295-0.121L650.793,187.528z"/>
		<path d="M649.503,188.611c-0.298-0.548-0.49-1.148-0.564-1.768c-0.019-1.056,0.368-2.078,1.081-2.857
			c-0.672-0.968-1.102-0.356-1.102-0.356c-1.728,0.625-1.169,4.463-1.169,4.463S648.421,189.532,649.503,188.611z"/>
		<path opacity="0.1" enable-background="new    " d="M649.503,188.611c-0.298-0.548-0.49-1.148-0.564-1.768
			c-0.019-1.056,0.368-2.078,1.081-2.857c-0.672-0.968-1.102-0.356-1.102-0.356c-1.728,0.625-1.169,4.463-1.169,4.463
			S648.421,189.532,649.503,188.611z"/>
	</g>
	<path fill="#EE62ED" d="M648.951,187.777c0.1-0.079,0.19-0.169,0.27-0.269c0.291-0.326,0.637-0.599,1.021-0.807
		c0.137-0.081,0.278-0.153,0.424-0.215c0.431-0.187,0.881-0.32,1.345-0.397c0.222-0.042,0.446-0.07,0.672-0.081l-0.874-4.188
		c-0.176,0.365-0.379,0.718-0.605,1.055c-0.309,0.471-0.672,0.927-1.075,0.927c-0.109,0-0.214-0.041-0.296-0.114
		c-0.078-0.069-0.145-0.151-0.195-0.242c-0.061-0.108-0.121-0.202-0.175-0.289c-0.672-0.968-1.102-0.363-1.102-0.363
		c-1.728,0.632-1.17,4.47-1.17,4.47S647.869,188.705,648.951,187.777z"/>
	<path fill="#444053" d="M650.242,186.702c0.137-0.081,0.278-0.153,0.424-0.215c-0.175-0.733-0.39-1.922-0.531-2.689
		c-0.109,0-0.215-0.041-0.296-0.114L650.242,186.702z"/>
	<path fill="#EE62ED" d="M648.951,187.777c-0.299-0.545-0.491-1.143-0.564-1.761c-0.009-1.06,0.392-2.083,1.116-2.857
		c-0.673-0.968-1.103-0.363-1.103-0.363c-1.729,0.632-1.17,4.47-1.17,4.47S647.869,188.705,648.951,187.777z"/>
	<path opacity="0.1" enable-background="new    " d="M648.951,187.777c-0.299-0.545-0.491-1.143-0.564-1.761
		c-0.009-1.06,0.392-2.083,1.116-2.857c-0.673-0.968-1.103-0.363-1.103-0.363c-1.729,0.632-1.17,4.47-1.17,4.47
		S647.869,188.705,648.951,187.777z"/>
	<g opacity="0.1">
		<path d="M645.47,175.563c0.938,0.604,1.999,0.997,3.104,1.149c0.092-0.208,0.194-0.41,0.311-0.605l-3.953-1.64
			C645.139,174.818,645.318,175.185,645.47,175.563z"/>
		<path d="M646.813,181.364c0,0,1.566,0.262,1.419-1.156c-0.014-0.127-0.039-0.253-0.074-0.376
			c-0.107-0.423-0.139-0.863-0.095-1.297c0.013-0.158,0.036-0.315,0.067-0.471c0.141-0.683,0.39-1.339,0.74-1.942l-3.953-1.64
			c0.211,0.346,0.396,0.708,0.552,1.082c0.215,0.524,0.362,1.109,0.161,1.412c-0.065,0.091-0.16,0.155-0.27,0.181
			c-0.1,0.022-0.202,0.022-0.302,0h-0.343c-1.184,0-0.915,0.672-0.915,0.672C643.311,179.664,646.813,181.364,646.813,181.364z"/>
		<path d="M645.336,177.17l2.688,1.344c0.012-0.158,0.034-0.315,0.067-0.471c-0.713-0.275-1.816-0.767-2.515-1.076
			C645.521,177.062,645.437,177.133,645.336,177.17z"/>
		<path d="M646.813,181.364c0,0,1.566,0.262,1.419-1.156c-0.62-0.059-1.223-0.237-1.774-0.524c-0.884-0.581-1.511-1.478-1.755-2.507
			c-1.184,0-0.914,0.672-0.914,0.672C643.311,179.664,646.813,181.364,646.813,181.364z"/>
		<path opacity="0.1" enable-background="new    " d="M646.813,181.364c0,0,1.566,0.262,1.419-1.156
			c-0.62-0.059-1.223-0.237-1.774-0.524c-0.884-0.581-1.511-1.478-1.755-2.507c-1.184,0-0.914,0.672-0.914,0.672
			C643.311,179.664,646.813,181.364,646.813,181.364z"/>
	</g>
	<path fill="#EE62ED" d="M646.525,180.941c0,0,1.566,0.262,1.418-1.149c-0.014-0.128-0.038-0.254-0.074-0.376
		c-0.107-0.426-0.139-0.867-0.094-1.304c0.012-0.156,0.033-0.311,0.066-0.464c0.086-0.465,0.229-0.917,0.431-1.344
		c0.091-0.208,0.194-0.41,0.31-0.605l-3.953-1.647c0.206,0.351,0.387,0.717,0.539,1.096c0.214,0.531,0.361,1.109,0.16,1.418
		c-0.067,0.087-0.162,0.149-0.269,0.175c-0.101,0.019-0.203,0.019-0.303,0h-0.343c-1.184,0-0.914,0.672-0.914,0.672
		C643.037,179.247,646.525,180.941,646.525,180.941z"/>
	<path fill="#444053" d="M645.06,176.753l2.689,1.344c0.012-0.156,0.034-0.311,0.066-0.464c-0.713-0.275-1.815-0.766-2.514-1.075
		C645.245,176.647,645.159,176.716,645.06,176.753z"/>
	<path fill="#EE62ED" d="M646.525,180.941c0,0,1.566,0.262,1.418-1.149c-0.62-0.065-1.222-0.245-1.775-0.531
		c-0.883-0.579-1.51-1.474-1.754-2.501c-1.184,0-0.914,0.672-0.914,0.672C643.037,179.247,646.525,180.941,646.525,180.941z"/>
	<path opacity="0.1" enable-background="new    " d="M646.525,180.941c0,0,1.566,0.262,1.418-1.149
		c-0.62-0.065-1.222-0.245-1.775-0.531c-0.883-0.579-1.51-1.474-1.754-2.501c-1.184,0-0.914,0.672-0.914,0.672
		C643.037,179.247,646.525,180.941,646.525,180.941z"/>
	<path fill="#EE62ED" d="M631.01,199.353c0.179-0.364,0.383-0.714,0.612-1.048c0.323-0.471,0.72-0.921,1.081-0.921
		c0.113-0.001,0.223,0.042,0.303,0.121c0.076,0.067,0.141,0.146,0.188,0.235c0.061,0.114,0.121,0.208,0.175,0.295
		c0.672,0.982,1.104,0.37,1.104,0.37c1.734-0.605,1.209-4.457,1.209-4.457s-0.672-1.446-1.748-0.531
		c-0.098,0.08-0.19,0.167-0.275,0.262c-0.408,0.436-0.902,0.782-1.452,1.016c-0.432,0.179-0.882,0.308-1.345,0.383
		c-0.222,0.042-0.446,0.067-0.672,0.074L631.01,199.353z"/>
	<path fill="#444053" d="M632.697,197.383c0.113-0.001,0.222,0.042,0.302,0.121l-0.376-3.018c-0.136,0.079-0.277,0.148-0.424,0.208
		C632.374,195.434,632.576,196.624,632.697,197.383z"/>
	<path fill="#EE62ED" d="M633.369,198.035c0.672,0.982,1.104,0.37,1.104,0.37c1.734-0.605,1.209-4.457,1.209-4.457
		s-0.672-1.446-1.748-0.531c0.295,0.548,0.477,1.149,0.539,1.768C634.488,196.242,634.093,197.264,633.369,198.035z"/>
	<path opacity="0.1" enable-background="new    " d="M633.369,198.035c0.672,0.982,1.104,0.37,1.104,0.37
		c1.734-0.605,1.209-4.457,1.209-4.457s-0.672-1.446-1.748-0.531c0.295,0.548,0.477,1.149,0.539,1.768
		C634.488,196.242,634.093,197.264,633.369,198.035z"/>
	<path opacity="0.1" enable-background="new    " d="M629.578,205.013c1.27-2.017,1.967-4.34,2.016-6.722
		c0.323-0.471,0.72-0.921,1.084-0.921c0.112-0.002,0.222,0.042,0.302,0.121c0.076,0.067,0.14,0.147,0.188,0.235
		c0.061,0.115,0.122,0.208,0.176,0.296c0.673,0.981,1.102,0.37,1.102,0.37c1.734-0.605,1.211-4.457,1.211-4.457
		s-0.673-1.445-1.747-0.531c-0.099,0.08-0.192,0.168-0.276,0.262c-0.408,0.436-0.903,0.781-1.452,1.015
		c-0.432,0.179-0.884,0.308-1.344,0.383c-0.337-0.672-0.754-1.3-1.244-1.869c-1.655-1.769-3.705-3.122-5.982-3.946
		C624.551,195.212,626.305,201.491,629.578,205.013z"/>
	<path opacity="0.1" enable-background="new    " d="M639.01,207.077c0.487-0.077,0.971-0.185,1.444-0.323
		c0.436-0.125,0.865-0.273,1.284-0.444l0.275-0.114c0.357-0.155,0.72-0.323,1.083-0.511c0.362-0.188,0.544-0.282,0.819-0.437
		c5.117-2.951,10.084-8.887,12.303-14.91c0.63-1.646,1.034-3.369,1.202-5.122c0.081-0.929,0.068-1.864-0.039-2.79
		c-0.313-2.656-1.165-5.219-2.501-7.536c-0.148-0.249-0.289-0.484-0.444-0.712c-3.36-5.19-9.015-8.322-15.023-7.69
		c1.304,3.771,3.159,6.985,5.774,8.658c0.215,0.531,0.362,1.109,0.161,1.418c-0.067,0.087-0.163,0.149-0.27,0.175
		c-0.1,0.019-0.202,0.019-0.302,0h-0.343c-1.185,0-0.915,0.672-0.915,0.672c-0.463,1.781,3.025,3.482,3.025,3.482
		s1.566,0.262,1.419-1.149c-0.013-0.127-0.038-0.253-0.075-0.376c-0.107-0.426-0.139-0.867-0.093-1.304
		c0.012-0.156,0.034-0.311,0.067-0.464c0.084-0.465,0.229-0.917,0.429-1.344c0.746,0.098,1.501,0.098,2.245,0
		c1.056-0.14,2.087-0.42,3.066-0.833c-0.141,0.222-0.27,0.443-0.391,0.672c-1.267,2.017-1.964,4.34-2.017,6.722
		c-0.309,0.47-0.672,0.928-1.075,0.928c-0.109,0-0.214-0.041-0.295-0.114c-0.079-0.069-0.145-0.151-0.196-0.242
		c-0.06-0.107-0.12-0.202-0.175-0.289c-0.672-0.968-1.103-0.363-1.103-0.363c-1.727,0.632-1.169,4.47-1.169,4.47
		s0.673,1.438,1.755,0.511c0.1-0.079,0.188-0.169,0.269-0.269c0.291-0.326,0.637-0.599,1.021-0.807
		c0.137-0.081,0.278-0.153,0.424-0.215c0.43-0.186,0.882-0.319,1.345-0.396c0.335,0.673,0.758,1.299,1.257,1.862l0.27,0.289
		l-0.095,0.087c-2.157,1.948-4.151,4.071-5.962,6.346c-0.545,0.672-1.069,1.412-1.534,2.138c-0.331,0.506-0.641,1.01-0.927,1.513
		c-1.251,2.022-1.934,4.345-1.978,6.722c-0.309,0.47-0.672,0.921-1.075,0.928c-0.11-0.001-0.218-0.042-0.302-0.114
		c-0.076-0.07-0.14-0.151-0.188-0.242c-0.067-0.107-0.121-0.202-0.182-0.289c-0.672-0.968-1.095-0.363-1.095-0.363
		C639.42,205.242,639.124,206.156,639.01,207.077z"/>
	<g opacity="0.1">
		<path d="M646.666,173.452c0.359,0.141,0.746,0.194,1.13,0.155c0.578,0.028,1.143,0.184,1.653,0.457
			c-0.256-3.442-4.962-4.437-4.962-4.437C645.645,170.604,646.416,171.959,646.666,173.452z"/>
		<path d="M623.191,185.982c0.088,0.672,0.183,1.405,0.297,2.118c3.058,0.928,5.988,1.223,8.442,0.444
			c0.545,0.174,1.083,0.43,1.183,0.779c0.043,0.104,0.043,0.22,0,0.323c-0.043,0.094-0.105,0.179-0.182,0.249
			c-0.077,0.079-0.152,0.162-0.222,0.249c-0.752,0.921-0.047,1.156-0.047,1.156c1.068,1.492,4.612-0.107,4.612-0.107
			s1.203-1.035,0-1.822c-0.106-0.07-0.217-0.133-0.33-0.188c-0.397-0.188-0.76-0.445-1.068-0.759
			c-0.107-0.108-0.215-0.222-0.316-0.343c-0.294-0.367-0.547-0.766-0.752-1.189c0.558-0.504,1.045-1.083,1.444-1.721
			c2.844-4.444,2.79-12.255,0.538-19.018C628.052,167.389,621.988,176.235,623.191,185.982z"/>
		<path d="M631.353,205.524c0.937,0.609,1.993,1.006,3.099,1.163c0.092-0.209,0.197-0.411,0.316-0.605l-3.967-1.613
			C631.008,204.809,631.191,205.161,631.353,205.524z"/>
		<path d="M632.697,211.319c0,0,1.572,0.269,1.418-1.149c-0.011-0.127-0.033-0.253-0.067-0.377
			c-0.106-0.426-0.139-0.867-0.095-1.304c0.011-0.156,0.031-0.311,0.063-0.464c0.089-0.463,0.233-0.915,0.429-1.345
			c0.093-0.208,0.197-0.411,0.316-0.604l-3.96-1.607c0.204,0.351,0.383,0.714,0.539,1.089c0.207,0.531,0.355,1.116,0.153,1.418
			c-0.062,0.091-0.155,0.156-0.261,0.182c-0.104,0.018-0.208,0.018-0.311,0c-0.111-0.006-0.223-0.006-0.336,0
			c-1.189,0-0.92,0.672-0.92,0.672C629.209,209.625,632.697,211.319,632.697,211.319z"/>
		<path d="M631.232,207.158l2.688,1.344c0-0.161,0.02-0.316,0.061-0.463c-0.706-0.276-1.814-0.767-2.515-1.076
			C631.413,207.053,631.33,207.122,631.232,207.158z"/>
		<path d="M632.697,211.319c0,0,1.566,0.262,1.418-1.156c-0.62-0.058-1.223-0.235-1.773-0.524c-0.887-0.576-1.515-1.473-1.756-2.501
			c-1.189,0-0.92,0.672-0.92,0.672C629.202,209.625,632.697,211.319,632.697,211.319z"/>
		<path opacity="0.1" enable-background="new    " d="M632.697,211.319c0,0,1.566,0.262,1.418-1.156
			c-0.62-0.058-1.223-0.235-1.773-0.524c-0.887-0.576-1.515-1.473-1.756-2.501c-1.189,0-0.92,0.672-0.92,0.672
			C629.202,209.625,632.697,211.319,632.697,211.319z"/>
		<path opacity="0.1" enable-background="new    " d="M646.666,173.452c0.359,0.141,0.746,0.194,1.13,0.155
			c0.578,0.028,1.143,0.184,1.653,0.457c-0.256-3.442-4.962-4.437-4.962-4.437C645.645,170.604,646.416,171.959,646.666,173.452z"/>
	</g>
	<path fill="#EE62ED" d="M624.16,186.534c1.216,9.882,4.624,21.807,13.49,20.711c8.868-1.096,19.846-14.789,18.629-24.678
		c-1.218-9.888-9.412-16.994-18.271-15.898S622.937,176.659,624.16,186.534z"/>
	<path fill="#EE62ED" d="M633.658,211.863c0,0,1.566,0.269,1.418-1.149c-0.014-0.127-0.037-0.253-0.066-0.376
		c-0.113-0.425-0.147-0.867-0.102-1.304c0-0.155,0.041-0.316,0.068-0.464c0.134-0.686,0.386-1.343,0.746-1.943l-3.954-1.647
		c0,0,1.116,1.875,0.673,2.514c-0.064,0.091-0.16,0.155-0.268,0.182c-0.102,0.015-0.203,0.015-0.304,0h-0.336
		c-1.189,0-0.921,0.672-0.921,0.672C630.17,210.176,633.658,211.863,633.658,211.863z"/>
	<path fill="#444053" d="M632.193,207.682l2.688,1.344c0-0.155,0.041-0.316,0.067-0.464c-0.713-0.276-1.814-0.767-2.515-1.076
		C632.379,207.578,632.294,207.647,632.193,207.682z"/>
	<path fill="#EE62ED" d="M633.658,211.863c0,0,1.566,0.269,1.418-1.149c-0.619-0.058-1.224-0.238-1.773-0.531
		c-0.885-0.576-1.512-1.472-1.748-2.5c-1.19,0-0.922,0.672-0.922,0.672C630.17,210.176,633.658,211.863,633.658,211.863z"/>
	<path opacity="0.1" enable-background="new    " d="M633.658,211.863c0,0,1.566,0.269,1.418-1.149
		c-0.619-0.058-1.224-0.238-1.773-0.531c-0.885-0.576-1.512-1.472-1.748-2.5c-1.19,0-0.922,0.672-0.922,0.672
		C630.17,210.176,633.658,211.863,633.658,211.863z"/>
	<path opacity="0.1" fill="#FFFFFF" enable-background="new    " d="M645.47,170.185c0,0,4.705,0.995,4.961,4.437
		c-0.513-0.273-1.08-0.427-1.66-0.451c-0.383,0.035-0.767-0.021-1.123-0.161C647.395,172.519,646.622,171.165,645.47,170.185z"/>
	<path fill="none" stroke="#444053" stroke-width="0.6722" stroke-miterlimit="10" d="M633.899,208.569
		c1.577,0.131,2.748,1.515,2.618,3.091c-0.012,0.146-0.035,0.29-0.069,0.432c-0.592,1.983-3.025,2.608-4.611,3.933
		c-1.587,1.324-2.346,3.442-2.542,5.505c-0.34,3.956,1.08,7.86,3.879,10.675c1.426,1.405,3.146,2.48,4.552,3.906
		c1.612,1.783,2.939,3.806,3.933,5.996c0.896,1.554,1.487,3.265,1.74,5.042c0.235,2.83-1.189,5.539-2.891,7.811
		c-1.7,2.272-3.736,4.329-5.055,6.843c-1.803,3.487-2.103,7.561-0.827,11.273c0.077,0.294,0.244,0.558,0.478,0.753
		c0.235,0.174,0.568,0.125,0.743-0.111c0.014-0.019,0.025-0.038,0.037-0.057"/>
	<path fill="none" stroke="#444053" stroke-width="0.6722" stroke-miterlimit="10" d="M642.162,208.072
		c0.426,0.481,0.451,1.197,0.061,1.708c-0.402,0.49-1.006,0.77-1.64,0.759c-0.761,0-1.607-0.235-2.232,0.208
		c-0.425,0.366-0.671,0.898-0.672,1.459c0.005,0.554-0.052,1.106-0.168,1.647c-0.155,0.441-0.403,0.845-0.727,1.183
		c-0.366,0.427-0.827,0.763-1.345,0.981c-1.122,0.437-2.42,0.04-3.569,0.403c-1.513,0.477-2.325,2.111-2.782,3.63
		c-0.625,1.812-0.739,3.761-0.33,5.633c0.396,1.199,0.906,2.355,1.526,3.455c0.618,1.103,0.96,2.339,0.995,3.604
		c0.013,1.292-0.728,2.474-1.896,3.025"/>
	<path fill="none" stroke="#444053" stroke-width="0.6722" stroke-miterlimit="10" d="M640.267,251.464
		c-1.809,2.407-2.493,6.252-5.452,6.837c-1.525,0.302-3.038-0.484-4.403-1.237c-3.18-1.774-6.453-3.563-10.083-4.147
		c-3.631-0.585-7.637,0.255-10.017,3.019c-1.62,1.896-2.284,4.436-3.71,6.48c-1.858,2.475-4.521,4.225-7.529,4.948
		c-2.986,0.713-6.064,0.976-9.129,0.78c-1.136-0.034-2.373-0.121-3.22-0.874c-0.553-0.609-1.006-1.3-1.345-2.05
		c-1.458-2.447-4.342-3.792-7.186-3.973c-2.844-0.182-5.653,0.672-8.281,1.754c-1.345,0.551-2.689,1.183-4.129,1.042
		c-2.016-0.201-3.502-1.828-4.745-3.395c-3.224-4.092-5.96-8.545-8.154-13.27"/>
	
		<linearGradient id="SVGID_4_" gradientUnits="userSpaceOnUse" x1="441.2085" y1="757.6514" x2="441.2085" y2="989.0264" gradientTransform="matrix(-1 -0.04 0.04 -1 996.8408 1250.2197)">
		<stop  offset="0" style="stop-color:#808080;stop-opacity:0.25"/>
		<stop  offset="0.54" style="stop-color:#808080;stop-opacity:0.12"/>
		<stop  offset="1" style="stop-color:#808080;stop-opacity:0.1"/>
	</linearGradient>
	<path fill="url(#SVGID_4_)" d="M531.803,467.59c0.72-2.613,1.19-4.913,1.19-4.913c0.018-1.747,0.479-3.462,1.345-4.98l0.033-0.72
		l0,0l0.201-5.305c-0.327-0.977-0.739-1.923-1.23-2.829c-0.894-1.701,0.303-7.777,0.303-7.777s3.872-8.477,3.221-13.969
		c-0.652-5.492,8.201-23.986,8.201-23.986c0.019-1.808-0.168-3.611-0.559-5.377c-0.066-0.373-0.087-0.752-0.061-1.13v-0.094
		c0.263-3.597,3.361-10.245,3.361-10.245l0.114-12.88c0,0-1.526-7.663,1.835-17.739c1.17-3.517,1.942-6.332,2.447-8.511
		c0.061-0.249,0.114-0.483,0.161-0.713c-6.05-1.169-10.702-2.124-10.702-2.124s4.107-14.674,6.602-17.176
		c2.494-2.5,4.706-10.581,4.706-10.581s1.646-10.413-0.249-13.545c-1.896-3.132-1.949-8.45-1.949-8.45s-4.464-3.509-4.981-5.015
		s-1.345-4.874-1.277-6.635s0.673-3.314,0.545-4.242c-0.128-0.928,1.513-4.396,0.806-6.091c-0.174-0.521-0.256-1.07-0.241-1.62
		c0,0,0,0,0-0.047l0,0c0.05-1.458,0.241-2.908,0.571-4.329c1.369-1.071,2.95-1.838,4.639-2.252l0.114-0.396l0.295-1.029
		c0.162-0.101,0.317-0.181,0.465-0.255v-0.376l0.101-1.505l-0.592-3.409c-1.184-5.929,6.723-6.507,6.723-6.507
		c0.51-0.884,1.329-1.547,2.299-1.862c1.6-0.498-0.081,8.853-0.84,9.411c-0.572,0.43-2.4,3.314-3.281,4.706l0,0l-0.147,0.235
		c0.126,0.12,0.243,0.25,0.35,0.39l-0.377,2.017l-0.061,0.31c0.495,0.667,0.89,1.403,1.17,2.185c0,0-1.499,1.519-1.277,3.294
		c0.058,1.373-0.156,2.744-0.632,4.033c0.088-0.087,1.143-1.143,2.138-0.84c0.995,0.302,3.784,1.257,3.784,1.257
		s2.092,0.457,1.883,0.908c-0.208,0.451,1.344,2.555,1.344,2.555l5.889-5.055c0.061-0.162,0.129-0.316,0.183-0.484
		c0.265-0.756,0.46-1.534,0.585-2.326c-0.612-0.18-1.21-0.404-1.789-0.672c-0.586-0.225-1.11-0.59-1.525-1.062
		c-0.447-0.756-0.726-1.6-0.813-2.474c-0.391-1.667-1.291-3.166-1.923-4.759c-1.063-2.684-1.343-5.614-0.807-8.45
		c0.125-0.874,0.457-1.706,0.969-2.427c0.967-1.237,2.688-1.687,3.919-2.648c1.229-0.961,2.104-2.487,3.549-3.193
		c1.312-0.639,2.877-0.497,4.31-0.201c2.812,0.572,5.493,1.664,7.904,3.22c0.807,0.518,1.688,1.123,2.643,0.981
		c0.809-0.198,1.522-0.674,2.016-1.344v-0.074l0.062-0.074c0.549,1.353,0.794,2.81,0.719,4.269c0,0.222,0,0.45-0.054,0.672v0.235
		c-0.007,0.064-0.007,0.13,0,0.195l0,0c-0.014,0.101-0.014,0.202,0,0.302c0.107,0.295,0.277,0.563,0.498,0.787
		c0.168,0.209,0.313,0.435,0.437,0.672c0-0.081-0.04-0.155-0.066-0.235c0.341,0.542,0.521,1.168,0.517,1.808
		c0.012,0.464-0.157,0.915-0.471,1.257c-0.293,0.267-0.613,0.503-0.954,0.706c0.642,4.484-1.595,8.89-5.593,11.018
		c-0.067,0.155-0.142,0.316-0.209,0.477c-0.895,1.917-1.327,4.017-1.264,6.131c0,0.148,0,0.296,0.055,0.45
		c0.066,0.077,0.129,0.158,0.188,0.242l0,0c0,0,9.331,0.45,11.609-1.459c2.279-1.909,5.378,5.083,5.378,5.083
		s3.327,0.773,4.033,0.154c0.705-0.618,4.599,0.081,4.599,0.081c1.656-1.365,3.773-2.045,5.916-1.902
		c1.346-0.944,2.818-1.69,4.376-2.218l0,0h0.107l0,0c0.68-0.218,1.401-0.282,2.11-0.188c0,0,4.739-3.617,6.157-5.6
		c1.418-1.983,8.066-9.303,8.12-9.33l0.034-0.37l0.114-1.096c0.188,0.038,0.38,0.063,0.571,0.074
		c0.041-0.107,0.087-0.235,0.148-0.376c0.403-1.06,0.896-2.083,1.472-3.059c0,0,0.054-1.392-0.343-1.754
		c-0.396-0.363,0.384-5.438,0.384-5.438s4.503-9.512,7.938-2.151c0,0,6.824,4.948,0.733,10.165c0,0-2.386,1.042-2.756,1.929
		c-0.242,0.579-1.104,2.185-1.675,3.247c-0.101,0.175-0.188,0.336-0.261,0.477l0.067,0.061l-0.121,0.9l-0.054,0.35
		c1.088,0.672,1.814,1.345,1.612,1.795c-0.357,0.789-0.615,1.62-0.766,2.474c0,0-8.523,9.868-9.748,14.184
		c0,0-22.311,12.1-29.517,12.772l0.995,6.527c0,0,0.229,3.905,0.08,5.29s0.564,7.724,0.564,7.724s0.888,9.304,1.889,10.641
		c1.002,1.338,0.6,6.884,0.6,6.884c0.149,2.67,0.528,5.321,1.135,7.925c0.914,3.563,0,7.886,0,7.886s3.314,8.477-5.168,2.486
		c0,0-4.27-0.43-9.184-0.786c0,0.161,0,0.329,0,0.498c0,0.632,0,1.344-0.054,2.017c-0.114,4.779-0.343,11.36-0.746,16.328
		c-0.727,8.779-4.073,26.082-4.073,26.082l-0.336,8.739c0.144,0.827,0.195,1.669,0.154,2.508c-0.055,3.085-0.988,6.091-2.689,8.664
		l-1.028,5.774c0,0-1.721,3.778-1.842,6.051c-0.003,0.187,0.013,0.374,0.047,0.558c0.046,0.298,0.061,0.6,0.04,0.9
		c0,2.649-1.848,8.928-1.848,8.928s-0.343,6.387-1.345,6.723c-0.827,0.289,0.954,3.724,1.485,4.705
		c0.017-0.061,0.03-0.12,0.04-0.181l0.114,0.201c0.178,0.523,0.258,1.075,0.235,1.626c0.075,0.896-0.372,1.754-1.149,2.206
		c-1.862,1.034-2.87,1.929-1.344,2.353c0.584,0.168,1.209,0.229,1.673,0.423c0-0.073,0.062-0.148,0.087-0.215
		c0.443,0.196,0.688,0.676,0.586,1.149c-0.048,0.759-0.278,1.494-0.673,2.145c-0.738,1.643-1.668,3.192-2.77,4.619l-0.732-0.108
		c0.098,0.284,0.23,0.556,0.396,0.807c0.264,0.411,0.621,0.754,1.042,1.002c0.392,0.253,0.831,0.423,1.291,0.497
		c1.06,0.065,2.039,0.586,2.688,1.425c0.901,1.265,1.438,2.971-0.504,4.376l-6.931,2.098c0,0-11.831,1.076-11.105-1.54
		c0.727-2.613,1.196-4.912,1.196-4.912c0.033-1.604,0.433-3.177,1.17-4.6c0.13-0.235,0.277-0.461,0.444-0.672l-0.418-0.067
		c0,0-0.631-5.861-1.74-7.018c-0.256-0.27-0.31-0.47-0.235-0.618c-0.107-0.323,0.195-0.498,0.585-0.585
		c0,0.074,0.054,0.154,0.073,0.229c0.381-0.063,0.765-0.091,1.149-0.081c0,0,0.505-3.038-0.672-4.201
		c-0.193-0.263-0.269-0.594-0.208-0.914c0.008-0.42,0.069-0.839,0.181-1.243l0.041,0.073c0.732-2.749,3.019-7.071,3.019-7.071
		s0.208-2.777-0.518-3.913c-0.727-1.136,0.672-15.092,0.672-15.092s0-6.769,0.954-9.889c0.955-3.118-0.793-6.89-0.793-6.89v-0.202
		c0.003-0.016,0.003-0.031,0-0.046l0.154-1.063v0.067c0.263-1.782,0.754-5.009,1.076-6.501c0.464-2.11,0.383-12.315,0.383-12.315
		l-1.559-4.423l-3.361,7.395l-3.617,9.834c0,0-1.693,2.051-1.814,4.188c0,0.101,0,0.208,0,0.316c0.014,0.224,0.014,0.448,0,0.672
		c0.009,1.267-0.387,2.503-1.13,3.529c0,0-1.042,4.705-2.427,5.842c-1.385,1.136-1.473,3.461-1.473,3.461s-1.895,6.79-2.688,7.967
		c-0.672,0.988-0.826,3.778-0.854,4.631l0,0c0,0.162,0,0.249,0,0.249s-0.323,2.44-0.39,4.505c0,0.248,0,0.497,0,0.732
		c0,0,0-0.041,0-0.054c-0.019,0.561,0.027,1.122,0.135,1.674c0,0,0,0.061,0,0.093v-0.342c0.286,1.411,0.396,2.852,0.329,4.289
		c-0.054,2.46-0.538,5.378-2.098,7.018c-2.689,2.863-4.309,2.435-4.309,2.435s1.103,3.749,2.602,4.55
		c0.059,0.028,0.112,0.064,0.161,0.108c0-0.068,0-0.142,0.047-0.216c0.322,0.391,0.466,0.896,0.396,1.398
		c0.047,1.634-1.082,4.242-2.11,5.419c-0.381,0.345-0.844,0.588-1.345,0.705l0.235,0.161c0.188,0.107,0.356,0.194,0.518,0.27
		c0.243,0.118,0.505,0.195,0.772,0.229c1.062,0.06,2.043,0.581,2.689,1.424c0.908,1.265,1.445,2.972-0.497,4.376l-6.938,2.099
		C542.915,469.125,531.077,470.207,531.803,467.59z"/>
	<path fill="#2D293D" d="M576.58,473.695l6.723-2.104c1.882-1.411,1.344-3.113,0.49-4.383c-0.608-0.826-1.546-1.343-2.567-1.419
		c-0.448-0.075-0.874-0.244-1.251-0.498c-0.412-0.247-0.758-0.591-1.008-1c-0.461-0.784-0.693-1.681-0.673-2.589
		c0,0-7.192-2.407-9.264-0.356c-0.367,0.373-0.68,0.796-0.927,1.257c-0.715,1.448-1.094,3.038-1.109,4.651
		c0,0-0.457,2.293-1.156,4.915C565.139,474.791,576.58,473.695,576.58,473.695z"/>
	<path fill="#2D293D" d="M544.293,469.185l6.723-2.105c1.882-1.411,1.344-3.111,0.49-4.376c-0.607-0.829-1.549-1.348-2.574-1.418
		c-0.26-0.04-0.511-0.12-0.746-0.234c-0.173-0.076-0.34-0.166-0.498-0.27c-1.822-1.09-1.707-3.557-1.707-3.557
		s-7.187-2.406-9.257-0.355c-0.277,0.278-0.523,0.588-0.732,0.921c-0.843,1.528-1.291,3.242-1.305,4.988
		c0,0-0.463,2.299-1.162,4.913C532.825,470.307,544.293,469.185,544.293,469.185z"/>
	<path opacity="0.1" enable-background="new    " d="M569.03,461.346c-0.367,0.373-0.68,0.796-0.927,1.257l0,0l10.85,1.681
		c-0.461-0.783-0.693-1.68-0.672-2.588C578.281,461.696,571.102,459.295,569.03,461.346z"/>
	<path opacity="0.1" enable-background="new    " d="M536.018,457.757l-0.08,2.017c1.586,2.863,9.808,2.567,12.241,1.256
		c-0.174-0.074-0.34-0.165-0.498-0.268c-1.815-1.07-1.7-3.537-1.7-3.537s-7.187-2.406-9.257-0.355
		C536.457,457.14,536.221,457.436,536.018,457.757z"/>
	<path fill="#3F3D56" d="M535.057,448.911c0.477,0.907,0.875,1.854,1.189,2.83l-0.282,7.313c1.734,3.126,11.429,2.48,12.772,0.859
		c1.345-1.618,2.918-5.914,1.465-6.722c-1.451-0.807-2.514-4.551-2.514-4.551s1.56,0.431,4.175-2.433
		c2.615-2.864,2.124-9.472,1.721-11.065c-0.403-1.593,0.27-6.851,0.27-6.851s0.046-3.71,0.833-4.88
		c0.786-1.17,2.629-7.972,2.629-7.972s0.087-2.313,1.432-3.47c1.344-1.156,2.353-5.842,2.353-5.842
		c0.808-1.149,1.19-2.544,1.082-3.946c-0.188-2.325,1.762-4.752,1.762-4.752l3.529-9.882l3.253-7.395l1.473,4.47
		c0,0,0.067,10.205-0.383,12.322c-0.451,2.118-1.225,7.744-1.225,7.744s1.708,3.771,0.754,6.891
		c-0.955,3.119-0.936,9.882-0.936,9.882s-1.344,13.955-0.672,15.091c0.672,1.137,0.498,3.912,0.498,3.912s-4.114,8.007-2.951,9.163
		c1.162,1.157,0.672,4.202,0.672,4.202s-2.588-0.102-1.519,1.055c1.068,1.156,1.727,6.984,1.727,6.984l11.146,1.728
		c1.07-1.434,1.973-2.985,2.689-4.624c1.613-3.361-0.154-3.072-1.634-3.496c-1.479-0.423-0.497-1.345,1.304-2.359
		c1.803-1.016,0.881-3.584,0.881-3.584s-2.514-4.645-1.572-4.98c0.94-0.336,1.284-6.723,1.284-6.723s2.138-7.521,1.754-9.579
		c-0.384-2.057,1.748-6.89,1.748-6.89l0.874-5.809c2.109-3.23,2.982-7.113,2.46-10.938l0.35-8.98c0,0,3.26-17.311,3.973-26.096
		c0.45-5.62,0.673-13.317,0.786-18.116c0.061-2.689,0.081-4.478,0.081-4.478l-39.843-5.707c-0.136,1.997-0.456,3.978-0.955,5.916
		c-0.49,2.185-1.243,5.001-2.379,8.517c-3.267,10.084-1.795,17.74-1.795,17.74l-0.128,12.88c0,0-3.852,8.477-3.227,11.468
		c0.377,1.768,0.558,3.571,0.538,5.378c0,0-8.598,18.492-7.973,23.985c0.625,5.492-3.133,13.976-3.133,13.976
		S534.196,447.21,535.057,448.911z"/>
	<path opacity="0.05" enable-background="new    " d="M559.787,401.552l-12.1-2.091
		C547.688,399.461,554.303,406.762,559.787,401.552z"/>
	<path opacity="0.1" enable-background="new    " d="M549.893,387.63c0,0-0.585,4.289,2.017,6.01
		C551.883,393.64,547.19,392.692,549.893,387.63z"/>
	<path opacity="0.1" enable-background="new    " d="M551.163,373.95c0,0,9.862,8.772,13.585,8.222
		C568.474,381.621,551.163,373.95,551.163,373.95z"/>
	<path opacity="0.1" enable-background="new    " d="M574.731,406.063c0,0,7.663,2.057,7.771,5.169S574.731,406.063,574.731,406.063
		z"/>
	<path opacity="0.05" enable-background="new    " d="M571.524,444.615c0,0,10.844,2.453,7.69,3.725
		c-2.692,0.943-5.458,1.667-8.268,2.163C570.947,450.502,567.418,450.578,571.524,444.615z"/>
	<g opacity="0.05">
		<path d="M581.359,450.631c0.569-0.328,0.958-0.896,1.056-1.547l0.107,0.202c0,0,0.921,2.534-0.88,3.577l-0.586,0.355
			c-0.322-0.073-0.672-0.134-1.001-0.229C578.576,452.56,579.592,451.672,581.359,450.631z"/>
		<path d="M567.311,449.347c-0.289-0.289-0.249-1.002-0.034-1.909c0.412,0.833,0.591,1.763,0.518,2.689
			C567.689,449.835,567.524,449.57,567.311,449.347z"/>
		<path d="M570.765,403.347c0.362,1.108,0.565,2.263,0.605,3.428c-0.18-0.813-0.431-1.605-0.753-2.373
			C570.617,404.402,570.671,403.992,570.765,403.347z"/>
		<path d="M545.934,397.519c-0.06-0.335-0.081-0.676-0.062-1.016c0.108,0.672,0.183,1.344,0.229,1.909
			C546.055,398.117,545.98,397.821,545.934,397.519z"/>
		<path d="M569.764,436.272c-0.188-0.673-0.256-1.373-0.202-2.07c0.313,0.837,0.462,1.728,0.438,2.622
			C569.941,436.631,569.863,436.447,569.764,436.272z"/>
		<path d="M566.819,453.65c0.509,1.879,0.863,3.797,1.062,5.733l11.146,1.729c1.07-1.435,1.973-2.986,2.689-4.626
			c0.141-0.295,0.255-0.564,0.35-0.806c0.673,0.336,0.895,1.041-0.067,3.038c-0.716,1.643-1.617,3.195-2.689,4.632l-11.146-1.728
			c0,0-0.611-5.869-1.681-7.024C565.932,454.032,566.295,453.771,566.819,453.65z"/>
		<path d="M582.227,437.59c0,0-0.336,6.386-1.277,6.722l0,0c-0.423-1.075-0.672-2.09-0.275-2.238
			c0.941-0.336,1.277-6.723,1.277-6.723s2.145-7.521,1.762-9.579c-0.384-2.057,1.747-6.883,1.747-6.883l0.874-5.809
			c2.109-3.233,2.982-7.119,2.46-10.943l0.343-8.981c0,0,3.268-17.31,3.974-26.09c0.456-5.625,0.672-13.316,0.793-18.115
			c0-0.867,0.033-1.641,0.04-2.293l0.322,0.048c0,0,0,1.787-0.08,4.477c-0.107,4.8-0.336,12.497-0.787,18.116
			c-0.712,8.786-3.972,26.096-3.972,26.096l-0.351,8.98c0.523,3.824-0.351,7.707-2.46,10.938l-0.874,5.809
			c0,0-2.131,4.833-1.747,6.89C584.378,430.068,582.227,437.59,582.227,437.59z"/>
		<path d="M548.454,457.434c0.959-1.284,1.623-2.766,1.942-4.336c1.104,1.075-0.369,5.035-1.66,6.567s-11.031,2.266-12.772-0.859
			l0.067-1.763C538.451,459.619,547.164,458.959,548.454,457.434z"/>
		<path d="M534.78,446.423c0.475,0.908,0.872,1.855,1.19,2.83l-0.054,1.297c-0.188-0.477-0.464-1.123-0.854-1.889
			c-0.268-0.737-0.376-1.523-0.316-2.307L534.78,446.423z"/>
		<path d="M548.232,448.406c-0.326-0.726-0.603-1.475-0.827-2.238c0,0,1.56,0.431,4.168-2.433c1.909-2.085,2.164-6.151,2.017-8.827
			c0.403,1.593,0.895,8.194-1.721,11.065C550.148,447.848,548.897,448.305,548.232,448.406z"/>
		<path d="M553.853,428.058c-0.235,1.817-0.368,3.646-0.397,5.479c-0.054-0.356-0.107-0.672-0.16-0.867
			c-0.404-1.586,0.268-6.851,0.268-6.851s0.055-3.703,0.841-4.88s2.622-7.966,2.622-7.966s0.087-2.319,1.432-3.469
			c1.344-1.149,2.359-5.849,2.359-5.849c0.802-1.151,1.182-2.546,1.075-3.945c-0.188-2.326,1.761-4.753,1.761-4.753l3.537-9.882
			l3.247-7.395l1.498,4.416c0,0,0,0.552,0,1.412l-1.21-3.59l-3.233,7.395l-3.529,9.882c0,0-1.949,2.427-1.761,4.753
			c0.108,1.4-0.274,2.796-1.082,3.946c0,0-1.016,4.705-2.354,5.841c-1.338,1.137-1.432,3.469-1.432,3.469s-1.842,6.797-2.628,7.967
			C553.919,424.34,553.853,428.058,553.853,428.058z"/>
	</g>
	<path fill="#FFCDD3" d="M552.629,257.393l0.564,3.408l-0.095,1.506l-0.073,1.109l3.845,0.545l0.464-0.787l0,0
		c0.86-1.418,2.629-4.302,3.187-4.706c0.739-0.578,2.373-9.928,0.82-9.411c-0.948,0.325-1.741,0.991-2.226,1.869
		C559.115,250.926,551.486,251.464,552.629,257.393z"/>
	<path opacity="0.1" enable-background="new    " d="M553.025,263.416l3.845,0.545l0.464-0.787l0,0
		c-1.021-1.266-2.798-1.63-4.235-0.867L553.025,263.416z"/>
	<path fill="#DCE6F2" d="M551.977,265.205l5.049,1.344l0.141-0.753l0.363-2.017c-1.104-1.593-3.291-1.988-4.884-0.884
		c-0.008,0.006-0.016,0.012-0.023,0.017l-0.289,1.035L551.977,265.205z"/>
	<path fill="#FFCDD3" d="M634.794,260.936l5.332,3.126l0.53-1.008c0.558-1.062,1.392-2.689,1.627-3.247
		c0.355-0.887,2.688-1.936,2.688-1.936c5.901-5.224-0.672-10.157-0.672-10.157c-3.314-7.361-7.69,2.158-7.69,2.158
		s-0.747,5.075-0.37,5.438c0.377,0.363,0.33,1.748,0.33,1.748c-0.563,0.98-1.042,2.005-1.432,3.065
		C634.895,260.613,634.794,260.936,634.794,260.936z"/>
	<path opacity="0.1" enable-background="new    " d="M634.794,260.936l5.332,3.126l0.53-1.008c-0.746-0.672-3.361-2.985-4.275-2.917
		c-0.429,0.043-0.861,0.043-1.29,0C634.895,260.613,634.794,260.936,634.794,260.936z"/>
	<path fill="#DCE6F2" d="M634.176,262.549l5.996,3.247l0.176-1.344l0.121-0.901c0,0-3.429-3.173-4.478-3.099
		c-0.532,0.055-1.068,0.032-1.594-0.067l-0.114,1.103L634.176,262.549z"/>
	<path fill="#FFCDD3" d="M566.584,280.43c0,0,26.532,4.034,21.612,2.218c-3.422-1.264-4.706-3.516-4.914-5.976
		c-0.059-2.108,0.362-4.202,1.229-6.124c0.694-1.651,1.555-3.228,2.568-4.706c0,0-19.938-11.992-16.254-1.646
		c0.568,1.565,0.895,3.209,0.968,4.874c0.059,1.649-0.183,3.296-0.713,4.86C570.208,276.469,568.652,278.718,566.584,280.43z"/>
	<path opacity="0.1" enable-background="new    " d="M570.853,264.169c0.569,1.565,0.896,3.209,0.968,4.874
		c1.855,1.68,3.966,1.66,6.662,1.761c2.084,0.081,4.362,0.672,6.05-0.262c0.694-1.652,1.554-3.229,2.567-4.706
		C587.1,265.836,567.142,253.824,570.853,264.169z"/>
	<circle fill="#FFCDD3" cx="579.215" cy="260.499" r="11.025"/>
	<path opacity="0.1" enable-background="new    " d="M566.584,280.43c0,0,26.532,4.034,21.612,2.218
		c-3.422-1.264-4.706-3.516-4.914-5.976c-1.271-1.486-3.899-2.628-5.586-3.247c-1.544-0.582-3.229-0.674-4.827-0.262
		c-0.629,0.162-1.23,0.413-1.788,0.746C570.212,276.456,568.655,278.712,566.584,280.43z"/>
	<path opacity="0.1" enable-background="new    " d="M551.977,265.205l5.049,1.344l0.141-0.753c-1.058-1.578-2.99-2.323-4.833-1.862
		L551.977,265.205z"/>
	<path opacity="0.1" enable-background="new    " d="M634.176,262.549l5.996,3.247l0.176-1.344c-1.94-1.138-3.963-2.129-6.05-2.965
		L634.176,262.549z"/>
	<path opacity="0.1" enable-background="new    " d="M553.455,347.163c10.259,2.017,24.873,4.705,27.219,4.094
		c1.956-0.518,8.134-0.216,13.498,0.174c0.061-2.688,0.081-4.477,0.081-4.477l-39.843-5.707
		C554.273,343.244,553.954,345.224,553.455,347.163z"/>
	<path fill="#3F3D56" d="M543.291,344.345c0,0,33.76,7.139,37.45,6.172c3.69-0.969,22.365,0.954,22.365,0.954
		c8.207,5.97,5.014-2.501,5.014-2.501s0.907-4.322,0-7.878c-0.579-2.607-0.941-5.258-1.082-7.925c0,0,0.396-5.546-0.571-6.884
		c-0.967-1.338-1.815-10.641-1.815-10.641s-0.672-6.333-0.537-7.717c0.134-1.385-0.075-5.291-0.075-5.291l-0.954-6.527
		c6.979-0.672,28.591-12.813,28.591-12.813c1.189-4.309,9.451-14.197,9.451-14.197c0.144-0.852,0.392-1.683,0.74-2.474
		c0.618-1.458-7.604-4.706-7.604-4.706s-6.5,7.354-7.873,9.337c-1.37,1.983-5.969,5.613-5.969,5.613
		c-0.677-0.09-1.366-0.025-2.016,0.188h-0.108l0,0c-1.515,0.531-2.943,1.281-4.242,2.225c-2.083-0.129-4.137,0.556-5.727,1.909
		c0,0-3.777-0.672-4.45-0.081c-0.672,0.592-3.885-0.147-3.885-0.147s-2.979-6.978-5.184-5.069s-11.246,1.472-11.246,1.472
		c-1.136-1.647-4.033-2.911-5.835-3.569c-1.543-0.584-3.229-0.679-4.826-0.269c-0.692,0.17-1.35,0.459-1.943,0.854l-5.687,5.156
		c0,0-1.499-2.097-1.298-2.554c0.202-0.458-1.815-0.908-1.815-0.908s-2.688-0.935-3.663-1.25c-0.976-0.316-1.983,0.747-2.07,0.84
		c0.46-1.293,0.67-2.662,0.618-4.033c-0.208-1.768,1.237-3.287,1.237-3.287c-2.931-8.067-10.508-1.708-10.508-1.708
		s-1.001,4.322-0.322,6.017c0.679,1.694-0.941,5.156-0.793,6.09c0.147,0.935-0.464,2.487-0.53,4.249
		c-0.068,1.761,0.732,5.129,1.229,6.628s4.813,5.008,4.813,5.008s0.073,5.29,1.901,8.423c1.829,3.132,0.222,13.545,0.222,13.545
		s-2.164,8.066-4.584,10.581S543.291,344.345,543.291,344.345z"/>
	<path opacity="0.1" enable-background="new    " d="M595.141,285.324c0,0,1.136-3.018,2.07-3.26
		c0.937-0.304,1.85-0.672,2.735-1.102l-0.551-1.163c0,0-3.516,0.82-4.114,1.822C594.683,282.622,595.141,285.324,595.141,285.324z"
		/>
	<path opacity="0.1" enable-background="new    " d="M614.009,279.281c0.155,0.928,8.363,2.084,8.363,2.084l-4.033-4.343l0,0h-0.101
		l0,0C616.726,277.565,615.301,278.326,614.009,279.281z"/>
	<path opacity="0.1" enable-background="new    " d="M594.125,310.412c0.095-0.101-21.794,25.45-37.416,9.599
		C556.735,320.011,582.18,324.468,594.125,310.412z"/>
	<path opacity="0.1" enable-background="new    " d="M599.818,297.196c-1.391,2.898-3.124,5.62-5.162,8.107
		c-2.225,2.756-4.883,5.131-7.872,7.031C586.784,312.334,599.543,298.903,599.818,297.196z"/>
	<path opacity="0.1" enable-background="new    " d="M604.464,282.836c0,0-2.433,8.914-7.919,11.764L604.464,282.836z"/>
	<path opacity="0.1" enable-background="new    " d="M607.623,283.872c0.06-0.168,1.58,7.186-7.354,10.876
		C600.27,294.749,604.047,293.626,607.623,283.872z"/>
	<path opacity="0.1" enable-background="new    " d="M553.314,275.725c0.141,0-4.443,2.689-5.708,3.953
		C547.606,279.691,550.686,275.449,553.314,275.725z"/>
	<path fill="#3F3D56" d="M581.811,270.609c-0.107,0.583-0.436,1.104-0.915,1.452c-0.329,0.148-0.688,0.216-1.048,0.195
		c-3.361,0.081-6.871,0.094-9.93-1.344c-0.57-0.229-1.076-0.593-1.473-1.063c-0.434-0.757-0.701-1.598-0.786-2.467
		c-0.376-1.667-1.25-3.166-1.855-4.759c-1.017-2.681-1.282-5.589-0.766-8.41c0.118-0.873,0.438-1.706,0.935-2.434
		c0.941-1.237,2.581-1.688,3.798-2.655s2.017-2.487,3.442-3.193c1.27-0.672,2.782-0.504,4.168-0.208
		c2.731,0.571,5.328,1.662,7.648,3.213c0.78,0.518,1.634,1.116,2.562,0.981c0.793-0.224,1.485-0.715,1.956-1.392
		c0.615,1.532,0.846,3.191,0.673,4.833c-0.041,0.24-0.041,0.486,0,0.726c0.106,0.29,0.271,0.556,0.483,0.779
		c0.793,0.995,1.251,2.542,0.396,3.476c-0.369,0.416-0.928,0.625-1.29,1.042c-0.673,0.746-0.491,1.869-0.511,2.864
		c0.022,0.346-0.078,0.688-0.282,0.968c-0.374,0.312-0.88,0.414-1.345,0.269c-0.465-0.157-0.956-0.224-1.445-0.195
		c-0.523,0.154-0.979,0.478-1.298,0.921C583.242,266.112,582.556,268.256,581.811,270.609z"/>
	<g opacity="0.1">
		<path d="M568.104,269.002c0.397,0.471,0.905,0.836,1.479,1.062c3.059,1.412,6.561,1.398,9.93,1.344
			c0.359,0.015,0.717-0.052,1.048-0.194c0.481-0.351,0.81-0.873,0.915-1.459c0.745-2.346,1.432-4.491,3.058-6.406
			c0.316-0.444,0.773-0.769,1.298-0.921c0.489-0.028,0.98,0.038,1.445,0.195c0.465,0.145,0.974,0.041,1.344-0.275
			c0.205-0.28,0.306-0.623,0.283-0.968c0-0.988-0.142-2.111,0.504-2.857c0.363-0.423,0.921-0.632,1.297-1.042
			c0.496-0.622,0.61-1.467,0.297-2.198c0.551,0.955,0.766,2.165,0.046,2.951c-0.376,0.41-0.935,0.625-1.297,1.042
			c-0.673,0.746-0.484,1.869-0.505,2.864c0.023,0.346-0.077,0.688-0.281,0.968c-0.374,0.313-0.88,0.414-1.345,0.269
			c-0.465-0.157-0.956-0.223-1.446-0.195c-0.522,0.153-0.98,0.477-1.297,0.921c-1.627,1.916-2.319,4.033-3.059,6.413
			c-0.105,0.583-0.434,1.104-0.914,1.452c-0.329,0.149-0.688,0.216-1.049,0.195c-3.361,0.081-6.87,0.094-9.929-1.344
			c-0.573-0.227-1.081-0.591-1.479-1.062c-0.197-0.275-0.348-0.582-0.442-0.908L568.104,269.002z"/>
		<path d="M590.166,253.777c-0.145-0.167-0.252-0.362-0.316-0.572c-0.043-0.238-0.043-0.481,0-0.719
			c0.148-1.355,0.025-2.727-0.362-4.034l0.06-0.067c0.601,1.536,0.819,3.194,0.639,4.833
			C590.164,253.404,590.158,253.59,590.166,253.777z"/>
	</g>
	<path opacity="0.1" enable-background="new    " d="M583.524,277.365c0,0-13.842,1.291-14.998-0.827"/>
	<path opacity="0.1" enable-background="new    " d="M556.978,270.636c0,0-7.649-0.282-9.411,2.521"/>
</g>
<path opacity="0.1" fill="#252223" enable-background="new    " d="M1794.518,973.235c-3.61,1.86-7.393,3.468-11.125,5.07
	c-13.786,5.821-27.78,11.692-42.591,13.69c-27.816,3.701-56.52-6.439-83.85-0.111c-22.893,5.283-41.826,21.473-64.191,28.683
	c-10.398,3.352-21.219,4.665-32.136,4.665h-1.409c-1.353-0.017-2.694-0.051-4.026-0.102c-11.068-0.415-22.183-2.054-33.033-4.147
	c-34.261-6.592-69.13-18.675-95.324-40.918C1503.102,966.132,1660.207,944.745,1794.518,973.235z"/>
<polygon opacity="0.3" fill="#EE62ED" enable-background="new    " points="1899.176,776.021 1899.176,738.08 1876.647,738.08 
	1876.647,776.021 1849.97,776.021 1849.97,717.331 1830.406,717.331 1830.406,673.46 1814.4,673.46 1814.4,628.404 
	1781.201,628.404 1781.201,673.46 1765.195,673.46 1765.195,717.331 1746.224,717.331 1746.224,664.568 1735.553,664.568 
	1735.553,637.891 1729.031,637.891 1729.031,664.568 1691.09,664.568 1691.09,832.934 1662.041,832.934 1662.041,815.148 
	1644.256,815.148 1644.256,832.934 1615.207,832.934 1615.207,776.021 1563.038,776.021 1563.038,738.08 1540.511,738.08 
	1540.511,776.021 1539.324,776.021 1539.324,848.939 1515.611,848.939 1515.611,806.256 1487.155,806.256 1487.155,848.939 
	1463.441,848.939 1463.441,717.331 1445.063,717.331 1445.063,673.46 1377.48,673.46 1377.48,717.331 1359.695,717.331 
	1359.695,949.129 1463.441,949.129 1539.324,949.129 1615.207,949.129 1691.09,949.129 1746.224,949.129 1849.97,949.129 
	1925.853,949.129 1925.853,776.021 "/>
<rect x="1369.329" y="767.91" opacity="0.4" fill="#FFFFFF" enable-background="new    " width="21.296" height="12.169"/>
<rect x="1426.686" y="730.966" opacity="0.4" fill="#FFFFFF" enable-background="new    " width="24.898" height="14.229"/>
<rect x="1369.329" y="791.74" opacity="0.4" fill="#FFFFFF" enable-background="new    " width="21.296" height="12.17"/>
<rect x="1426.686" y="758.828" opacity="0.4" fill="#FFFFFF" enable-background="new    " width="24.898" height="14.229"/>
<rect x="1369.329" y="815.572" opacity="0.4" fill="#FFFFFF" enable-background="new    " width="21.296" height="12.168"/>
<rect x="1426.686" y="786.693" opacity="0.4" fill="#FFFFFF" enable-background="new    " width="24.898" height="14.227"/>
<rect x="1369.329" y="839.402" opacity="0.4" fill="#FFFFFF" enable-background="new    " width="21.296" height="12.169"/>
<rect x="1426.686" y="814.556" opacity="0.4" fill="#FFFFFF" enable-background="new    " width="24.898" height="14.228"/>
<rect x="1369.329" y="863.233" opacity="0.4" fill="#FFFFFF" enable-background="new    " width="21.296" height="12.169"/>
<rect x="1426.686" y="842.419" opacity="0.4" fill="#FFFFFF" enable-background="new    " width="24.898" height="14.229"/>
<rect x="1369.329" y="887.064" opacity="0.4" fill="#FFFFFF" enable-background="new    " width="21.296" height="12.169"/>
<rect x="1426.686" y="870.282" opacity="0.4" fill="#FFFFFF" enable-background="new    " width="24.898" height="14.229"/>
<rect x="1369.329" y="910.896" opacity="0.4" fill="#FFFFFF" enable-background="new    " width="21.296" height="12.169"/>
<rect x="1416.99" y="910.896" opacity="0.4" fill="#FFFFFF" enable-background="new    " width="21.296" height="12.169"/>
<rect x="1472.334" y="863.168" opacity="0.4" fill="#FFFFFF" enable-background="new    " width="58.098" height="7.114"/>
<rect x="1472.334" y="873.839" opacity="0.4" fill="#FFFFFF" enable-background="new    " width="58.098" height="7.115"/>
<rect x="1472.334" y="884.511" opacity="0.4" fill="#FFFFFF" enable-background="new    " width="58.098" height="7.114"/>
<rect x="1624.1" y="866.725" opacity="0.4" fill="#FFFFFF" enable-background="new    " width="58.098" height="7.114"/>
<rect x="1624.1" y="877.396" opacity="0.4" fill="#FFFFFF" enable-background="new    " width="58.098" height="7.115"/>
<rect x="1624.1" y="888.067" opacity="0.4" fill="#FFFFFF" enable-background="new    " width="58.098" height="7.114"/>
<rect x="1472.334" y="895.182" opacity="0.4" fill="#FFFFFF" enable-background="new    " width="58.098" height="7.113"/>
<rect x="1456.033" y="917.486" opacity="0.4" fill="#FFFFFF" enable-background="new    " width="49.689" height="6.085"/>
<rect x="1456.033" y="926.613" opacity="0.4" fill="#FFFFFF" enable-background="new    " width="49.689" height="6.084"/>
<rect x="1551.773" y="789.656" opacity="0.4" fill="#FFFFFF" enable-background="new    " width="16.007" height="20.75"/>
<rect x="1586.751" y="789.656" opacity="0.4" fill="#FFFFFF" enable-background="new    " width="16.006" height="20.75"/>
<rect x="1551.773" y="822.855" opacity="0.4" fill="#FFFFFF" enable-background="new    " width="16.007" height="20.749"/>
<rect x="1586.751" y="822.855" opacity="0.4" fill="#FFFFFF" enable-background="new    " width="16.006" height="20.749"/>
<rect x="1551.773" y="856.055" opacity="0.4" fill="#FFFFFF" enable-background="new    " width="16.007" height="20.749"/>
<rect x="1586.751" y="856.055" opacity="0.4" fill="#FFFFFF" enable-background="new    " width="16.006" height="20.749"/>
<rect x="1551.773" y="889.254" opacity="0.4" fill="#FFFFFF" enable-background="new    " width="16.007" height="20.749"/>
<rect x="1586.751" y="889.254" opacity="0.4" fill="#FFFFFF" enable-background="new    " width="16.006" height="20.749"/>
<rect x="1691.09" y="678.203" opacity="0.4" fill="#FFFFFF" enable-background="new    " width="21.342" height="27.271"/>
<rect x="1691.09" y="717.331" opacity="0.4" fill="#FFFFFF" enable-background="new    " width="21.342" height="27.271"/>
<rect x="1691.09" y="756.458" opacity="0.4" fill="#FFFFFF" enable-background="new    " width="21.342" height="27.27"/>
<rect x="1691.09" y="795.584" opacity="0.4" fill="#FFFFFF" enable-background="new    " width="21.342" height="27.271"/>
<rect x="1691.09" y="834.712" opacity="0.4" fill="#FFFFFF" enable-background="new    " width="21.342" height="27.271"/>
<rect x="1691.09" y="873.839" opacity="0.4" fill="#FFFFFF" enable-background="new    " width="21.342" height="27.271"/>
<rect x="1758.377" y="733.931" opacity="0.4" fill="#FFFFFF" enable-background="new    " width="79.439" height="23.12"/>
<rect x="1758.673" y="783.728" opacity="0.4" fill="#FFFFFF" enable-background="new    " width="79.44" height="23.121"/>
<rect x="1758.97" y="833.526" opacity="0.4" fill="#FFFFFF" enable-background="new    " width="79.44" height="23.121"/>
<rect x="1759.267" y="883.325" opacity="0.4" fill="#FFFFFF" enable-background="new    " width="79.438" height="23.12"/>
<rect x="1374.906" y="729.375" opacity="0.4" fill="#FFFFFF" enable-background="new    " width="9.127" height="19.268"/>
<rect x="1821.102" y="818.106" opacity="0.4" fill="#FFFFFF" enable-background="new    " width="22.816" height="29.408"/>
<rect x="1821.102" y="860.698" opacity="0.4" fill="#FFFFFF" enable-background="new    " width="22.816" height="29.408"/>
<rect x="1821.102" y="903.29" opacity="0.4" fill="#FFFFFF" enable-background="new    " width="22.816" height="29.407"/>
<path fill="#EE62ED" d="M1384.88,923.342c0,0-39.919,24.085,33.667,61.165c0,0,16.226-30.098-1.713-54.639
	c-7.201-9.901-20.669-12.852-31.352-6.87L1384.88,923.342z"/>
<path fill="none" stroke="#535461" stroke-width="0.507" stroke-miterlimit="10" d="M1385.342,922.835
	c0,0,34.159,26.139,33.205,61.672"/>
<path fill="none" stroke="#535461" stroke-width="1.1857" stroke-miterlimit="10" d="M1430.676,985.813
	c0,0-14.625-49.654,2.744-86.203c7.292-15.336,9.712-32.559,6.344-49.206c-1.61-7.903-3.941-15.643-6.965-23.12"/>
<path fill="#EE62ED" d="M1443.582,804.217c0,6.088-11.021,23.713-11.021,23.713s-11.021-17.648-11.021-23.713
	c-0.142-6.085,4.677-11.133,10.763-11.273c6.085-0.142,11.132,4.677,11.273,10.762c0.003,0.17,0.003,0.342,0,0.512H1443.582z"/>
<path fill="#EE62ED" d="M1461.817,837.925c-3.31,5.11-22.147,13.933-22.147,13.933s0.342-20.803,3.651-25.913
	c3.435-5.024,10.293-6.313,15.317-2.878c4.847,3.313,6.245,9.846,3.179,14.853V837.925z"/>
<path fill="#EE62ED" d="M1461.017,895.531c-5.436,2.738-26.149,0.848-26.149,0.848s10.795-17.785,16.23-20.524
	c5.489-2.632,12.071-0.316,14.703,5.173c2.559,5.332,0.45,11.735-4.778,14.504H1461.017z"/>
<path fill="#EE62ED" d="M1437.444,945.819c-4.183,3.094-21.925,4.493-21.925,4.493s6.531-16.55,10.715-19.647
	c4.16-3.13,10.069-2.294,13.198,1.867c3.129,4.16,2.293,10.069-1.867,13.198C1437.525,945.761,1437.485,945.791,1437.444,945.819z"
	/>
<path fill="#EE62ED" d="M1416.53,853.037c4.363,4.238,24.704,8.632,24.704,8.632s-4.979-20.199-9.344-24.442
	c-4.263-4.345-11.241-4.41-15.585-0.147s-4.409,11.241-0.146,15.585c0.122,0.126,0.248,0.247,0.377,0.367L1416.53,853.037z"/>
<path fill="#EE62ED" d="M1404.994,904.002c5.437,2.739,26.149,0.848,26.149,0.848s-10.796-17.785-16.23-20.522
	c-5.49-2.632-12.071-0.317-14.704,5.171c-2.558,5.333-0.449,11.735,4.779,14.504H1404.994z"/>
<path fill="#EE62ED" d="M1394.66,959.591c4.184,3.093,21.925,4.493,21.925,4.493s-6.53-16.556-10.718-19.648
	c-4.211-3.063-10.105-2.133-13.168,2.077c-3.028,4.162-2.157,9.984,1.957,13.078H1394.66z"/>
<path opacity="0.25" enable-background="new    " d="M1443.582,804.217c0,6.088-11.021,23.713-11.021,23.713
	s-11.021-17.648-11.021-23.713c-0.142-6.085,4.677-11.133,10.763-11.273c6.085-0.142,11.132,4.677,11.273,10.762
	c0.003,0.17,0.003,0.342,0,0.512H1443.582z"/>
<path opacity="0.25" enable-background="new    " d="M1461.817,837.925c-3.31,5.11-22.147,13.933-22.147,13.933
	s0.342-20.803,3.651-25.913c3.435-5.024,10.293-6.313,15.317-2.878c4.847,3.313,6.245,9.846,3.179,14.853V837.925z"/>
<path opacity="0.25" enable-background="new    " d="M1461.017,895.531c-5.436,2.738-26.149,0.848-26.149,0.848
	s10.795-17.785,16.23-20.524c5.489-2.632,12.071-0.316,14.703,5.173c2.559,5.332,0.45,11.735-4.778,14.504H1461.017z"/>
<path opacity="0.25" enable-background="new    " d="M1437.444,945.819c-4.183,3.094-21.925,4.493-21.925,4.493
	s6.531-16.55,10.715-19.647c4.16-3.13,10.069-2.294,13.198,1.867c3.129,4.16,2.293,10.069-1.867,13.198
	C1437.525,945.761,1437.485,945.791,1437.444,945.819z"/>
<path opacity="0.25" enable-background="new    " d="M1416.53,853.037c4.363,4.238,24.704,8.632,24.704,8.632
	s-4.979-20.199-9.344-24.442c-4.263-4.345-11.241-4.41-15.585-0.147s-4.409,11.241-0.146,15.585
	c0.122,0.126,0.248,0.247,0.377,0.367L1416.53,853.037z"/>
<path opacity="0.25" enable-background="new    " d="M1404.994,904.002c5.437,2.739,26.149,0.848,26.149,0.848
	s-10.796-17.785-16.23-20.522c-5.49-2.632-12.071-0.317-14.704,5.171c-2.558,5.333-0.449,11.735,4.779,14.504H1404.994z"/>
<path opacity="0.25" enable-background="new    " d="M1394.66,959.591c4.184,3.093,21.925,4.493,21.925,4.493
	s-6.53-16.556-10.718-19.648c-4.211-3.063-10.105-2.133-13.168,2.077c-3.028,4.162-2.157,9.984,1.957,13.078H1394.66z"/>
<path fill="none" stroke="#535461" stroke-width="1.0141" stroke-miterlimit="10" d="M1810.849,974.909
	c0,0-12.508-42.47,2.348-73.729c6.236-13.118,8.306-27.847,5.426-42.085c-1.378-6.76-3.371-13.379-5.958-19.774"/>
<path fill="#EE62ED" d="M1821.907,819.593c0,5.207-9.426,20.281-9.426,20.281s-9.426-15.095-9.426-20.281
	c-0.121-5.204,4.001-9.521,9.205-9.642c5.204-0.121,9.521,4.001,9.642,9.205c0.004,0.146,0.004,0.291,0,0.437H1821.907z"/>
<path fill="#EE62ED" d="M1837.483,848.423c-2.829,4.37-18.942,11.915-18.942,11.915s0.294-17.792,3.123-22.162
	c2.719-4.439,8.521-5.835,12.961-3.117c4.439,2.719,5.835,8.521,3.116,12.961c-0.082,0.135-0.168,0.268-0.258,0.398V848.423z"/>
<path fill="#EE62ED" d="M1836.804,897.691c-4.649,2.343-22.365,0.725-22.365,0.725s9.233-15.211,13.883-17.553
	c4.693-2.251,10.324-0.271,12.575,4.422c2.188,4.563,0.384,10.038-4.087,12.406H1836.804z"/>
<path fill="#EE62ED" d="M1827.896,934.853c-4.183,3.093-21.924,4.492-21.924,4.492s6.53-16.55,10.713-19.647
	c4.21-3.063,10.105-2.132,13.168,2.077C1832.88,925.937,1832.009,931.759,1827.896,934.853z"/>
<path fill="#EE62ED" d="M1798.751,861.332c3.731,3.625,21.128,7.382,21.128,7.382s-4.259-17.274-7.99-20.904
	c-3.735-3.628-9.702-3.542-13.33,0.192S1795.017,857.704,1798.751,861.332z"/>
<path fill="#EE62ED" d="M1788.904,904.938c4.649,2.342,22.365,0.725,22.365,0.725s-9.232-15.211-13.882-17.554
	c-4.707-2.225-10.326-0.213-12.551,4.493C1782.691,897.141,1784.479,902.564,1788.904,904.938z"/>
<path fill="#EE62ED" d="M1785.106,948.624c4.183,3.093,21.925,4.492,21.925,4.492s-6.531-16.551-10.714-19.648
	c-4.21-3.062-10.105-2.132-13.167,2.078C1780.122,939.708,1780.993,945.53,1785.106,948.624z"/>
<path fill="none" stroke="#535461" stroke-width="1.1857" stroke-miterlimit="10" d="M1821.218,968.159
	c0,0-7.861-26.679,1.477-46.324c3.966-8.212,5.163-17.49,3.408-26.44c-0.866-4.241-2.118-8.395-3.741-12.408"/>
<path fill="#EE62ED" d="M1828.166,870.566c0,3.272-5.929,12.753-5.929,12.753s-5.929-9.485-5.929-12.753
	c0-3.274,2.654-5.928,5.929-5.928C1825.511,864.639,1828.166,867.292,1828.166,870.566z"/>
<path fill="#EE62ED" d="M1837.953,888.684c-1.777,2.745-11.904,7.488-11.904,7.488s0.184-11.182,1.963-13.927
	c1.652-2.826,5.284-3.777,8.109-2.124c2.826,1.652,3.777,5.283,2.125,8.109C1838.155,888.386,1838.059,888.538,1837.953,888.684z"/>
<path fill="#EE62ED" d="M1768.374,929.275c-2.5,1.258-12.021,0.39-12.021,0.39s4.964-8.173,7.458-9.431
	c2.552-1.153,5.556-0.019,6.708,2.532c1.084,2.398,0.152,5.229-2.145,6.514V929.275z"/>
<path fill="#EE62ED" d="M1763.583,949.247c-2.252,1.663-11.784,2.414-11.784,2.414s3.509-8.894,5.76-10.557
	c2.33-1.555,5.479-0.926,7.032,1.403C1766.039,944.68,1765.604,947.595,1763.583,949.247z"/>
<path fill="#EE62ED" d="M1813.617,896.807c2.371,2.275,13.274,4.642,13.274,4.642s-2.675-10.855-5.022-13.132
	c-2.238-2.39-5.989-2.511-8.379-0.273c-2.389,2.239-2.511,5.991-0.273,8.38c0.128,0.135,0.262,0.265,0.4,0.389V896.807z"/>
<path fill="#EE62ED" d="M1742.621,933.174c2.501,1.258,12.022,0.391,12.022,0.391s-4.964-8.173-7.459-9.431
	c-2.551-1.153-5.555-0.02-6.708,2.533c-1.084,2.398-0.152,5.228,2.145,6.512V933.174z"/>
<path fill="#EE62ED" d="M1740.594,956.655c2.251,1.663,11.783,2.413,11.783,2.413s-3.529-8.898-5.76-10.562
	c-2.315-1.574-5.47-0.975-7.044,1.342C1738.085,952.036,1738.529,955,1740.594,956.655z"/>
<path opacity="0.1" fill="#252223" enable-background="new    " d="M1516.606,656.671h-4.078c1.577,0.073,2.913-1.147,2.984-2.724
	c0.072-1.576-1.147-2.912-2.726-2.985c-0.085-0.003-0.172-0.003-0.259,0h-33.038c-1.578,0.073-2.797,1.409-2.725,2.985
	c0.066,1.476,1.248,2.658,2.725,2.724h4.078c-1.576-0.07-2.912,1.149-2.984,2.725c-0.072,1.577,1.147,2.914,2.725,2.984
	c0.087,0.005,0.174,0.005,0.26,0h-5.709c-1.576-0.07-2.914,1.149-2.984,2.725c-0.072,1.578,1.147,2.914,2.725,2.984
	c0.087,0.005,0.173,0.005,0.26,0h33.038c1.577,0.073,2.913-1.147,2.985-2.724c0.071-1.576-1.147-2.912-2.725-2.985
	c-0.087-0.003-0.174-0.003-0.261,0h5.709c1.577,0.073,2.913-1.147,2.985-2.724c0.071-1.576-1.147-2.912-2.725-2.985
	C1516.78,656.668,1516.693,656.668,1516.606,656.671L1516.606,656.671z"/>
<path opacity="0.1" fill="#252223" enable-background="new    " d="M1662.443,728.405h-4.078c1.577,0.072,2.913-1.147,2.984-2.726
	c0.072-1.576-1.147-2.911-2.724-2.984c-0.087-0.003-0.174-0.003-0.261,0h-33.038c-1.577,0.073-2.796,1.408-2.725,2.984
	c0.067,1.478,1.248,2.658,2.725,2.726h4.079c-1.577-0.072-2.913,1.147-2.985,2.724c-0.071,1.577,1.147,2.913,2.725,2.985
	c0.087,0.003,0.174,0.003,0.261,0h-5.709c-1.577-0.072-2.913,1.147-2.985,2.725c-0.071,1.576,1.147,2.912,2.725,2.983
	c0.087,0.004,0.174,0.004,0.261,0h33.037c1.577,0.073,2.913-1.146,2.985-2.725c0.071-1.575-1.147-2.911-2.725-2.983
	c-0.087-0.005-0.174-0.005-0.261,0h5.709c1.577,0.072,2.914-1.147,2.985-2.726c0.071-1.575-1.147-2.911-2.725-2.983
	C1662.617,728.401,1662.53,728.401,1662.443,728.405z"/>
<path opacity="0.1" fill="#252223" enable-background="new    " d="M1831.079,685.607h-3.488c1.349,0.062,2.491-0.982,2.554-2.33
	c0.062-1.349-0.982-2.491-2.331-2.553c-0.074-0.004-0.148-0.004-0.223,0h-28.257c-1.349,0.062-2.392,1.204-2.33,2.553
	c0.058,1.262,1.067,2.272,2.33,2.33h3.488c-1.348-0.062-2.491,0.981-2.552,2.33c-0.063,1.348,0.98,2.491,2.329,2.553
	c0.074,0.003,0.148,0.003,0.223,0h-4.883c-1.348-0.062-2.491,0.981-2.553,2.33c-0.062,1.348,0.981,2.491,2.33,2.553
	c0.074,0.004,0.148,0.004,0.223,0h28.258c1.348-0.062,2.392-1.205,2.33-2.553c-0.058-1.262-1.068-2.273-2.33-2.33h4.882
	c1.35,0.061,2.492-0.982,2.554-2.33c0.062-1.349-0.982-2.491-2.33-2.553C1831.229,685.604,1831.153,685.604,1831.079,685.607z"/>
<linearGradient id="SVGID_5_" gradientUnits="userSpaceOnUse" x1="1059.0459" y1="379.1641" x2="1216.9219" y2="379.1641" gradientTransform="matrix(1 0 0 -1 471.5 1206.25)">
	<stop  offset="0" style="stop-color:#808080;stop-opacity:0.25"/>
	<stop  offset="0.54" style="stop-color:#808080;stop-opacity:0.12"/>
	<stop  offset="1" style="stop-color:#808080;stop-opacity:0.1"/>
</linearGradient>
<path fill="url(#SVGID_5_)" d="M1684.688,964.354h0.13c0,0-20.803-57.167-26.63-64.916c0,0-6.1-3.604-5.821-9.705l-7.487-36.328
	c0,0,0.112-0.113,0.302-0.319l0.16-0.179l0.184-0.213c0.999-1.187,1.834-2.501,2.484-3.907l0.119-0.273
	c0.278-0.637,0.512-1.292,0.699-1.962c0.521,0.187,1.096,0.157,1.595-0.083c0,0,0-0.195,0-0.545l0,0c0,0-0.07-2.152-0.078-5.521
	c0-0.936,0-1.956,0-3.04c0.232-0.836,0.428-1.713,0.593-2.65l-0.301-0.143v-0.136l-0.256-0.119
	c0.208-7.974,0.884-18.164,2.834-25.105c0.067-0.246,0.139-0.489,0.213-0.73c2.307-7.581,2.372-16.836,2.965-24.661
	c0.46,0.982,0.856,1.994,1.186,3.028c0.293-0.328,0.63-0.613,1.002-0.847l2.323,18.598v21.935c0,0-3.882,28.29,8.3,23.02
	c12.183-5.271,3.326-24.686,3.326-24.686s0-10.813,1.666-16.362c1.096-3.651,0.392-15.461-0.226-23.12
	c1.186,0.207,1.886,0.373,1.886,0.373c0.27-1.111,0.392-2.254,0.362-3.396c0.254-12.789-15.516-33.389-21.936-41.249
	c-1.829-2.807-4.391-5.062-7.404-6.522l-12.338-5.976c0,0-5.826-1.423-8.098-5.929c0-0.076-0.042-0.153-0.059-0.23
	c0.256-0.114,0.509-0.24,0.758-0.375c1.884-0.905,3.535-2.23,4.826-3.876c2.626-3.338,3.883-7.517,5.08-11.591
	c1.411-4.788,2.834-9.68,2.645-14.672s-2.288-10.178-6.521-12.829c-3.615-2.265-8.661-2.691-10.907-6.319
	c-0.594-0.979-0.973-2.14-1.779-2.929c0.019-0.337-0.214-0.635-0.546-0.7l-6.212-1.221c-0.366-0.071-0.722,0.166-0.795,0.531
	c0,0.002,0,0.003,0,0.003v0.089c-5.556,0.154-11.009,1.539-15.965,4.056c-1.761,0.85-3.45,1.841-5.052,2.964
	c-2.282,1.612-4.527,3.752-4.854,6.52c-0.16,1.382,0.173,2.799-0.107,4.15c-0.752,3.623-5.607,5.982-4.896,9.615
	c0.48,2.467,3.271,3.528,5.886,3.559c-2.93,10.475,3.185,21.341,13.659,24.272c0.433,0.121,0.87,0.226,1.31,0.318
	c1.902,2.676,3.568,5.514,4.98,8.478c-3.195,3.035-9.888,10.078-5.785,12.448l-8.537,21.094l0.83,21.74l-3.6,3.213l0.789,0.984
	c-4.031,4.694-13.362,14.956-20.187,17.689c-0.982,0.395-1.934,0.862-2.845,1.398c-1.247,0.792-2.633,1.335-4.085,1.602
	c-0.634,0.068-1.261,0.191-1.874,0.367l-1.63-3.38c-0.583-1.209-2.035-1.717-3.244-1.134c-0.003,0.001-0.004,0.001-0.005,0.001
	l-1.001,0.481l0,0l-2.372,1.144l-0.989,0.48l0,0l-0.747,0.362c-1.208,0.582-1.715,2.033-1.133,3.243l1.975,4.09
	c-2.805,2.472-4.18,5.425-0.355,8.175c1.467,1.075,3.248,1.638,5.067,1.601l1.187,2.484c0.583,1.209,2.035,1.717,3.245,1.135
	c0.001-0.001,0.002-0.001,0.003-0.003l1.737-0.843l3.368-1.623c1.209-0.582,1.716-2.035,1.134-3.245
	c-0.002-0.001-0.002-0.002-0.003-0.003l-0.982-2.047c2.202-1.711,4.221-3.647,6.021-5.779c0,0,5.063-3.171,8.045-3.884
	c1.975-0.468,8.893-5.015,13.185-7.896l1.222,32.013c-0.27,0.417-0.583,0.802-0.937,1.15l0.954-0.677v0.238
	c-0.128,0.154-0.264,0.3-0.409,0.438l0.416-0.296v0.385c-0.136,0.162-0.28,0.316-0.433,0.462l0.438-0.308l0.178,3.361l2.086-3.462
	l0.132,3.462l0.485-0.807c-5.857,9.953-13.486,24.608-17.566,39.353c0,0-6.378,11.093-5.548,22.463l-11.649,56.318l0.225,0.082
	c-3.794,2.74-11.791,7.761-19.635,7.963c0,0-18.857-0.557-13.587,3.604c5.271,4.162,52.14,10.262,52.14,10.262l1.778-14.021
	l0.415,0.155c0,0,0-0.077,0-0.219l0.594,0.219c0,0-1.133-6.972,3.017-10.854c4.15-3.884,13.866-43.277,13.042-49.365
	c0,0,7.446-18.609,16.766-33.448l10.956,28.172l12.2,21.074c0,0,16.231,36.093,15.71,44.132
	c-3.408,4.149-9.485,10.672-14.043,10.498c0,0-18.58,3.604-5.822,6.938c12.757,3.331,50.194-9.13,50.194-9.13L1684.688,964.354z
	 M1603.47,835.317l0.112-0.065c-0.593,0.896-1.186,1.885-1.861,2.964L1603.47,835.317z"/>
<linearGradient id="SVGID_6_" gradientUnits="userSpaceOnUse" x1="1123.1836" y1="366.4243" x2="1123.8887" y2="366.4243" gradientTransform="matrix(1 0 0 -1 471.5 1206.25)">
	<stop  offset="0" style="stop-color:#808080;stop-opacity:0.25"/>
	<stop  offset="0.54" style="stop-color:#808080;stop-opacity:0.12"/>
	<stop  offset="1" style="stop-color:#808080;stop-opacity:0.1"/>
</linearGradient>
<path fill="url(#SVGID_6_)" d="M1595.389,839.568c-0.456,0.331-0.705,0.515-0.705,0.515
	C1594.942,839.946,1595.18,839.772,1595.389,839.568z"/>
<linearGradient id="SVGID_7_" gradientUnits="userSpaceOnUse" x1="1123.7354" y1="365.8677" x2="1124.446" y2="365.8677" gradientTransform="matrix(1 0 0 -1 471.5 1206.25)">
	<stop  offset="0" style="stop-color:#808080;stop-opacity:0.25"/>
	<stop  offset="0.54" style="stop-color:#808080;stop-opacity:0.12"/>
	<stop  offset="1" style="stop-color:#808080;stop-opacity:0.1"/>
</linearGradient>
<path fill="url(#SVGID_7_)" d="M1595.94,840.125c-0.456,0.332-0.705,0.515-0.705,0.515
	C1595.494,840.504,1595.73,840.331,1595.94,840.125z"/>
<linearGradient id="SVGID_8_" gradientUnits="userSpaceOnUse" x1="1123.7354" y1="366.4243" x2="1124.446" y2="366.4243" gradientTransform="matrix(1 0 0 -1 471.5 1206.25)">
	<stop  offset="0" style="stop-color:#808080;stop-opacity:0.25"/>
	<stop  offset="0.54" style="stop-color:#808080;stop-opacity:0.12"/>
	<stop  offset="1" style="stop-color:#808080;stop-opacity:0.1"/>
</linearGradient>
<path fill="url(#SVGID_8_)" d="M1595.94,839.568c-0.456,0.331-0.705,0.515-0.705,0.515
	C1595.494,839.946,1595.73,839.772,1595.94,839.568z"/>
<path fill="#333333" d="M1616.029,965.021c0,0-8.326,11.794-13.878,11.56c0,0-15.495,3.008-4.857,5.78
	c10.638,2.774,41.856-7.63,41.856-7.63l-3.712-12.094L1616.029,965.021z"/>
<path fill="#535461" d="M1615.871,865.688l13.789,35.423l11.929,20.576c0,0,16.356,36.364,15.276,43.396l26.086-4.191
	c0,0-20.281-55.726-25.955-63.268c0,0-5.928-3.515-5.679-9.485l-7.299-35.421c0,0,7.114-6.854,3.131-15.414
	c-0.202-0.438-0.435-0.882-0.7-1.328c-5.454-9.195-25.979-4.078-25.979-4.078L1615.871,865.688z"/>
<path opacity="0.03" enable-background="new    " d="M1615.871,865.688l13.789,35.423l11.929,20.576
	c0,0,16.356,36.364,15.276,43.396l26.086-4.191c0,0-20.281-55.726-25.955-63.268c0,0-5.928-3.515-5.679-9.485l-7.299-35.421
	c0,0,7.114-6.854,3.131-15.414c-0.202-0.438-0.435-0.882-0.7-1.328c-5.454-9.195-25.979-4.078-25.979-4.078L1615.871,865.688z"/>
<g opacity="0.1">
	<path d="M1656.973,897.623c0,0-5.929-3.515-5.68-9.485l-7.297-35.421c0,0,7.113-6.854,3.129-15.414
		c-0.2-0.438-0.435-0.882-0.699-1.328c-2.621-4.457-8.81-5.549-14.482-5.484c5.442,0.048,11.169,1.239,13.67,5.484
		c0.266,0.446,0.498,0.89,0.699,1.328c3.967,8.584-3.13,15.414-3.13,15.414l7.299,35.439c-0.273,5.929,5.679,9.486,5.679,9.486
		c5.68,7.57,25.955,63.266,25.955,63.266l-25.268,4.061c0,0.043,0,0.089,0,0.132l26.085-4.192
		C1682.933,960.908,1662.651,905.193,1656.973,897.623z"/>
</g>
<path fill="#333333" d="M1537.869,959.936c0,0-9.249,7.865-18.253,8.112c0,0-15.719-0.462-11.333,3.008
	c4.386,3.468,43.474,8.558,43.474,8.558l1.739-13.532L1537.869,959.936z"/>
<g opacity="0.1">
	<path d="M1607.762,829.755c0,0-17.846,25.148-24.899,50.564c0,0-6.22,10.813-5.406,21.898l-11.335,54.89l20.82,7.845
		c0,0-1.079-6.759,2.964-10.546c4.043-3.789,13.517-42.181,12.71-48.127c0,0,12.979-32.445,25.955-45.156
		s19.438-15.64,21.341-26.612C1649.924,834.511,1619.387,819.748,1607.762,829.755z"/>
</g>
<path fill="#535461" d="M1607.203,829.755c0,0-17.844,25.148-24.898,50.564c0,0-6.219,10.813-5.407,21.898l-11.358,54.89
	l20.82,7.845c0,0-1.078-6.759,2.965-10.546c4.043-3.789,13.517-42.181,12.71-48.127c0,0,12.977-32.445,25.954-45.156
	c12.979-12.711,19.439-15.64,21.342-26.612C1649.384,834.511,1618.848,819.748,1607.203,829.755z"/>
<g opacity="0.1">
	<path d="M1618.746,826.009c13.404,0.16,30.099,8.229,30.099,8.229c-1.909,10.973-8.364,13.902-21.343,26.611
		c-12.978,12.711-25.96,45.15-25.96,45.15c0.813,5.929-8.65,44.344-12.71,48.126c-3.557,3.297-3.165,8.841-3.018,10.228l0.854,0.318
		c0,0-1.079-6.757,2.964-10.546c4.044-3.788,13.535-42.197,12.724-48.126c0,0,12.977-32.445,25.953-45.155
		c12.978-12.711,19.439-15.64,21.343-26.612C1649.657,834.268,1632.275,825.844,1618.746,826.009z"/>
</g>
<path fill="#FDA57D" d="M1593.973,790.552c0,0-12.906,16.071-21.616,19.563c-0.957,0.385-1.885,0.84-2.773,1.363
	c-1.216,0.771-2.569,1.301-3.983,1.56c-1.043,0.102-2.062,0.37-3.018,0.795c-4.53,2.086-14.977,7.706-8.081,12.687
	c8.649,6.218,20.281-8.11,20.281-8.11s4.938-3.095,7.843-3.788c2.904-0.693,16.214-9.996,16.214-9.996L1593.973,790.552z"/>
<polygon fill="#4D8AF0" points="1596.403,787.303 1591.269,791.903 1598.839,801.365 "/>
<g opacity="0.1">
	<polygon points="1596.403,787.303 1591.269,791.903 1598.839,801.365 	"/>
</g>
<path fill="#6788B7" d="M1609.421,733.485c0,0-12.307,10.547-7.154,13.517l-8.302,20.548l2.864,75.165l11.733-19.468l-8.016-42.181
	c0,0-2.288-25.148,4.292-31.094l6.296-12.45L1609.421,733.485z"/>
<g opacity="0.1">
	<path d="M1611.584,733.485c0,0-12.306,10.547-7.154,13.517l-8.3,20.548l2.864,75.165l11.731-19.468l-8.016-42.181
		c0,0-2.289-25.148,4.292-31.094l6.297-12.45L1611.584,733.485z"/>
</g>
<path fill="#FDA57D" d="M1599.918,722.412c0,0,10.008,12.164,9.734,19.195c-0.272,7.031,18.93-12.164,18.93-12.164
	s-7.298-8.924-5.407-18.379C1625.065,701.608,1599.918,722.412,1599.918,722.412z"/>
<path fill="#FDA57D" d="M1656.973,783.521l2.703,21.633v21.341c0,0-3.788,27.579,8.109,22.444
	c11.898-5.133,3.243-24.063,3.243-24.063s0-10.546,1.624-15.953c1.625-5.407-0.83-29.198-0.83-29.198L1656.973,783.521z"/>
<path fill="#F2F2F2" d="M1619.927,732.419c0,0-7.298,7.031-11.087,4.595l-5.193,12.904c-3.173,7.89-4.613,16.37-4.221,24.864
	l1.85,48.755l8.11-1.079l2.703-46.241l4.055-28.118L1619.927,732.419z"/>
<g opacity="0.1">
	<path d="M1626.015,724.984c0,0-9.604,6.621-12.289,12.301c0,0-0.273,6.219-2.431,8.922c-2.158,2.704-4.328,16.228-4.867,32.446
		c-0.54,16.22-2.965,37.853-2.965,37.853s-4.055,21.088-8.382,23.252c0,0,20.008-15.142,29.741-10.008
		c9.735,5.134,20.821,17.578,24.063,15.68c0,0-0.782-23.713,2.77-36.334c0.067-0.241,0.136-0.477,0.206-0.706
		c3.789-12.449,1.353-29.47,5.681-36.755c0,0,0-13.215-2.496-23.085c-1.306-5.102-4.8-9.366-9.545-11.649l-12.022-5.822
		C1633.479,731.078,1627.094,730.118,1626.015,724.984z"/>
</g>
<g opacity="0.1">
	<path d="M1626.015,724.984c0,0-9.058,7.167-11.762,12.841c0,0-0.272,6.22-2.431,8.922c-2.158,2.704-4.328,16.227-4.868,32.446
		c-0.538,16.22-2.964,37.853-2.964,37.853s-4.055,21.087-8.383,23.251c0,0,20.009-15.141,29.742-10.007
		c9.735,5.133,20.821,17.578,24.064,15.68c0,0-0.782-23.713,2.769-36.334c0.067-0.241,0.136-0.477,0.206-0.706
		c3.789-12.45,1.353-29.47,5.68-36.756c0,0,0-13.215-2.495-23.085c-1.306-5.102-4.8-9.365-9.544-11.648l-12.023-5.822
		C1634.006,731.618,1627.094,730.118,1626.015,724.984z"/>
</g>
<path fill="#6788B7" d="M1625.879,724.849c0,0-8.922,6.757-11.626,12.449c0,0-0.272,6.219-2.431,8.922
	c-2.158,2.702-4.328,16.227-4.868,32.445c-0.538,16.221-2.964,37.853-2.964,37.853s-4.055,21.088-8.382,23.251
	c0,0,20.008-15.14,29.743-10.007c9.733,5.134,20.803,17.548,24.051,15.675c0,0-0.782-23.714,2.768-36.335
	c0.067-0.241,0.137-0.477,0.208-0.705c3.788-12.45,1.352-29.47,5.679-36.757c0,0,0-13.213-2.495-23.085
	c-1.306-5.102-4.8-9.365-9.545-11.648l-12.023-5.821C1633.993,731.085,1627.905,729.579,1625.879,724.849z"/>
<g opacity="0.1">
	<path d="M1650.617,740.665c0,0,27.442,31.23,23.66,46.099c0,0-14.063-3.242-17.844,1.079c0,0-2.964-10.008-11.898-15.681
		C1635.602,766.488,1627.361,730.118,1650.617,740.665z"/>
</g>
<path fill="#5273A3" d="M1650.617,740.126c0,0,27.442,31.23,23.66,46.098c0,0-14.063-3.242-17.844,1.079
	c0,0-2.964-10.007-11.898-15.681C1635.602,765.949,1627.361,729.579,1650.617,740.126z"/>
<g opacity="0.1">
	<path d="M1623.851,717.142c-0.427-2.183-0.07-2.372,0.403-4.743c1.891-9.485-23.25,11.358-23.25,11.358s1.398,1.701,3.135,4.204
		c1.281,0.264,2.588,0.397,3.896,0.397C1614.91,728.363,1620.454,722.561,1623.851,717.142z"/>
</g>
<circle fill="#FDA57D" cx="1606.949" cy="707.811" r="19.196"/>
<g opacity="0.1">
	<path d="M1589.704,702.559c-2.828,0.379-6.433-0.594-6.979-3.362c-0.688-3.558,4.044-5.84,4.778-9.374
		c0.272-1.326-0.054-2.708,0.107-4.049c0.319-2.708,2.507-4.79,4.742-6.366c7.054-4.946,15.632-7.232,24.212-6.45
		c1.07,0.014,2.114,0.344,2.999,0.948c0.931,0.766,1.293,2.01,1.926,3.035c2.194,3.558,7.115,3.955,10.637,6.16
		c4.149,2.579,6.171,7.643,6.355,12.503c0.184,4.86-1.187,9.633-2.578,14.306c-1.187,3.971-2.372,8.05-4.957,11.299
		s-6.813,5.524-10.838,4.547c1.844-1.328,0.505-4.411-1.494-5.495c-1.996-1.086-4.476-1.269-6.183-2.763s-2.217-3.937-2.774-6.159
		c-0.7-2.805-1.72-5.651-3.765-7.708C1601.869,699.628,1594.63,701.894,1589.704,702.559z"/>
</g>
<path fill="#231F20" d="M1590.243,702.291c-2.828,0.379-6.433-0.594-6.978-3.361c-0.688-3.558,4.043-5.84,4.778-9.373
	c0.272-1.328-0.054-2.71,0.106-4.049c0.32-2.71,2.507-4.79,4.741-6.368c7.055-4.946,15.634-7.232,24.212-6.449
	c1.072,0.014,2.116,0.343,3,0.948c0.932,0.765,1.293,2.01,1.928,3.035c2.193,3.558,7.113,3.955,10.636,6.159
	c4.149,2.58,6.171,7.643,6.354,12.503c0.186,4.862-1.185,9.634-2.578,14.306c-1.185,3.972-2.371,8.05-4.956,11.3
	c-2.585,3.248-6.813,5.525-10.837,4.547c1.844-1.328,0.505-4.411-1.493-5.495c-1.999-1.086-4.477-1.27-6.184-2.763
	c-1.708-1.493-2.211-3.938-2.805-6.16c-0.699-2.805-1.719-5.649-3.764-7.706C1602.413,699.356,1595.17,701.626,1590.243,702.291z"/>
<path fill="#D1D3D4" d="M1618.539,682.81l1.736-8.893c0.072-0.356-0.158-0.703-0.515-0.774c-0.002-0.001-0.005-0.002-0.007-0.002
	l-6.136-1.186c-0.356-0.071-0.703,0.158-0.774,0.515c-0.001,0.002-0.002,0.004-0.002,0.007l-1.737,8.892l-5.928,21.983l10.878,2.123
	L1618.539,682.81z"/>
<g opacity="0.1">
	<circle cx="1609.517" cy="708.219" r="9.462"/>
</g>
<circle fill="#6A1B9A" cx="1609.517" cy="708.486" r="9.461"/>
<circle fill="#E9E9E9" cx="1609.517" cy="708.485" r="6.201"/>
<circle fill="#9C4DCC" cx="1609.517" cy="708.486" r="1.891"/>
<rect x="1611.169" y="681.275" transform="matrix(-0.9815 -0.1916 0.1916 -0.9815 3069.3821 1659.6971)" opacity="0.05" enable-background="new    " width="7.572" height="0.273"/>
<path fill="#CBDAE3" d="M1556.021,810.449l0.006-0.002c2.285-1.103,5.031-0.143,6.134,2.144l5.757,11.939
	c1.103,2.286,0.143,5.032-2.143,6.134l-0.006,0.002c-2.286,1.104-5.032,0.144-6.134-2.143l-5.757-11.94
	C1552.775,814.298,1553.734,811.552,1556.021,810.449z"/>
<g opacity="0.1">
	<path d="M1556.021,810.449l0.006-0.002c2.285-1.103,5.031-0.143,6.134,2.144l5.757,11.939c1.103,2.286,0.143,5.032-2.143,6.134
		l-0.006,0.002c-2.286,1.104-5.032,0.144-6.134-2.143l-5.757-11.94C1552.775,814.298,1553.734,811.552,1556.021,810.449z"/>
</g>
<path fill="#CBDAE3" d="M1556.877,810.037L1556.877,810.037c2.353-1.135,5.181-0.146,6.315,2.207l5.639,11.694
	c1.135,2.354,0.146,5.181-2.207,6.315l0,0c-2.354,1.135-5.182,0.147-6.317-2.206l-5.637-11.695
	C1553.535,814,1554.522,811.171,1556.877,810.037z"/>
<rect x="1557.697" y="810.655" transform="matrix(-0.9008 0.4342 -0.4342 -0.9008 3323.374 879.2584)" fill="#F2F2F2" width="7.15" height="17.033"/>
<ellipse transform="matrix(-0.434 -0.9009 0.9009 -0.434 1499.0342 2598.8081)" fill="#F2F2F2" cx="1565.918" cy="828.491" rx="1.079" ry="0.812"/>
</svg>
