<?xml version="1.0" encoding="utf-8"?>
<!-- Generator: Adobe Illustrator 16.0.0, SVG Export Plug-In . SVG Version: 6.00 Build 0)  -->
<!DOCTYPE svg PUBLIC "-//W3C//DTD SVG 1.1//EN" "http://www.w3.org/Graphics/SVG/1.1/DTD/svg11.dtd">
<svg version="1.1" id="Layer_1" xmlns="http://www.w3.org/2000/svg" xmlns:xlink="http://www.w3.org/1999/xlink" x="0px" y="0px"
	 width="250px" height="150px" viewBox="0 0 250 150" enable-background="new 0 0 250 150" xml:space="preserve">
<g>
	<g>
		<path fill="none" stroke="#7F3F98" stroke-width="2.8667" stroke-miterlimit="10" d="M157.532,32.027v5.618
			c0,5.379,0,10.884,0,10.884v70.064c0,0-1.526,6.269-9.08,6.269c-7.538,0-43.208,0-43.208,0H84.286c0,0-35.669,0-43.208,0
			c-7.567,0-9.096-6.269-9.096-6.269V48.529c0,0,0-10.333,0-16.502c0-6.184,5.269-6.89,5.269-6.89h115.03
			C152.28,25.138,157.532,25.844,157.532,32.027z"/>
		<polyline fill="none" stroke="#7F3F98" stroke-width="2.8667" stroke-miterlimit="10" points="32.439,37.647 77.077,37.647 
			133.048,37.647 157.537,37.647 		"/>
		<polyline fill="none" stroke="#7F3F98" stroke-width="2.8667" stroke-miterlimit="10" points="32.212,112.057 76.849,112.057 
			132.818,112.057 157.312,112.057 		"/>
	</g>
	<g>
		<path fill="#7F3F98" d="M77.019,97.629c-3.226,1.592-5.843-0.049-5.817-3.646l0.092-12.444c0.026-3.597,0.069-9.483,0.096-13.08
			l0.091-12.442c0.026-3.597,2.667-5.199,5.869-3.56l13.646,6.986c3.202,1.639,8.441,4.322,11.643,5.961l13.647,6.988
			c3.202,1.639,3.182,4.283-0.043,5.875l-13.746,6.786c-3.225,1.592-8.503,4.197-11.729,5.789L77.019,97.629z"/>
		<path fill="none" stroke="#7F3F98" stroke-width="1.4992" stroke-miterlimit="10" d="M77.019,97.629
			c-3.226,1.592-5.843-0.049-5.817-3.646l0.092-12.444c0.026-3.597,0.069-9.483,0.096-13.08l0.091-12.442
			c0.026-3.597,2.667-5.199,5.869-3.56l13.646,6.986c3.202,1.639,8.441,4.322,11.643,5.961l13.647,6.988
			c3.202,1.639,3.182,4.283-0.043,5.875l-13.746,6.786c-3.225,1.592-8.503,4.197-11.729,5.789L77.019,97.629z"/>
	</g>
	<g>
		<g>
			<path fill="none" stroke="#7F3F98" stroke-width="2.4651" stroke-miterlimit="10" d="M57.815,33.065
				c0,0.855-0.7,1.555-1.555,1.555h-6.344c-0.855,0-1.555-0.7-1.555-1.555V29.64c0-0.855,0.7-1.555,1.555-1.555h6.344
				c0.855,0,1.555,0.7,1.555,1.555V33.065z"/>
		</g>
		<g>
			<path fill="none" stroke="#7F3F98" stroke-width="2.4651" stroke-miterlimit="10" d="M74.244,33.065
				c0,0.855-0.7,1.555-1.555,1.555h-6.345c-0.855,0-1.555-0.7-1.555-1.555V29.64c0-0.855,0.7-1.555,1.555-1.555h6.345
				c0.855,0,1.555,0.7,1.555,1.555V33.065z"/>
		</g>
		<g>
			<path fill="none" stroke="#7F3F98" stroke-width="2.4651" stroke-miterlimit="10" d="M91.706,33.065
				c0,0.855-0.7,1.555-1.555,1.555h-6.343c-0.855,0-1.555-0.7-1.555-1.555V29.64c0-0.855,0.7-1.555,1.555-1.555h6.343
				c0.855,0,1.555,0.7,1.555,1.555V33.065z"/>
		</g>
		<g>
			<path fill="none" stroke="#7F3F98" stroke-width="2.4651" stroke-miterlimit="10" d="M108.135,33.065
				c0,0.855-0.7,1.555-1.555,1.555h-6.345c-0.855,0-1.555-0.7-1.555-1.555V29.64c0-0.855,0.7-1.555,1.555-1.555h6.345
				c0.855,0,1.555,0.7,1.555,1.555V33.065z"/>
		</g>
		<g>
			<path fill="none" stroke="#7F3F98" stroke-width="2.4651" stroke-miterlimit="10" d="M125.185,33.065
				c0,0.855-0.7,1.555-1.555,1.555h-6.346c-0.855,0-1.555-0.7-1.555-1.555V29.64c0-0.855,0.7-1.555,1.555-1.555h6.346
				c0.855,0,1.555,0.7,1.555,1.555V33.065z"/>
		</g>
		<g>
			<path fill="none" stroke="#7F3F98" stroke-width="2.4651" stroke-miterlimit="10" d="M141.614,33.065
				c0,0.855-0.699,1.555-1.555,1.555h-6.345c-0.855,0-1.555-0.7-1.555-1.555V29.64c0-0.855,0.699-1.555,1.555-1.555h6.345
				c0.855,0,1.555,0.7,1.555,1.555V33.065z"/>
		</g>
	</g>
	<g>
		<g>
			<path fill="none" stroke="#7F3F98" stroke-width="2.4505" stroke-miterlimit="10" d="M58.023,120.069
				c0,0.851-0.695,1.546-1.545,1.546h-6.25c-0.85,0-1.545-0.695-1.545-1.546v-3.442c0-0.851,0.695-1.546,1.545-1.546h6.25
				c0.85,0,1.545,0.695,1.545,1.546V120.069z"/>
		</g>
		<g>
			<path fill="none" stroke="#7F3F98" stroke-width="2.4505" stroke-miterlimit="10" d="M74.258,120.069
				c0,0.851-0.695,1.546-1.545,1.546h-6.25c-0.85,0-1.545-0.695-1.545-1.546v-3.442c0-0.851,0.695-1.546,1.545-1.546h6.25
				c0.85,0,1.545,0.695,1.545,1.546V120.069z"/>
		</g>
		<g>
			<path fill="none" stroke="#7F3F98" stroke-width="2.4505" stroke-miterlimit="10" d="M91.515,120.069
				c0,0.851-0.695,1.546-1.545,1.546h-6.252c-0.85,0-1.545-0.695-1.545-1.546v-3.442c0-0.851,0.695-1.546,1.545-1.546h6.252
				c0.85,0,1.545,0.695,1.545,1.546V120.069z"/>
		</g>
		<g>
			<path fill="none" stroke="#7F3F98" stroke-width="2.4505" stroke-miterlimit="10" d="M107.749,120.069
				c0,0.851-0.695,1.546-1.545,1.546h-6.252c-0.85,0-1.545-0.695-1.545-1.546v-3.442c0-0.851,0.695-1.546,1.545-1.546h6.252
				c0.85,0,1.545,0.695,1.545,1.546V120.069z"/>
		</g>
		<g>
			<path fill="none" stroke="#7F3F98" stroke-width="2.4505" stroke-miterlimit="10" d="M124.597,120.069
				c0,0.851-0.695,1.546-1.545,1.546h-6.252c-0.85,0-1.545-0.695-1.545-1.546v-3.442c0-0.851,0.695-1.546,1.545-1.546h6.252
				c0.85,0,1.545,0.695,1.545,1.546V120.069z"/>
		</g>
		<g>
			<path fill="none" stroke="#7F3F98" stroke-width="2.4505" stroke-miterlimit="10" d="M140.831,120.069
				c0,0.851-0.695,1.546-1.546,1.546h-6.25c-0.851,0-1.546-0.695-1.546-1.546v-3.442c0-0.851,0.695-1.546,1.546-1.546h6.25
				c0.851,0,1.546,0.695,1.546,1.546V120.069z"/>
		</g>
	</g>
	<path fill="none" stroke="#7F3F98" stroke-width="1.2113" stroke-miterlimit="10" d="M34.298,43.708"/>
	<g>
		<path fill="#7F3F98" d="M181.379,93.149c0.681-4.659,1.685-8.28,3.015-10.862c1.329-2.58,3.721-5.325,7.17-8.233l8.744-6.953
			c3.781-3.301,5.944-7.089,6.494-11.364c0.529-4.117-0.138-7.481-1.999-10.093c-1.86-2.611-4.855-4.182-8.982-4.713
			c-4.009-0.515-7.367,0.132-10.077,1.941c-2.71,1.809-4.294,4.502-4.754,8.078l-10.906-1.401c0.898-6.357,3.828-11.203,8.79-14.542
			c4.964-3.336,11.022-4.546,18.175-3.627c7.429,0.955,12.959,3.69,16.596,8.206c3.634,4.517,5.004,10.247,4.11,17.192
			c-0.882,6.867-4.936,13.227-12.159,19.079l-7.243,5.529c-3.277,2.813-5.3,7.199-6.066,13.165L181.379,93.149z M178.501,111.817
			c0.229-1.787,0.962-3.214,2.199-4.286c1.236-1.069,2.915-1.472,5.037-1.198c2.123,0.272,3.657,1.086,4.602,2.436
			c0.944,1.354,1.303,2.922,1.072,4.707c-0.229,1.783-0.969,3.192-2.22,4.222c-1.25,1.026-2.938,1.407-5.061,1.135
			c-2.122-0.273-3.647-1.065-4.578-2.374C178.622,115.148,178.272,113.601,178.501,111.817z"/>
	</g>
</g>
</svg>
