<?xml version="1.0" encoding="utf-8"?>
<!-- Svg Vector Icons : http://www.onlinewebfonts.com/icon -->
<!DOCTYPE svg PUBLIC "-//W3C//DTD SVG 1.1//EN" "http://www.w3.org/Graphics/SVG/1.1/DTD/svg11.dtd">
<svg version="1.1" xmlns="http://www.w3.org/2000/svg" xmlns:xlink="http://www.w3.org/1999/xlink" x="0px" y="0px" viewBox="0 0 1000 1000" enable-background="new 0 0 1000 1000" xml:space="preserve">
<metadata> Svg Vector Icons : http://www.onlinewebfonts.com/icon </metadata>
<g><g transform="translate(0.000000,250.000000) scale(0.100000,-0.100000)"><path d="M4565.3,2336.9c-54.6-7.8-229.9-35.1-389.7-58.5c-939.2-136.4-1940.8-650.8-2650.1-1364c-1859-1858.9-1905.7-4820.8-105.2-6722.6c744.4-787.2,1683.6-1293.9,2743.6-1477c717.1-124.7,1710.9-54.5,2389,175.4c2572.1,861.3,3947.8,3601,3094.3,6149.7C9008,957.3,7203.7,2282.3,5149.9,2340.8C4880.9,2348.6,4619.8,2348.6,4565.3,2336.9z M5753.9,1651C6599.6,1510.7,7558.3,988.5,8135.1,361C9117.1-714.6,9487.4-2172.1,9125-3582.9c-101.3-393.6-440.4-1091.2-693.7-1422.5C7819.4-5808.1,7028.3-6334.2,6015-6611c-253.3-70.1-413.1-81.8-1001.6-81.8c-639.1-3.9-736.6,7.8-1083.4,101.3c-432.6,116.9-993.8,370.2-1356.2,611.9c-323.5,218.3-908,806.7-1118.5,1130.2c-448.2,682-662.5,1336.7-697.6,2127.9c-27.3,604,23.4,1024.9,183.2,1504.3C1615.1,813.1,3626,2009.5,5753.9,1651z"/><path d="M2468.6,205.2c-85.7-89.6-85.7-113-85.7-1227.6v-1138h-226c-350.7,0-378-42.9-378-662.5c0-619.6,27.3-662.5,378-662.5h226v-643c0-802.8-3.9-798.9,479.3-798.9c475.5,0,471.6-3.9,487.1,802.8l11.7,639.1h226c339.1,0,354.6,31.2,354.6,654.7s-27.3,670.3-366.3,670.3H3361l-11.7,1153.6l-11.7,1153.6l-93.5,74c-70.2,58.5-152,74-389.7,74C2589.4,294.8,2542.6,283.1,2468.6,205.2z M3396.1-2589.1c93.5-93.5,101.3-300.1,11.7-397.5c-54.6-62.3-128.6-70.1-565.1-70.1c-448.2,0-506.6,7.8-576.8,77.9c-105.2,105.2-97.4,257.2,19.5,370.2c89.6,93.6,116.9,97.4,565.1,97.4C3267.5-2511.2,3326-2519,3396.1-2589.1z"/><path d="M4573.1,216.8c-74.1-70.1-85.7-120.8-85.7-389.7v-311.8h-222.1c-124.7,0-245.5-15.6-268.9-31.2c-101.3-66.3-132.5-218.2-132.5-643c0-389.7,11.7-456,81.8-549.5c70.1-89.6,109.1-101.3,311.8-101.3h229.9v-1496.5v-1500.4l85.7-58.5c132.5-93.5,697.6-85.8,783.3,7.8c58.5,66.3,66.3,229.9,66.3,1558.9v1488.7h226c187.1,0,241.6,15.6,311.8,89.6c77.9,81.8,85.7,132.5,85.7,584.6c0,608-23.4,650.8-389.7,650.8h-233.8v311.8c0,424.8-42.9,467.7-459.9,467.7C4709.5,294.8,4643.2,283.1,4573.1,216.8z M5535.7-897.7c46.8-58.5,81.9-132.5,81.9-171.5s-35.1-113-81.9-171.5c-77.9-101.3-85.7-101.3-569-101.3c-569,0-635.2,27.3-635.2,276.7c0,233.8,85.7,268.9,646.9,268.9C5446-796.4,5457.7-796.4,5535.7-897.7z"/><path d="M6650.3,197.4l-97.4-93.5v-1465.3v-1461.4h-206.5c-120.8,0-237.7-23.4-292.3-62.3c-81.9-54.6-85.7-85.8-85.7-584.6c0-635.2,23.4-678.1,370.2-678.1h214.3v-288.4c0-229.9,15.6-304,81.8-389.7c74.1-93.5,101.3-101.3,409.2-101.3c444.3,0,483.3,39,483.3,467.7v311.8h226c350.7,0,378,42.9,378,662.5c0,619.7-27.3,662.5-378,662.5h-226v1461.4V103.8l-97.4,93.5c-81.9,85.7-128.6,97.4-389.7,97.4C6778.9,294.8,6732.1,283.1,6650.3,197.4z M7612.9-3239.9c85.7-77.9,89.6-272.8,3.9-370.2c-54.6-62.3-128.6-70.1-580.7-70.1c-491,0-522.2,3.9-576.8,85.7c-35.1,46.8-62.3,124.7-62.3,167.6c0,42.9,27.3,120.8,62.3,167.6c54.6,81.9,85.7,85.7,569,85.7C7449.2-3173.7,7554.4-3185.4,7612.9-3239.9z"/></g></g>
</svg>