<?xml version="1.0" encoding="utf-8"?>
<!-- Generator: Adobe Illustrator 16.0.0, SVG Export Plug-In . SVG Version: 6.00 Build 0)  -->
<!DOCTYPE svg PUBLIC "-//W3C//DTD SVG 1.1//EN" "http://www.w3.org/Graphics/SVG/1.1/DTD/svg11.dtd">
<svg version="1.1" id="Layer_1" xmlns="http://www.w3.org/2000/svg" xmlns:xlink="http://www.w3.org/1999/xlink" x="0px" y="0px"
	 width="150px" height="150px" viewBox="0 0 150 150" enable-background="new 0 0 150 150" xml:space="preserve">
<image overflow="visible" width="225" height="225" xlink:href="../Downloads/download.png"  transform="matrix(0.2578 0 0 0.2578 -95.5625 -157.8359)">
</image>
<rect x="331.969" y="-145.853" fill="none" width="126.736" height="26.988"/>
<text transform="matrix(1 0 0 1 331.9678 -122.1089)" font-family="'Montserrat-Thin'" font-size="32">huffler</text>
<g>
	<g>
		<path fill="none" stroke="#702AFF" stroke-miterlimit="10" d="M302.807-136.591l-1.47,2.7c-0.041-0.091-0.09-0.17-0.14-0.25
			c-0.5-0.82-1.301-1.58-2.111-2.07c-1.469-0.88-3.33-1.13-5-1.319h-0.039v0.02h-4.42v-2.811h4.42
			c1.779,0.101,3.529,0.391,5.16,1.101C300.547-138.631,301.807-137.721,302.807-136.591z"/>
		<path fill="none" stroke="#702AFF" stroke-miterlimit="10" d="M324.407-123.151l4.869,2.811l-4.869,2.82l-4.881,2.82v-4.42h-4.72
			v0.01h-0.091c-1.979-0.01-3.959-0.18-5.779-1.041c-1.77-0.83-3.279-2.039-4.35-3.609c0,0.03-0.01,0.05-0.021,0.08
			c-0.83,2.51-2.979,4.561-5.359,5.609c-1.631,0.701-3.381,1-5.16,1.102v0.029h-4.42v-2.811h4.42v-0.01h0.039
			c1.67-0.189,3.531-0.439,5-1.32c0.811-0.49,1.611-1.25,2.111-2.07c1.009-1.649,1.269-3.589,1.619-5.489
			c0.181-0.95,0.37-1.9,0.7-2.79c0.279-0.75,0.641-1.46,1.07-2.1c1.07-1.57,2.58-2.78,4.35-3.61c1.82-0.86,3.8-1.03,5.779-1.04
			h0.091v0.01h4.72v-4.42l4.881,2.82l4.869,2.82l-4.869,2.81l-4.881,2.819v-4.14h-4.79c-0.17,0-0.319,0.011-0.489,0.011
			c-1.791,0.039-3.701,0.399-5.24,1.34c-2.15,1.32-2.891,3.32-3.36,5.46c0.47,2.149,1.21,4.149,3.36,5.47
			c1.539,0.939,3.449,1.3,5.24,1.34c0.17,0,0.319,0.01,0.489,0.01h4.79v-4.14L324.407-123.151z"/>
	</g>
</g>
<g>
	<g>
		<path fill="#702AFF" d="M296.217-144.017l-1.471,2.701c-0.04-0.091-0.09-0.17-0.14-0.25c-0.5-0.82-1.3-1.58-2.11-2.07
			c-1.47-0.881-3.33-1.131-5-1.32h-0.04v0.02h-4.42v-2.81h4.42c1.78,0.101,3.53,0.39,5.16,1.101
			C293.956-146.056,295.217-145.146,296.217-144.017z"/>
		<path fill="#702AFF" d="M317.816-130.576l4.87,2.811l-4.87,2.819l-4.88,2.82v-4.42h-4.721v0.01h-0.09
			c-1.98-0.01-3.96-0.18-5.779-1.04c-1.771-0.83-3.28-2.04-4.351-3.61c0,0.03-0.01,0.051-0.02,0.08
			c-0.83,2.511-2.98,4.561-5.36,5.61c-1.63,0.7-3.38,1-5.16,1.101v0.029h-4.42v-2.81h4.42v-0.01h0.04c1.67-0.19,3.53-0.44,5-1.32
			c0.811-0.49,1.61-1.25,2.11-2.07c1.01-1.649,1.27-3.59,1.62-5.489c0.18-0.951,0.369-1.9,0.699-2.791
			c0.28-0.75,0.641-1.459,1.07-2.1c1.07-1.57,2.58-2.779,4.351-3.609c1.819-0.861,3.799-1.031,5.779-1.041h0.09v0.01h4.721v-4.42
			l4.88,2.82l4.87,2.82l-4.87,2.811l-4.88,2.819v-4.14h-4.791c-0.17,0-0.319,0.01-0.489,0.01c-1.79,0.04-3.7,0.4-5.24,1.34
			c-2.15,1.32-2.89,3.32-3.359,5.46c0.47,2.149,1.209,4.149,3.359,5.471c1.54,0.939,3.45,1.299,5.24,1.34
			c0.17,0,0.319,0.01,0.489,0.01h4.791v-4.14L317.816-130.576z"/>
	</g>
</g>
<g>
	<g>
		<linearGradient id="SVGID_1_" gradientUnits="userSpaceOnUse" x1="62.4746" y1="-85.4209" x2="82.2373" y2="-85.4209">
			<stop  offset="0" style="stop-color:#3E198A"/>
			<stop  offset="0.0833" style="stop-color:#441B99"/>
			<stop  offset="0.2439" style="stop-color:#5521C1"/>
			<stop  offset="0.46" style="stop-color:#702AFF"/>
			<stop  offset="0.5752" style="stop-color:#972AFF"/>
			<stop  offset="0.6903" style="stop-color:#B72AFF"/>
			<stop  offset="0.8017" style="stop-color:#CE2AFF"/>
			<stop  offset="0.907" style="stop-color:#DB2AFF"/>
			<stop  offset="1" style="stop-color:#E02AFF"/>
		</linearGradient>
		<path fill="url(#SVGID_1_)" d="M66.709-73.194c-1.797-0.599-3.208-1.375-4.234-2.328l1.356-2.86
			c0.978,0.88,2.23,1.596,3.758,2.146s3.099,0.824,4.712,0.824c2.127,0,3.715-0.36,4.767-1.08c1.05-0.721,1.576-1.681,1.576-2.878
			c0-0.881-0.287-1.596-0.861-2.146c-0.575-0.55-1.283-0.972-2.127-1.265c-0.843-0.293-2.034-0.623-3.575-0.989
			c-1.931-0.465-3.489-0.929-4.674-1.394c-1.187-0.464-2.2-1.18-3.044-2.146c-0.843-0.965-1.265-2.267-1.265-3.904
			c0-1.369,0.36-2.604,1.081-3.703c0.722-1.101,1.815-1.98,3.282-2.641s3.287-0.989,5.463-0.989c1.516,0,3.007,0.195,4.474,0.586
			c1.467,0.392,2.725,0.953,3.776,1.687l-1.21,2.934c-1.076-0.684-2.225-1.204-3.447-1.559c-1.222-0.354-2.419-0.531-3.593-0.531
			c-2.077,0-3.637,0.379-4.675,1.137c-1.039,0.758-1.558,1.735-1.558,2.934c0,0.879,0.293,1.594,0.879,2.145
			c0.587,0.549,1.314,0.978,2.183,1.283c0.867,0.307,2.047,0.63,3.538,0.971c1.931,0.466,3.482,0.93,4.656,1.395
			c1.173,0.465,2.182,1.173,3.024,2.126c0.844,0.953,1.266,2.237,1.266,3.851c0,1.344-0.367,2.572-1.101,3.685
			s-1.846,1.991-3.336,2.641c-1.491,0.646-3.324,0.972-5.5,0.972C70.369-72.295,68.506-72.596,66.709-73.194z"/>
		<linearGradient id="SVGID_2_" gradientUnits="userSpaceOnUse" x1="87.0762" y1="-86.1924" x2="105.5186" y2="-86.1924">
			<stop  offset="0" style="stop-color:#3E198A"/>
			<stop  offset="0.0833" style="stop-color:#441B99"/>
			<stop  offset="0.2439" style="stop-color:#5521C1"/>
			<stop  offset="0.46" style="stop-color:#702AFF"/>
			<stop  offset="0.5752" style="stop-color:#972AFF"/>
			<stop  offset="0.6903" style="stop-color:#B72AFF"/>
			<stop  offset="0.8017" style="stop-color:#CE2AFF"/>
			<stop  offset="0.907" style="stop-color:#DB2AFF"/>
			<stop  offset="1" style="stop-color:#E02AFF"/>
		</linearGradient>
		<path fill="url(#SVGID_2_)" d="M103.338-90.061c1.454,1.432,2.181,3.527,2.181,6.289v11.183h-3.52v-10.779
			c0-1.882-0.452-3.302-1.356-4.255s-2.2-1.43-3.887-1.43c-1.907,0-3.41,0.558-4.51,1.67c-1.101,1.111-1.65,2.708-1.65,4.784v10.01
			h-3.52v-27.206h3.52v10.523c0.733-0.93,1.692-1.65,2.879-2.164c1.185-0.513,2.512-0.77,3.978-0.77
			C99.922-92.205,101.883-91.49,103.338-90.061z"/>
		<linearGradient id="SVGID_3_" gradientUnits="userSpaceOnUse" x1="111.8623" y1="-82.1953" x2="130.1572" y2="-82.1953">
			<stop  offset="0" style="stop-color:#3E198A"/>
			<stop  offset="0.0833" style="stop-color:#441B99"/>
			<stop  offset="0.2439" style="stop-color:#5521C1"/>
			<stop  offset="0.46" style="stop-color:#702AFF"/>
			<stop  offset="0.5752" style="stop-color:#972AFF"/>
			<stop  offset="0.6903" style="stop-color:#B72AFF"/>
			<stop  offset="0.8017" style="stop-color:#CE2AFF"/>
			<stop  offset="0.907" style="stop-color:#DB2AFF"/>
			<stop  offset="1" style="stop-color:#E02AFF"/>
		</linearGradient>
		<path fill="url(#SVGID_3_)" d="M130.157-92.021v19.433h-3.336v-2.934c-0.709,1.003-1.645,1.779-2.805,2.328
			c-1.162,0.55-2.426,0.825-3.797,0.825c-2.59,0-4.631-0.715-6.121-2.146c-1.49-1.43-2.236-3.538-2.236-6.325v-11.182h3.52v10.779
			c0,1.882,0.451,3.307,1.357,4.271c0.904,0.966,2.199,1.448,3.885,1.448c1.857,0,3.324-0.562,4.4-1.688
			c1.074-1.123,1.613-2.712,1.613-4.766v-10.046H130.157z"/>
		<linearGradient id="SVGID_4_" gradientUnits="userSpaceOnUse" x1="134.0791" y1="-86.3018" x2="147.7568" y2="-86.3018">
			<stop  offset="0" style="stop-color:#3E198A"/>
			<stop  offset="0.0833" style="stop-color:#441B99"/>
			<stop  offset="0.2439" style="stop-color:#5521C1"/>
			<stop  offset="0.46" style="stop-color:#702AFF"/>
			<stop  offset="0.5752" style="stop-color:#972AFF"/>
			<stop  offset="0.6903" style="stop-color:#B72AFF"/>
			<stop  offset="0.8017" style="stop-color:#CE2AFF"/>
			<stop  offset="0.907" style="stop-color:#DB2AFF"/>
			<stop  offset="1" style="stop-color:#E02AFF"/>
		</linearGradient>
		<path fill="url(#SVGID_4_)" d="M140.827-93.709v1.688h5.646v2.896h-5.572v16.536h-3.521v-16.536h-3.301v-2.896h3.301v-1.724
			c0-1.931,0.563-3.459,1.688-4.583c1.123-1.124,2.699-1.687,4.729-1.687c0.783,0,1.516,0.098,2.201,0.293
			c0.684,0.196,1.27,0.477,1.76,0.844l-1.064,2.677c-0.805-0.611-1.709-0.917-2.713-0.917
			C141.878-97.118,140.827-95.981,140.827-93.709z"/>
		<linearGradient id="SVGID_5_" gradientUnits="userSpaceOnUse" x1="147.0244" y1="-86.3018" x2="166.2725" y2="-86.3018">
			<stop  offset="0" style="stop-color:#3E198A"/>
			<stop  offset="0.0833" style="stop-color:#441B99"/>
			<stop  offset="0.2439" style="stop-color:#5521C1"/>
			<stop  offset="0.46" style="stop-color:#702AFF"/>
			<stop  offset="0.5752" style="stop-color:#972AFF"/>
			<stop  offset="0.6903" style="stop-color:#B72AFF"/>
			<stop  offset="0.8017" style="stop-color:#CE2AFF"/>
			<stop  offset="0.907" style="stop-color:#DB2AFF"/>
			<stop  offset="1" style="stop-color:#E02AFF"/>
		</linearGradient>
		<path fill="url(#SVGID_5_)" d="M153.771-93.709v1.688h5.645v2.896h-5.572v16.536h-3.521v-16.536h-3.297v-2.896h3.297v-1.724
			c0-1.931,0.564-3.459,1.688-4.583c1.125-1.124,2.701-1.687,4.73-1.687c0.781,0,1.516,0.098,2.199,0.293
			c0.684,0.196,1.271,0.477,1.762,0.844l-1.064,2.677c-0.807-0.611-1.711-0.917-2.713-0.917
			C154.821-97.118,153.771-95.981,153.771-93.709z M162.753-99.795h3.52v27.206h-3.52V-99.795z"/>
		<linearGradient id="SVGID_6_" gradientUnits="userSpaceOnUse" x1="171.1846" y1="-82.2871" x2="190.5439" y2="-82.2871">
			<stop  offset="0" style="stop-color:#3E198A"/>
			<stop  offset="0.0833" style="stop-color:#441B99"/>
			<stop  offset="0.2439" style="stop-color:#5521C1"/>
			<stop  offset="0.46" style="stop-color:#702AFF"/>
			<stop  offset="0.5752" style="stop-color:#972AFF"/>
			<stop  offset="0.6903" style="stop-color:#B72AFF"/>
			<stop  offset="0.8017" style="stop-color:#CE2AFF"/>
			<stop  offset="0.907" style="stop-color:#DB2AFF"/>
			<stop  offset="1" style="stop-color:#E02AFF"/>
		</linearGradient>
		<path fill="url(#SVGID_6_)" d="M190.472-81.133h-15.768c0.221,1.712,0.973,3.086,2.256,4.126c1.283,1.039,2.879,1.559,4.783,1.559
			c2.324,0,4.193-0.783,5.611-2.348l1.943,2.273c-0.881,1.027-1.975,1.81-3.281,2.347c-1.309,0.538-2.77,0.807-4.383,0.807
			c-2.053,0-3.875-0.421-5.463-1.265c-1.59-0.844-2.816-2.022-3.684-3.538c-0.869-1.515-1.303-3.227-1.303-5.134
			c0-1.882,0.422-3.58,1.266-5.097c0.842-1.515,2.004-2.694,3.482-3.538c1.479-0.843,3.146-1.265,5.006-1.265
			c1.855,0,3.514,0.422,4.969,1.265c1.453,0.844,2.59,2.023,3.408,3.538c0.82,1.517,1.229,3.252,1.229,5.207
			C190.544-81.926,190.521-81.571,190.472-81.133z M176.704-87.695c-1.137,1.025-1.803,2.371-2,4.034h12.467
			c-0.195-1.639-0.861-2.977-1.998-4.015c-1.137-1.04-2.549-1.559-4.234-1.559C179.251-89.234,177.841-88.721,176.704-87.695z"/>
		<linearGradient id="SVGID_7_" gradientUnits="userSpaceOnUse" x1="195.4209" y1="-82.3975" x2="205.8701" y2="-82.3975">
			<stop  offset="0" style="stop-color:#3E198A"/>
			<stop  offset="0.0833" style="stop-color:#441B99"/>
			<stop  offset="0.2439" style="stop-color:#5521C1"/>
			<stop  offset="0.46" style="stop-color:#702AFF"/>
			<stop  offset="0.5752" style="stop-color:#972AFF"/>
			<stop  offset="0.6903" style="stop-color:#B72AFF"/>
			<stop  offset="0.8017" style="stop-color:#CE2AFF"/>
			<stop  offset="0.907" style="stop-color:#DB2AFF"/>
			<stop  offset="1" style="stop-color:#E02AFF"/>
		</linearGradient>
		<path fill="url(#SVGID_7_)" d="M201.507-91.325c1.197-0.587,2.652-0.88,4.363-0.88v3.41c-0.195-0.025-0.465-0.036-0.807-0.036
			c-1.906,0-3.404,0.567-4.49,1.704c-1.088,1.137-1.633,2.756-1.633,4.857v9.681h-3.52v-19.433h3.373v3.264
			C199.403-89.883,200.31-90.738,201.507-91.325z"/>
	</g>
	<g>
		<g>
			<linearGradient id="SVGID_8_" gradientUnits="userSpaceOnUse" x1="4.2373" y1="-92.7432" x2="4.2373" y2="-103.0508">
				<stop  offset="0" style="stop-color:#3E198A"/>
				<stop  offset="0.0833" style="stop-color:#441B99"/>
				<stop  offset="0.2439" style="stop-color:#5521C1"/>
				<stop  offset="0.46" style="stop-color:#702AFF"/>
				<stop  offset="0.5752" style="stop-color:#972AFF"/>
				<stop  offset="0.6903" style="stop-color:#B72AFF"/>
				<stop  offset="0.8017" style="stop-color:#CE2AFF"/>
				<stop  offset="0.907" style="stop-color:#DB2AFF"/>
				<stop  offset="1" style="stop-color:#E02AFF"/>
			</linearGradient>
			<path fill="url(#SVGID_8_)" d="M14.804-97.07l-2.358,4.327c-0.063-0.144-0.144-0.271-0.224-0.4
				c-0.802-1.314-2.084-2.533-3.384-3.318c-2.356-1.409-5.34-1.811-8.017-2.115H0.757v0.033h-7.086v-4.507h7.086
				c2.855,0.16,5.659,0.627,8.273,1.763C11.179-100.342,13.199-98.883,14.804-97.07z"/>
			<linearGradient id="SVGID_9_" gradientUnits="userSpaceOnUse" x1="25.4556" y1="-61.9766" x2="25.4556" y2="-106.689">
				<stop  offset="0" style="stop-color:#3E198A"/>
				<stop  offset="0.0833" style="stop-color:#441B99"/>
				<stop  offset="0.2439" style="stop-color:#5521C1"/>
				<stop  offset="0.46" style="stop-color:#702AFF"/>
				<stop  offset="0.5752" style="stop-color:#972AFF"/>
				<stop  offset="0.6903" style="stop-color:#B72AFF"/>
				<stop  offset="0.8017" style="stop-color:#CE2AFF"/>
				<stop  offset="0.907" style="stop-color:#DB2AFF"/>
				<stop  offset="1" style="stop-color:#E02AFF"/>
			</linearGradient>
			<path fill="url(#SVGID_9_)" d="M49.433-75.522l7.808,4.506l-7.808,4.518l-7.823,4.522v-7.086h-7.566v0.017h-0.146
				c-3.174-0.017-6.349-0.288-9.27-1.666c-2.835-1.333-5.257-3.271-6.971-5.788c0,0.048-0.016,0.079-0.033,0.13
				c-1.33,4.024-4.778,7.308-8.594,8.991c-2.614,1.122-5.418,1.604-8.273,1.765v0.048h-7.086v-4.503h7.086v-0.018h0.064
				c2.677-0.307,5.66-0.707,8.017-2.115c1.3-0.786,2.582-2.007,3.384-3.32c1.618-2.646,2.036-5.756,2.598-8.803
				c0.287-1.521,0.591-3.044,1.121-4.472c0.45-1.202,1.027-2.342,1.717-3.366c1.714-2.518,4.136-4.459,6.971-5.79
				c2.921-1.377,6.096-1.649,9.27-1.665h0.146v0.016h7.566v-7.087l7.823,4.521l7.808,4.521l-7.808,4.504l-7.823,4.522v-6.639h-7.681
				c-0.271,0-0.513,0.018-0.785,0.018c-2.869,0.063-5.933,0.64-8.401,2.147c-3.448,2.117-4.632,5.325-5.387,8.754
				c0.755,3.447,1.938,6.654,5.387,8.771c2.469,1.507,5.532,2.082,8.401,2.147c0.272,0,0.515,0.017,0.785,0.017h7.681v-6.639
				L49.433-75.522z"/>
		</g>
	</g>
</g>
<g>
	<g>
		<linearGradient id="SVGID_10_" gradientUnits="userSpaceOnUse" x1="33.2183" y1="58.4385" x2="33.2183" y2="38.1416">
			<stop  offset="0" style="stop-color:#3E198A"/>
			<stop  offset="0.0833" style="stop-color:#441B99"/>
			<stop  offset="0.2439" style="stop-color:#5521C1"/>
			<stop  offset="0.46" style="stop-color:#702AFF"/>
			<stop  offset="0.5752" style="stop-color:#972AFF"/>
			<stop  offset="0.6903" style="stop-color:#B72AFF"/>
			<stop  offset="0.8017" style="stop-color:#CE2AFF"/>
			<stop  offset="0.907" style="stop-color:#DB2AFF"/>
			<stop  offset="1" style="stop-color:#E02AFF"/>
		</linearGradient>
		<path fill="url(#SVGID_10_)" d="M54.025,49.919l-4.644,8.52c-0.124-0.282-0.283-0.532-0.441-0.788
			c-1.578-2.588-4.103-4.988-6.663-6.535c-4.639-2.772-10.514-3.565-15.786-4.164h-0.127v0.064H12.412v-8.874h13.953
			c5.624,0.316,11.145,1.234,16.292,3.471C46.887,43.476,50.865,46.35,54.025,49.919z"/>
		<linearGradient id="SVGID_11_" gradientUnits="userSpaceOnUse" x1="75.0005" y1="119.0225" x2="75.0005" y2="30.9775">
			<stop  offset="0" style="stop-color:#3E198A"/>
			<stop  offset="0.0833" style="stop-color:#441B99"/>
			<stop  offset="0.2439" style="stop-color:#5521C1"/>
			<stop  offset="0.46" style="stop-color:#702AFF"/>
			<stop  offset="0.5752" style="stop-color:#972AFF"/>
			<stop  offset="0.6903" style="stop-color:#B72AFF"/>
			<stop  offset="0.8017" style="stop-color:#CE2AFF"/>
			<stop  offset="0.907" style="stop-color:#DB2AFF"/>
			<stop  offset="1" style="stop-color:#E02AFF"/>
		</linearGradient>
		<path fill="url(#SVGID_11_)" d="M122.214,92.35l15.375,8.872l-15.375,8.896l-15.406,8.905v-13.953H91.909v0.034h-0.286
			c-6.25-0.034-12.501-0.568-18.252-3.282c-5.583-2.625-10.352-6.439-13.727-11.396c0,0.095-0.031,0.155-0.066,0.256
			c-2.619,7.925-9.409,14.389-16.922,17.705c-5.147,2.209-10.668,3.156-16.292,3.475v0.095H12.412v-8.868h13.953v-0.033h0.127
			c5.271-0.604,11.146-1.395,15.786-4.167c2.56-1.547,5.085-3.951,6.663-6.537c3.187-5.211,4.01-11.335,5.115-17.334
			c0.566-2.997,1.164-5.994,2.208-8.805c0.887-2.369,2.022-4.611,3.381-6.63c3.375-4.957,8.144-8.78,13.727-11.402
			c5.751-2.71,12.002-3.246,18.252-3.277h0.286v0.031h14.899V30.978l15.406,8.903l15.375,8.901l-15.375,8.868l-15.406,8.906V53.484
			H91.684c-0.533,0-1.009,0.033-1.546,0.033c-5.65,0.126-11.682,1.26-16.543,4.229c-6.79,4.169-9.121,10.486-10.606,17.237
			c1.486,6.789,3.816,13.104,10.606,17.272c4.862,2.968,10.894,4.1,16.543,4.228c0.537,0,1.013,0.034,1.546,0.034h15.124V83.445
			L122.214,92.35z"/>
	</g>
</g>
<g>
	<g>
		<path fill="none" stroke="#702AFF" stroke-miterlimit="10" d="M372.485-102.449l-1.47,2.699c-0.041-0.09-0.09-0.17-0.141-0.25
			c-0.5-0.82-1.3-1.58-2.109-2.07c-1.471-0.879-3.33-1.129-5.001-1.32h-0.039v0.021h-4.42v-2.811h4.42
			c1.78,0.101,3.53,0.391,5.159,1.101C370.225-104.489,371.485-103.58,372.485-102.449z"/>
		<path fill="none" stroke="#702AFF" stroke-miterlimit="10" d="M394.086-89.01l4.869,2.809l-4.869,2.82l-4.881,2.82v-4.42h-4.721
			v0.01h-0.09c-1.98-0.01-3.959-0.18-5.779-1.039c-1.77-0.83-3.279-2.039-4.35-3.609c0,0.029-0.01,0.049-0.021,0.08
			c-0.83,2.508-2.979,4.559-5.36,5.609c-1.629,0.699-3.379,1-5.159,1.1v0.029h-4.42v-2.811h4.42v-0.01h0.039
			c1.671-0.189,3.53-0.439,5.001-1.318c0.81-0.49,1.609-1.25,2.109-2.07c1.01-1.65,1.27-3.589,1.62-5.49
			c0.181-0.949,0.37-1.899,0.7-2.789c0.279-0.75,0.641-1.461,1.07-2.102c1.07-1.568,2.58-2.779,4.35-3.609
			c1.82-0.86,3.799-1.03,5.779-1.04h0.09v0.01h4.721v-4.42l4.881,2.82l4.869,2.819l-4.869,2.81l-4.881,2.821v-4.141h-4.791
			c-0.17,0-0.318,0.01-0.488,0.01c-1.791,0.041-3.701,0.4-5.24,1.339c-2.15,1.322-2.891,3.323-3.36,5.461
			c0.47,2.15,1.21,4.15,3.36,5.47c1.539,0.939,3.449,1.299,5.24,1.34c0.17,0,0.318,0.01,0.488,0.01h4.791v-4.141L394.086-89.01z"/>
	</g>
</g>
<g>
	<g>
		<path fill="#702AFF" d="M316.042-102.449l-1.471,2.699c-0.04-0.09-0.09-0.17-0.14-0.25c-0.5-0.82-1.3-1.58-2.11-2.07
			c-1.47-0.879-3.33-1.129-5-1.32h-0.04v0.021h-4.42v-2.811h4.42c1.78,0.101,3.53,0.391,5.16,1.101
			C313.781-104.489,315.042-103.58,316.042-102.449z"/>
		<path fill="#702AFF" d="M337.641-89.01l4.87,2.809l-4.87,2.82l-4.879,2.82v-4.42h-4.721v0.01h-0.09
			c-1.979-0.01-3.96-0.18-5.78-1.039c-1.77-0.83-3.279-2.039-4.35-3.609c0,0.029-0.01,0.049-0.02,0.08
			c-0.83,2.508-2.98,4.559-5.36,5.609c-1.63,0.699-3.38,1-5.16,1.1v0.029h-4.42v-2.811h4.42v-0.01h0.04
			c1.67-0.189,3.53-0.439,5-1.318c0.811-0.49,1.61-1.25,2.11-2.07c1.01-1.65,1.27-3.589,1.62-5.49
			c0.18-0.949,0.369-1.899,0.699-2.789c0.28-0.75,0.641-1.461,1.07-2.102c1.07-1.568,2.58-2.779,4.35-3.609
			c1.82-0.86,3.801-1.03,5.78-1.04h0.09v0.01h4.721v-4.42l4.879,2.82l4.87,2.819l-4.87,2.81l-4.879,2.821v-4.141h-4.791
			c-0.17,0-0.319,0.01-0.489,0.01c-1.79,0.041-3.7,0.4-5.24,1.339c-2.15,1.322-2.89,3.323-3.359,5.461
			c0.47,2.15,1.209,4.15,3.359,5.47c1.54,0.939,3.45,1.301,5.24,1.34c0.17,0,0.319,0.01,0.489,0.01h4.791v-4.141L337.641-89.01z"/>
	</g>
</g>
<g>
	<g>
		<path fill="none" stroke="#702AFF" stroke-miterlimit="10" d="M474.705-135.471c-0.43,0.64-0.791,1.35-1.07,2.1
			c-0.33,0.891-0.52,1.84-0.7,2.79c-0.351-1.91-0.61-3.85-1.62-5.5c-0.5-0.82-1.3-1.58-2.109-2.07c-1.471-0.88-3.33-1.13-5-1.319
			h-0.041v-2.79c1.781,0.1,3.531,0.39,5.16,1.1c2.381,1.05,4.53,3.101,5.36,5.61C474.695-135.521,474.705-135.501,474.705-135.471z"
			/>
		<path fill="none" stroke="#702AFF" stroke-miterlimit="10" d="M494.525-125.091l4.869,2.81l-4.869,2.82l-4.881,2.82v-4.42h-4.72
			v0.01h-0.091c-1.979-0.01-3.959-0.18-5.779-1.04c-1.77-0.83-3.279-2.04-4.35-3.61c0,0.03-0.01,0.05-0.021,0.08
			c-0.83,2.51-2.979,4.561-5.36,5.61c-1.629,0.7-3.379,1-5.16,1.1v-2.79h0.041c1.67-0.189,3.529-0.439,5-1.319
			c0.81-0.49,1.609-1.25,2.109-2.07c1.01-1.65,1.27-3.59,1.62-5.49c0.181-0.95,0.37-1.899,0.7-2.79c0.279-0.75,0.641-1.46,1.07-2.1
			c1.07-1.57,2.58-2.78,4.35-3.61c1.82-0.859,3.8-1.03,5.779-1.04h0.091v0.01h4.72v-4.42l4.881,2.82l4.869,2.82l-4.869,2.81
			l-4.881,2.82v-4.141h-4.79c-0.17,0-0.319,0.011-0.489,0.011c-1.791,0.04-3.701,0.399-5.24,1.34c-2.15,1.32-2.891,3.32-3.36,5.46
			c0.47,2.15,1.21,4.15,3.36,5.47c1.539,0.94,3.449,1.3,5.24,1.34c0.17,0,0.319,0.011,0.489,0.011h4.79v-4.141L494.525-125.091z"/>
	</g>
</g>
<g>
	<path fill="none" stroke="#000000" stroke-width="0.5" stroke-miterlimit="10" d="M499.395-106.583l-4.87,2.81l-4.88,2.82v-4.14
		h-4.79c-0.17,0-0.32,0.01-0.49,0.01c-1.79,0.04-3.7,0.4-5.239,1.339c-2.15,1.32-2.891,3.32-3.36,5.47
		c-0.36,1.61-0.55,3.311-1.061,4.879c0,0.031-0.01,0.051-0.02,0.08c-0.83,2.511-2.98,4.56-5.36,5.611c-1.63,0.709-3.38,1-5.16,1.1
		v-2.789h0.04c1.671-0.191,3.53-0.441,5-1.32c0.811-0.49,1.61-1.25,2.11-2.07c1.01-1.651,1.271-3.59,1.62-5.491
		c0.18-0.951,0.37-1.9,0.7-2.791c0.279-0.76,0.64-1.459,1.069-2.1c1.07-1.57,2.58-2.78,4.351-3.609c1.82-0.86,3.8-1.031,5.78-1.041
		h0.09v0.01h4.72v-4.42l4.88,2.82L499.395-106.583z"/>
</g>
<g>
	<g>
		<path fill="none" stroke="#000000" stroke-width="0.5" stroke-miterlimit="10" d="M474.704-103.164
			c-0.43,0.641-0.79,1.34-1.069,2.1c-0.33,0.89-0.521,1.839-0.7,2.791c-0.35-1.91-0.61-3.849-1.62-5.5
			c-0.5-0.82-1.3-1.581-2.11-2.07c-1.47-0.881-3.329-1.131-5-1.32h-0.04v-2.79c1.78,0.101,3.53,0.39,5.16,1.101
			c2.38,1.049,4.53,3.1,5.36,5.609C474.694-103.212,474.704-103.193,474.704-103.164z"/>
		<path fill="none" stroke="#000000" stroke-width="0.5" stroke-miterlimit="10" d="M499.395-89.973l-4.87,2.818l-4.88,2.82v-4.42
			h-4.72v0.01h-0.09c-1.98-0.01-3.96-0.18-5.78-1.039c-1.771-0.83-3.28-2.041-4.351-3.611c0.511-1.568,0.7-3.27,1.061-4.879
			c0.47,2.141,1.21,4.141,3.36,5.459c1.539,0.941,3.449,1.3,5.239,1.341c0.17,0,0.32,0.01,0.49,0.01h4.79v-4.14l4.88,2.82
			L499.395-89.973z"/>
	</g>
</g>
</svg>
