<?xml version="1.0" encoding="utf-8"?>
<!-- Generator: Adobe Illustrator 16.0.0, SVG Export Plug-In . SVG Version: 6.00 Build 0)  -->
<!DOCTYPE svg PUBLIC "-//W3C//DTD SVG 1.1//EN" "http://www.w3.org/Graphics/SVG/1.1/DTD/svg11.dtd">
<svg version="1.1" id="Layer_1" xmlns="http://www.w3.org/2000/svg" xmlns:xlink="http://www.w3.org/1999/xlink" x="0px" y="0px"
	 width="250px" height="100px" viewBox="0 0 250 100" enable-background="new 0 0 250 100" xml:space="preserve">
<g>
	<g>
		<linearGradient id="SVGID_1_" gradientUnits="userSpaceOnUse" x1="87.7036" y1="48.9121" x2="107.4663" y2="48.9121">
			<stop  offset="0" style="stop-color:#3E198A"/>
			<stop  offset="0.0833" style="stop-color:#441B99"/>
			<stop  offset="0.2439" style="stop-color:#5521C1"/>
			<stop  offset="0.46" style="stop-color:#702AFF"/>
			<stop  offset="0.5752" style="stop-color:#972AFF"/>
			<stop  offset="0.6903" style="stop-color:#B72AFF"/>
			<stop  offset="0.8017" style="stop-color:#CE2AFF"/>
			<stop  offset="0.907" style="stop-color:#DB2AFF"/>
			<stop  offset="1" style="stop-color:#E02AFF"/>
		</linearGradient>
		<path fill="url(#SVGID_1_)" d="M91.938,61.139c-1.797-0.599-3.208-1.375-4.234-2.328l1.356-2.86
			c0.978,0.88,2.23,1.596,3.758,2.146s3.099,0.824,4.712,0.824c2.127,0,3.715-0.36,4.767-1.08c1.05-0.721,1.576-1.681,1.576-2.878
			c0-0.881-0.287-1.596-0.861-2.146c-0.575-0.55-1.283-0.972-2.127-1.265c-0.843-0.293-2.034-0.623-3.575-0.989
			c-1.931-0.465-3.489-0.929-4.674-1.394c-1.187-0.464-2.2-1.18-3.044-2.146c-0.843-0.965-1.265-2.267-1.265-3.904
			c0-1.369,0.36-2.604,1.081-3.703c0.722-1.101,1.815-1.98,3.282-2.641s3.287-0.989,5.463-0.989c1.516,0,3.007,0.195,4.474,0.586
			c1.467,0.392,2.725,0.953,3.776,1.687l-1.21,2.934c-1.076-0.684-2.225-1.204-3.447-1.559c-1.222-0.354-2.419-0.531-3.593-0.531
			c-2.077,0-3.637,0.379-4.675,1.137c-1.039,0.758-1.558,1.735-1.558,2.934c0,0.879,0.293,1.594,0.879,2.145
			c0.587,0.549,1.314,0.978,2.183,1.283c0.867,0.307,2.047,0.63,3.538,0.971c1.931,0.466,3.482,0.93,4.656,1.395
			c1.173,0.465,2.182,1.173,3.024,2.126c0.844,0.953,1.266,2.237,1.266,3.851c0,1.344-0.367,2.572-1.101,3.685
			s-1.846,1.991-3.336,2.641c-1.491,0.646-3.324,0.972-5.5,0.972C95.598,62.038,93.735,61.737,91.938,61.139z"/>
		<linearGradient id="SVGID_2_" gradientUnits="userSpaceOnUse" x1="112.3052" y1="48.1406" x2="130.7476" y2="48.1406">
			<stop  offset="0" style="stop-color:#3E198A"/>
			<stop  offset="0.0833" style="stop-color:#441B99"/>
			<stop  offset="0.2439" style="stop-color:#5521C1"/>
			<stop  offset="0.46" style="stop-color:#702AFF"/>
			<stop  offset="0.5752" style="stop-color:#972AFF"/>
			<stop  offset="0.6903" style="stop-color:#B72AFF"/>
			<stop  offset="0.8017" style="stop-color:#CE2AFF"/>
			<stop  offset="0.907" style="stop-color:#DB2AFF"/>
			<stop  offset="1" style="stop-color:#E02AFF"/>
		</linearGradient>
		<path fill="url(#SVGID_2_)" d="M128.567,44.272c1.454,1.432,2.181,3.527,2.181,6.289v11.183h-3.52V50.965
			c0-1.882-0.452-3.302-1.356-4.255s-2.2-1.43-3.887-1.43c-1.907,0-3.41,0.558-4.51,1.67c-1.101,1.111-1.65,2.708-1.65,4.784v10.01
			h-3.52V34.538h3.52v10.523c0.733-0.93,1.692-1.65,2.879-2.164c1.185-0.513,2.512-0.77,3.978-0.77
			C125.151,42.128,127.112,42.843,128.567,44.272z"/>
		<linearGradient id="SVGID_3_" gradientUnits="userSpaceOnUse" x1="137.0913" y1="52.1377" x2="155.3862" y2="52.1377">
			<stop  offset="0" style="stop-color:#3E198A"/>
			<stop  offset="0.0833" style="stop-color:#441B99"/>
			<stop  offset="0.2439" style="stop-color:#5521C1"/>
			<stop  offset="0.46" style="stop-color:#702AFF"/>
			<stop  offset="0.5752" style="stop-color:#972AFF"/>
			<stop  offset="0.6903" style="stop-color:#B72AFF"/>
			<stop  offset="0.8017" style="stop-color:#CE2AFF"/>
			<stop  offset="0.907" style="stop-color:#DB2AFF"/>
			<stop  offset="1" style="stop-color:#E02AFF"/>
		</linearGradient>
		<path fill="url(#SVGID_3_)" d="M155.386,42.312v19.433h-3.336v-2.934c-0.709,1.003-1.645,1.779-2.805,2.328
			c-1.162,0.55-2.426,0.825-3.797,0.825c-2.59,0-4.631-0.715-6.121-2.146c-1.49-1.43-2.236-3.538-2.236-6.325V42.312h3.52v10.779
			c0,1.882,0.451,3.307,1.357,4.271c0.904,0.966,2.199,1.448,3.885,1.448c1.857,0,3.324-0.562,4.4-1.688
			c1.074-1.123,1.613-2.712,1.613-4.766V42.312H155.386z"/>
		<linearGradient id="SVGID_4_" gradientUnits="userSpaceOnUse" x1="159.3081" y1="48.0313" x2="172.9858" y2="48.0313">
			<stop  offset="0" style="stop-color:#3E198A"/>
			<stop  offset="0.0833" style="stop-color:#441B99"/>
			<stop  offset="0.2439" style="stop-color:#5521C1"/>
			<stop  offset="0.46" style="stop-color:#702AFF"/>
			<stop  offset="0.5752" style="stop-color:#972AFF"/>
			<stop  offset="0.6903" style="stop-color:#B72AFF"/>
			<stop  offset="0.8017" style="stop-color:#CE2AFF"/>
			<stop  offset="0.907" style="stop-color:#DB2AFF"/>
			<stop  offset="1" style="stop-color:#E02AFF"/>
		</linearGradient>
		<path fill="url(#SVGID_4_)" d="M166.056,40.624v1.688h5.646v2.896h-5.572v16.536h-3.521V45.208h-3.301v-2.896h3.301v-1.724
			c0-1.931,0.563-3.459,1.688-4.583c1.123-1.124,2.699-1.687,4.729-1.687c0.783,0,1.516,0.098,2.201,0.293
			c0.684,0.196,1.27,0.477,1.76,0.844l-1.064,2.677c-0.805-0.611-1.709-0.917-2.713-0.917
			C167.107,37.215,166.056,38.352,166.056,40.624z"/>
		<linearGradient id="SVGID_5_" gradientUnits="userSpaceOnUse" x1="172.2534" y1="48.0313" x2="191.5015" y2="48.0313">
			<stop  offset="0" style="stop-color:#3E198A"/>
			<stop  offset="0.0833" style="stop-color:#441B99"/>
			<stop  offset="0.2439" style="stop-color:#5521C1"/>
			<stop  offset="0.46" style="stop-color:#702AFF"/>
			<stop  offset="0.5752" style="stop-color:#972AFF"/>
			<stop  offset="0.6903" style="stop-color:#B72AFF"/>
			<stop  offset="0.8017" style="stop-color:#CE2AFF"/>
			<stop  offset="0.907" style="stop-color:#DB2AFF"/>
			<stop  offset="1" style="stop-color:#E02AFF"/>
		</linearGradient>
		<path fill="url(#SVGID_5_)" d="M179,40.624v1.688h5.645v2.896h-5.572v16.536h-3.521V45.208h-3.297v-2.896h3.297v-1.724
			c0-1.931,0.564-3.459,1.688-4.583c1.125-1.124,2.701-1.687,4.73-1.687c0.781,0,1.516,0.098,2.199,0.293
			c0.684,0.196,1.271,0.477,1.762,0.844l-1.064,2.677c-0.807-0.611-1.711-0.917-2.713-0.917C180.05,37.215,179,38.352,179,40.624z
			 M187.982,34.538h3.52v27.206h-3.52V34.538z"/>
		<linearGradient id="SVGID_6_" gradientUnits="userSpaceOnUse" x1="196.4136" y1="52.0459" x2="215.7729" y2="52.0459">
			<stop  offset="0" style="stop-color:#3E198A"/>
			<stop  offset="0.0833" style="stop-color:#441B99"/>
			<stop  offset="0.2439" style="stop-color:#5521C1"/>
			<stop  offset="0.46" style="stop-color:#702AFF"/>
			<stop  offset="0.5752" style="stop-color:#972AFF"/>
			<stop  offset="0.6903" style="stop-color:#B72AFF"/>
			<stop  offset="0.8017" style="stop-color:#CE2AFF"/>
			<stop  offset="0.907" style="stop-color:#DB2AFF"/>
			<stop  offset="1" style="stop-color:#E02AFF"/>
		</linearGradient>
		<path fill="url(#SVGID_6_)" d="M215.701,53.2h-15.768c0.221,1.712,0.973,3.086,2.256,4.126c1.283,1.039,2.879,1.559,4.783,1.559
			c2.324,0,4.193-0.783,5.611-2.348l1.943,2.273c-0.881,1.027-1.975,1.81-3.281,2.347c-1.309,0.538-2.77,0.807-4.383,0.807
			c-2.053,0-3.875-0.421-5.463-1.265c-1.59-0.844-2.816-2.022-3.684-3.538c-0.869-1.515-1.303-3.227-1.303-5.134
			c0-1.882,0.422-3.58,1.266-5.097c0.842-1.515,2.004-2.694,3.482-3.538c1.479-0.843,3.146-1.265,5.006-1.265
			c1.855,0,3.514,0.422,4.969,1.265c1.453,0.844,2.59,2.023,3.408,3.538c0.82,1.517,1.229,3.252,1.229,5.207
			C215.773,52.407,215.75,52.762,215.701,53.2z M201.933,46.638c-1.137,1.025-1.803,2.371-2,4.034H212.4
			c-0.195-1.639-0.861-2.977-1.998-4.015c-1.137-1.04-2.549-1.559-4.234-1.559C204.48,45.099,203.07,45.612,201.933,46.638z"/>
		<linearGradient id="SVGID_7_" gradientUnits="userSpaceOnUse" x1="220.6499" y1="51.9355" x2="231.0991" y2="51.9355">
			<stop  offset="0" style="stop-color:#3E198A"/>
			<stop  offset="0.0833" style="stop-color:#441B99"/>
			<stop  offset="0.2439" style="stop-color:#5521C1"/>
			<stop  offset="0.46" style="stop-color:#702AFF"/>
			<stop  offset="0.5752" style="stop-color:#972AFF"/>
			<stop  offset="0.6903" style="stop-color:#B72AFF"/>
			<stop  offset="0.8017" style="stop-color:#CE2AFF"/>
			<stop  offset="0.907" style="stop-color:#DB2AFF"/>
			<stop  offset="1" style="stop-color:#E02AFF"/>
		</linearGradient>
		<path fill="url(#SVGID_7_)" d="M226.736,43.008c1.197-0.587,2.652-0.88,4.363-0.88v3.41c-0.195-0.025-0.465-0.036-0.807-0.036
			c-1.906,0-3.404,0.567-4.49,1.704c-1.088,1.137-1.633,2.756-1.633,4.857v9.681h-3.52V42.312h3.373v3.264
			C224.632,44.45,225.539,43.595,226.736,43.008z"/>
	</g>
	<g>
		<g>
			<linearGradient id="SVGID_8_" gradientUnits="userSpaceOnUse" x1="29.4663" y1="41.5898" x2="29.4663" y2="31.2822">
				<stop  offset="0" style="stop-color:#3E198A"/>
				<stop  offset="0.0833" style="stop-color:#441B99"/>
				<stop  offset="0.2439" style="stop-color:#5521C1"/>
				<stop  offset="0.46" style="stop-color:#702AFF"/>
				<stop  offset="0.5752" style="stop-color:#972AFF"/>
				<stop  offset="0.6903" style="stop-color:#B72AFF"/>
				<stop  offset="0.8017" style="stop-color:#CE2AFF"/>
				<stop  offset="0.907" style="stop-color:#DB2AFF"/>
				<stop  offset="1" style="stop-color:#E02AFF"/>
			</linearGradient>
			<path fill="url(#SVGID_8_)" d="M40.033,37.263l-2.358,4.327c-0.063-0.144-0.144-0.271-0.224-0.4
				c-0.802-1.314-2.084-2.533-3.384-3.318c-2.356-1.409-5.34-1.811-8.017-2.115h-0.064v0.033H18.9v-4.507h7.086
				c2.855,0.16,5.659,0.627,8.273,1.763C36.408,33.991,38.428,35.45,40.033,37.263z"/>
			<linearGradient id="SVGID_9_" gradientUnits="userSpaceOnUse" x1="50.6846" y1="72.3564" x2="50.6846" y2="27.644">
				<stop  offset="0" style="stop-color:#3E198A"/>
				<stop  offset="0.0833" style="stop-color:#441B99"/>
				<stop  offset="0.2439" style="stop-color:#5521C1"/>
				<stop  offset="0.46" style="stop-color:#702AFF"/>
				<stop  offset="0.5752" style="stop-color:#972AFF"/>
				<stop  offset="0.6903" style="stop-color:#B72AFF"/>
				<stop  offset="0.8017" style="stop-color:#CE2AFF"/>
				<stop  offset="0.907" style="stop-color:#DB2AFF"/>
				<stop  offset="1" style="stop-color:#E02AFF"/>
			</linearGradient>
			<path fill="url(#SVGID_9_)" d="M74.662,58.811l7.808,4.506l-7.808,4.518l-7.823,4.522v-7.086h-7.566v0.017h-0.146
				c-3.174-0.017-6.349-0.288-9.27-1.666c-2.835-1.333-5.257-3.271-6.971-5.788c0,0.048-0.016,0.079-0.033,0.13
				c-1.33,4.024-4.778,7.308-8.594,8.991c-2.614,1.122-5.418,1.604-8.273,1.765v0.048H18.9v-4.503h7.086v-0.018h0.064
				c2.677-0.307,5.66-0.707,8.017-2.115c1.3-0.786,2.582-2.007,3.384-3.32c1.618-2.646,2.036-5.756,2.598-8.803
				c0.287-1.521,0.591-3.044,1.121-4.472c0.45-1.202,1.027-2.342,1.717-3.366c1.714-2.518,4.136-4.459,6.971-5.79
				c2.921-1.377,6.096-1.649,9.27-1.665h0.146v0.016h7.566v-7.087l7.823,4.521l7.808,4.521l-7.808,4.504l-7.823,4.522v-6.639h-7.681
				c-0.271,0-0.513,0.018-0.785,0.018c-2.869,0.063-5.933,0.64-8.401,2.147c-3.448,2.117-4.632,5.325-5.387,8.754
				c0.755,3.447,1.938,6.654,5.387,8.771c2.469,1.507,5.532,2.082,8.401,2.147c0.272,0,0.515,0.017,0.785,0.017h7.681v-6.639
				L74.662,58.811z"/>
		</g>
	</g>
</g>
</svg>
