<?xml version="1.0" encoding="utf-8"?>
<!-- Generator: Adobe Illustrator 16.0.0, SVG Export Plug-In . SVG Version: 6.00 Build 0)  -->
<!DOCTYPE svg PUBLIC "-//W3C//DTD SVG 1.1//EN" "http://www.w3.org/Graphics/SVG/1.1/DTD/svg11.dtd">
<svg version="1.1" id="Layer_1" xmlns="http://www.w3.org/2000/svg" xmlns:xlink="http://www.w3.org/1999/xlink" x="0px" y="0px"
	 width="543.333px" height="145.33px" viewBox="0 0 543.333 145.33" enable-background="new 0 0 543.333 145.33"
	 xml:space="preserve">
<g>
	<g>
		<path d="M184.396,117.525V27.044h10.646V57.33h0.253c1.351-2.701,3.632-4.961,6.844-6.779c3.21-1.815,6.378-2.725,9.505-2.725
			c3.294,0,6.124,0.529,8.49,1.584c2.364,1.058,4.118,2.24,5.259,3.549c1.141,1.311,2.006,3.126,2.598,5.448
			c0.591,2.325,0.929,4.163,1.015,5.514c0.082,1.353,0.126,3.167,0.126,5.448v48.156h-10.645V70.638
			c0-1.775-0.086-3.252-0.254-4.437c-0.17-1.182-0.55-2.598-1.141-4.244c-0.592-1.648-1.605-2.894-3.041-3.739
			c-1.438-0.844-3.295-1.268-5.576-1.268c-3.38,0-6.463,1.163-9.25,3.485c-2.789,2.324-4.183,5.725-4.183,10.202v46.888H184.396z"/>
		<path d="M287.805,49.601v67.925h-10.139v-7.983h-0.253c-1.353,3.041-3.57,5.43-6.653,7.16c-3.085,1.73-6.357,2.598-9.821,2.598
			c-3.38,0-6.272-0.529-8.681-1.584c-2.408-1.056-4.182-2.238-5.322-3.549c-1.141-1.309-2.028-3.125-2.661-5.448
			c-0.634-2.323-0.995-4.161-1.077-5.514c-0.086-1.351-0.127-3.167-0.127-5.448V49.601h10.646v46.888
			c0,1.774,0.082,3.254,0.253,4.437c0.169,1.184,0.549,2.598,1.14,4.244c0.591,1.648,1.604,2.896,3.042,3.739
			c1.436,0.846,3.295,1.268,5.576,1.268c3.379,0,6.463-1.161,9.251-3.485c2.788-2.323,4.183-5.723,4.183-10.202V49.601H287.805z"/>
		<path d="M304.912,117.525V57.964h-9.885v-8.363h9.885v-7.983c0-10.392,4.898-15.587,14.7-15.587h7.729v9.124h-4.942
			c-4.562,0-6.843,2.154-6.843,6.463v7.983h11.659v8.363h-11.659v59.562H304.912z"/>
		<path d="M337.732,117.525V57.964h-9.884v-8.363h9.884v-7.983c0-10.392,4.898-15.587,14.7-15.587h7.73v9.124h-4.942
			c-4.563,0-6.844,2.154-6.844,6.463v7.983h11.659v8.363h-11.659v59.562H337.732z"/>
		<path d="M368.019,117.525V27.044h10.645v90.481H368.019z"/>
		<path d="M437.845,84.83h-35.737c0,2.366,0.02,4.246,0.063,5.639c0.042,1.395,0.168,3.296,0.38,5.703
			c0.21,2.408,0.612,4.33,1.204,5.767c0.59,1.438,1.331,2.914,2.218,4.435c0.888,1.521,2.11,2.661,3.675,3.423
			c1.563,0.76,3.4,1.141,5.513,1.141c3.124,0,5.617-1.035,7.477-3.106c1.857-2.068,2.998-4.118,3.421-6.146s0.635-4.182,0.635-6.463
			h10.645c0,2.113-0.339,4.394-1.014,6.843c-0.678,2.451-1.796,5.05-3.358,7.794c-1.564,2.746-3.95,5.006-7.159,6.78
			c-3.212,1.773-6.971,2.661-11.279,2.661c-8.195,0-14.173-2.852-17.932-8.555c-3.76-5.702-5.64-14.467-5.64-26.296
			c0-3.801,0.169-7.265,0.508-10.391c0.336-3.125,1.013-6.378,2.027-9.758c1.014-3.378,2.386-6.229,4.118-8.555
			c1.73-2.322,4.075-4.223,7.034-5.702c2.955-1.477,6.463-2.218,10.518-2.218c3.971,0,7.413,0.697,10.328,2.092
			c2.915,1.393,5.133,3.104,6.653,5.131c1.521,2.028,2.744,4.606,3.675,7.731c0.929,3.126,1.499,5.999,1.711,8.617
			c0.21,2.619,0.317,5.661,0.317,9.124V84.83z M402.487,76.466h24.205v-3.675c0-4.563-0.909-8.469-2.725-11.723
			c-1.817-3.251-4.837-4.879-9.061-4.879c-2.62,0-4.816,0.697-6.591,2.092c-1.773,1.395-3.041,3.168-3.802,5.322
			c-0.76,2.154-1.288,4.056-1.584,5.702c-0.296,1.648-0.443,3.19-0.443,4.626V76.466z"/>
		<path d="M449.5,117.525V49.601h10.646v10.138h0.253c3.717-7.94,8.617-11.912,14.7-11.912c2.11,0,3.675,0.254,4.689,0.76v10.393
			c-2.705-0.338-4.605-0.508-5.702-0.508c-3.212,0-6.337,1.416-9.378,4.246c-3.042,2.832-4.563,6.78-4.563,11.849v42.96H449.5z"/>
	</g>
	<g>
		<polyline fill="none" stroke="#000000" stroke-width="1.667" stroke-miterlimit="10" points="174.268,28.785 65.912,28.785 
			65.912,84.01 		"/>
		<polygon points="67.162,30.662 67.162,82.126 174.268,82.126 174.268,117.549 65.912,117.549 65.912,114.349 170.934,114.349 
			170.934,85.742 67.162,85.742 67.162,85.775 63.545,85.775 63.545,27.046 174.268,27.046 174.268,30.662 		"/>
		<g>
			
				<rect x="70.287" y="34.53" fill="none" stroke="#000000" stroke-width="1.667" stroke-miterlimit="10" width="102.314" height="43.76"/>
			<g>
				<path fill="none" stroke="#EF4136" stroke-width="1.4295" stroke-miterlimit="10" d="M139.696,56.395
					c0,10.463-8.481,18.945-18.94,18.945s-18.941-8.482-18.941-18.945c0-10.455,8.482-18.938,18.941-18.938
					S139.696,45.939,139.696,56.395z"/>
				<polygon fill="#EF4136" points="110.699,42.46 110.699,70.333 137.601,56.406 				"/>
			</g>
		</g>
	</g>
</g>
</svg>
