<?xml version="1.0" encoding="utf-8"?>
<!-- Generator: Adobe Illustrator 16.0.0, SVG Export Plug-In . SVG Version: 6.00 Build 0)  -->
<!DOCTYPE svg PUBLIC "-//W3C//DTD SVG 1.1//EN" "http://www.w3.org/Graphics/SVG/1.1/DTD/svg11.dtd">
<svg version="1.1" id="Layer_1" xmlns="http://www.w3.org/2000/svg" xmlns:xlink="http://www.w3.org/1999/xlink" x="0px" y="0px"
	 width="144px" height="144px" viewBox="0 0 144 144" enable-background="new 0 0 144 144" xml:space="preserve">
<g>
	<g>
		<linearGradient id="SVGID_1_" gradientUnits="userSpaceOnUse" x1="26.3726" y1="53.915" x2="26.3726" y2="31.7539">
			<stop  offset="0" style="stop-color:#3E198A"/>
			<stop  offset="0.0833" style="stop-color:#441B99"/>
			<stop  offset="0.2439" style="stop-color:#5521C1"/>
			<stop  offset="0.46" style="stop-color:#702AFF"/>
			<stop  offset="0.5752" style="stop-color:#972AFF"/>
			<stop  offset="0.6903" style="stop-color:#B72AFF"/>
			<stop  offset="0.8017" style="stop-color:#CE2AFF"/>
			<stop  offset="0.907" style="stop-color:#DB2AFF"/>
			<stop  offset="1" style="stop-color:#E02AFF"/>
		</linearGradient>
		<path fill="url(#SVGID_1_)" d="M49.088,44.619l-5.063,9.296c-0.137-0.299-0.314-0.573-0.482-0.853
			c-1.715-2.828-4.482-5.453-7.281-7.144c-5.066-3.021-11.479-3.89-17.237-4.544h-0.137v0.06H3.657v-9.681h15.231
			c6.133,0.339,12.16,1.349,17.801,3.788C41.309,37.576,45.651,40.714,49.088,44.619z"/>
		<linearGradient id="SVGID_2_" gradientUnits="userSpaceOnUse" x1="72" y1="120.0762" x2="72" y2="23.9238">
			<stop  offset="0" style="stop-color:#3E198A"/>
			<stop  offset="0.0833" style="stop-color:#441B99"/>
			<stop  offset="0.2439" style="stop-color:#5521C1"/>
			<stop  offset="0.46" style="stop-color:#702AFF"/>
			<stop  offset="0.5752" style="stop-color:#972AFF"/>
			<stop  offset="0.6903" style="stop-color:#B72AFF"/>
			<stop  offset="0.8017" style="stop-color:#CE2AFF"/>
			<stop  offset="0.907" style="stop-color:#DB2AFF"/>
			<stop  offset="1" style="stop-color:#E02AFF"/>
		</linearGradient>
		<path fill="url(#SVGID_2_)" d="M123.558,90.953l16.786,9.678l-16.786,9.724l-16.821,9.722v-15.242H90.468v0.051H90.16
			c-6.832-0.051-13.661-0.629-19.942-3.6c-6.091-2.853-11.307-7.022-14.992-12.444c0,0.106-0.027,0.172-0.067,0.295
			c-2.862,8.651-10.276,15.698-18.471,19.323c-5.641,2.412-11.667,3.448-17.801,3.798v0.102H3.657v-9.687h15.231v-0.026h0.137
			c5.758-0.675,12.171-1.522,17.237-4.564c2.798-1.685,5.566-4.314,7.281-7.128c3.479-5.701,4.382-12.383,5.586-18.933
			c0.625-3.265,1.275-6.544,2.412-9.611c0.97-2.589,2.208-5.047,3.687-7.251c3.685-5.412,8.9-9.59,14.992-12.443
			c6.281-2.96,13.11-3.549,19.942-3.58h0.308v0.031h16.269V23.924l16.821,9.733l16.786,9.713l-16.786,9.692l-16.821,9.712V48.507
			H90.217c-0.575,0-1.101,0.026-1.686,0.026c-6.174,0.142-12.753,1.387-18.063,4.631c-7.414,4.55-9.957,11.444-11.583,18.815
			c1.625,7.424,4.169,14.308,11.583,18.872c5.31,3.235,11.889,4.474,18.063,4.615c0.585,0,1.111,0.034,1.686,0.034h16.519V81.227
			L123.558,90.953z"/>
	</g>
</g>
</svg>
