<?xml version="1.0" encoding="utf-8"?>
<!-- Generator: Adobe Illustrator 16.0.0, SVG Export Plug-In . SVG Version: 6.00 Build 0)  -->
<!DOCTYPE svg PUBLIC "-//W3C//DTD SVG 1.1//EN" "http://www.w3.org/Graphics/SVG/1.1/DTD/svg11.dtd">
<svg version="1.1" id="Layer_1" xmlns="http://www.w3.org/2000/svg" xmlns:xlink="http://www.w3.org/1999/xlink" x="0px" y="0px"
	 width="300px" height="50px" viewBox="0 0 300 50" enable-background="new 0 0 300 50" xml:space="preserve">
<g>
	<g>
		<linearGradient id="SVGID_1_" gradientUnits="userSpaceOnUse" x1="90.1348" y1="25" x2="116.4438" y2="25">
			<stop  offset="0" style="stop-color:#3E198A"/>
			<stop  offset="0.0833" style="stop-color:#441B99"/>
			<stop  offset="0.2439" style="stop-color:#5521C1"/>
			<stop  offset="0.46" style="stop-color:#702AFF"/>
			<stop  offset="0.5752" style="stop-color:#972AFF"/>
			<stop  offset="0.6903" style="stop-color:#B72AFF"/>
			<stop  offset="0.8017" style="stop-color:#CE2AFF"/>
			<stop  offset="0.907" style="stop-color:#DB2AFF"/>
			<stop  offset="1" style="stop-color:#E02AFF"/>
		</linearGradient>
		<path fill="url(#SVGID_1_)" d="M95.772,41.277c-2.392-0.797-4.271-1.831-5.637-3.1l1.806-3.808
			c1.301,1.172,2.97,2.124,5.003,2.856c2.033,0.731,4.125,1.098,6.272,1.098c2.832,0,4.946-0.48,6.346-1.438
			c1.397-0.96,2.098-2.237,2.098-3.831c0-1.173-0.382-2.124-1.146-2.857c-0.766-0.731-1.708-1.294-2.832-1.685
			c-1.122-0.39-2.708-0.829-4.76-1.315c-2.57-0.619-4.645-1.237-6.222-1.856c-1.579-0.617-2.929-1.57-4.052-2.856
			c-1.122-1.283-1.684-3.017-1.684-5.196c0-1.823,0.48-3.467,1.439-4.93c0.961-1.465,2.417-2.637,4.37-3.516
			c1.953-0.879,4.376-1.317,7.272-1.317c2.018,0,4.002,0.26,5.956,0.78c1.953,0.521,3.627,1.269,5.027,2.245l-1.611,3.906
			c-1.432-0.91-2.961-1.604-4.588-2.075s-3.221-0.708-4.783-0.708c-2.765,0-4.841,0.504-6.223,1.514
			c-1.383,1.008-2.074,2.31-2.074,3.905c0,1.169,0.39,2.122,1.17,2.854c0.781,0.73,1.75,1.302,2.905,1.709
			c1.155,0.407,2.725,0.838,4.71,1.292c2.57,0.62,4.636,1.237,6.199,1.856c1.562,0.618,2.904,1.561,4.026,2.83
			c1.124,1.269,1.685,2.978,1.685,5.126c0,1.789-0.489,3.424-1.465,4.904c-0.976,1.481-2.457,2.651-4.44,3.517
			c-1.985,0.86-4.426,1.293-7.322,1.293C100.645,42.475,98.164,42.074,95.772,41.277z"/>
		<linearGradient id="SVGID_2_" gradientUnits="userSpaceOnUse" x1="122.8853" y1="23.9746" x2="147.4365" y2="23.9746">
			<stop  offset="0" style="stop-color:#3E198A"/>
			<stop  offset="0.0833" style="stop-color:#441B99"/>
			<stop  offset="0.2439" style="stop-color:#5521C1"/>
			<stop  offset="0.46" style="stop-color:#702AFF"/>
			<stop  offset="0.5752" style="stop-color:#972AFF"/>
			<stop  offset="0.6903" style="stop-color:#B72AFF"/>
			<stop  offset="0.8017" style="stop-color:#CE2AFF"/>
			<stop  offset="0.907" style="stop-color:#DB2AFF"/>
			<stop  offset="1" style="stop-color:#E02AFF"/>
		</linearGradient>
		<path fill="url(#SVGID_2_)" d="M144.534,18.823c1.936,1.907,2.902,4.697,2.902,8.374v14.887h-4.685V27.733
			c0-2.505-0.603-4.396-1.806-5.664c-1.204-1.269-2.929-1.903-5.174-1.903c-2.539,0-4.54,0.742-6.003,2.223
			c-1.465,1.479-2.197,3.605-2.197,6.369v13.326h-4.686V5.865h4.686v14.009c0.976-1.238,2.253-2.196,3.833-2.881
			c1.577-0.682,3.343-1.024,5.295-1.024C139.986,15.969,142.597,16.921,144.534,18.823z"/>
		<linearGradient id="SVGID_3_" gradientUnits="userSpaceOnUse" x1="155.8818" y1="29.2949" x2="180.2373" y2="29.2949">
			<stop  offset="0" style="stop-color:#3E198A"/>
			<stop  offset="0.0833" style="stop-color:#441B99"/>
			<stop  offset="0.2439" style="stop-color:#5521C1"/>
			<stop  offset="0.46" style="stop-color:#702AFF"/>
			<stop  offset="0.5752" style="stop-color:#972AFF"/>
			<stop  offset="0.6903" style="stop-color:#B72AFF"/>
			<stop  offset="0.8017" style="stop-color:#CE2AFF"/>
			<stop  offset="0.907" style="stop-color:#DB2AFF"/>
			<stop  offset="1" style="stop-color:#E02AFF"/>
		</linearGradient>
		<path fill="url(#SVGID_3_)" d="M180.237,16.213v25.871h-4.441v-3.906c-0.943,1.335-2.189,2.369-3.732,3.1
			c-1.547,0.731-3.23,1.099-5.055,1.099c-3.449,0-6.164-0.952-8.148-2.856c-1.984-1.903-2.979-4.71-2.979-8.42V16.213h4.686v14.35
			c0,2.506,0.602,4.402,1.809,5.687c1.203,1.285,2.928,1.928,5.17,1.928c2.473,0,4.426-0.748,5.859-2.246
			c1.43-1.495,2.146-3.611,2.146-6.345V16.213H180.237z"/>
		<linearGradient id="SVGID_4_" gradientUnits="userSpaceOnUse" x1="185.458" y1="23.8281" x2="203.667" y2="23.8281">
			<stop  offset="0" style="stop-color:#3E198A"/>
			<stop  offset="0.0833" style="stop-color:#441B99"/>
			<stop  offset="0.2439" style="stop-color:#5521C1"/>
			<stop  offset="0.46" style="stop-color:#702AFF"/>
			<stop  offset="0.5752" style="stop-color:#972AFF"/>
			<stop  offset="0.6903" style="stop-color:#B72AFF"/>
			<stop  offset="0.8017" style="stop-color:#CE2AFF"/>
			<stop  offset="0.907" style="stop-color:#DB2AFF"/>
			<stop  offset="1" style="stop-color:#E02AFF"/>
		</linearGradient>
		<path fill="url(#SVGID_4_)" d="M194.442,13.967v2.246h7.516v3.857h-7.416v22.014h-4.689V20.07h-4.395v-3.857h4.395v-2.294
			c0-2.57,0.75-4.604,2.246-6.101c1.496-1.496,3.594-2.245,6.297-2.245c1.041,0,2.018,0.13,2.93,0.39
			c0.91,0.262,1.689,0.635,2.342,1.124l-1.416,3.563c-1.072-0.814-2.275-1.221-3.613-1.221
			C195.841,9.429,194.442,10.941,194.442,13.967z"/>
		<linearGradient id="SVGID_5_" gradientUnits="userSpaceOnUse" x1="202.6924" y1="23.8281" x2="228.3174" y2="23.8281">
			<stop  offset="0" style="stop-color:#3E198A"/>
			<stop  offset="0.0833" style="stop-color:#441B99"/>
			<stop  offset="0.2439" style="stop-color:#5521C1"/>
			<stop  offset="0.46" style="stop-color:#702AFF"/>
			<stop  offset="0.5752" style="stop-color:#972AFF"/>
			<stop  offset="0.6903" style="stop-color:#B72AFF"/>
			<stop  offset="0.8017" style="stop-color:#CE2AFF"/>
			<stop  offset="0.907" style="stop-color:#DB2AFF"/>
			<stop  offset="1" style="stop-color:#E02AFF"/>
		</linearGradient>
		<path fill="url(#SVGID_5_)" d="M211.673,13.967v2.246h7.514v3.857h-7.416v22.014h-4.689V20.07h-4.389v-3.857h4.389v-2.294
			c0-2.57,0.752-4.604,2.246-6.101c1.498-1.496,3.596-2.245,6.299-2.245c1.039,0,2.018,0.13,2.926,0.39
			c0.912,0.262,1.693,0.635,2.346,1.124l-1.416,3.563c-1.074-0.814-2.279-1.221-3.611-1.221
			C213.071,9.429,211.673,10.941,211.673,13.967z M223.63,5.865h4.688v36.219h-4.688V5.865z"/>
		<linearGradient id="SVGID_6_" gradientUnits="userSpaceOnUse" x1="234.8564" y1="29.1729" x2="260.6279" y2="29.1729">
			<stop  offset="0" style="stop-color:#3E198A"/>
			<stop  offset="0.0833" style="stop-color:#441B99"/>
			<stop  offset="0.2439" style="stop-color:#5521C1"/>
			<stop  offset="0.46" style="stop-color:#702AFF"/>
			<stop  offset="0.5752" style="stop-color:#972AFF"/>
			<stop  offset="0.6903" style="stop-color:#B72AFF"/>
			<stop  offset="0.8017" style="stop-color:#CE2AFF"/>
			<stop  offset="0.907" style="stop-color:#DB2AFF"/>
			<stop  offset="1" style="stop-color:#E02AFF"/>
		</linearGradient>
		<path fill="url(#SVGID_6_)" d="M260.53,30.71h-20.99c0.295,2.277,1.297,4.107,3.004,5.491c1.709,1.384,3.832,2.076,6.367,2.076
			c3.096,0,5.584-1.043,7.471-3.125l2.588,3.025c-1.174,1.367-2.629,2.408-4.369,3.125c-1.742,0.716-3.688,1.073-5.834,1.073
			c-2.734,0-5.158-0.56-7.273-1.684c-2.115-1.123-3.748-2.692-4.904-4.71c-1.156-2.017-1.732-4.295-1.732-6.835
			c0-2.505,0.561-4.766,1.684-6.785c1.121-2.016,2.668-3.587,4.637-4.71c1.967-1.122,4.188-1.683,6.664-1.683
			c2.471,0,4.678,0.562,6.613,1.683c1.936,1.123,3.449,2.694,4.537,4.71c1.094,2.02,1.637,4.33,1.637,6.933
			C260.628,29.654,260.597,30.125,260.53,30.71z M242.204,21.974c-1.514,1.364-2.4,3.155-2.664,5.37h16.598
			c-0.26-2.182-1.146-3.963-2.66-5.345c-1.514-1.385-3.393-2.074-5.637-2.074C245.595,19.925,243.716,20.608,242.204,21.974z"/>
		<linearGradient id="SVGID_7_" gradientUnits="userSpaceOnUse" x1="267.1201" y1="29.0264" x2="281.0303" y2="29.0264">
			<stop  offset="0" style="stop-color:#3E198A"/>
			<stop  offset="0.0833" style="stop-color:#441B99"/>
			<stop  offset="0.2439" style="stop-color:#5521C1"/>
			<stop  offset="0.46" style="stop-color:#702AFF"/>
			<stop  offset="0.5752" style="stop-color:#972AFF"/>
			<stop  offset="0.6903" style="stop-color:#B72AFF"/>
			<stop  offset="0.8017" style="stop-color:#CE2AFF"/>
			<stop  offset="0.907" style="stop-color:#DB2AFF"/>
			<stop  offset="1" style="stop-color:#E02AFF"/>
		</linearGradient>
		<path fill="url(#SVGID_7_)" d="M275.222,17.14c1.594-0.78,3.531-1.17,5.809-1.17v4.54c-0.26-0.034-0.619-0.048-1.072-0.048
			c-2.539,0-4.533,0.754-5.979,2.269c-1.449,1.513-2.174,3.669-2.174,6.466v12.889h-4.686V16.213h4.49v4.345
			C272.423,19.061,273.628,17.921,275.222,17.14z"/>
	</g>
	<g>
		<g>
			<linearGradient id="SVGID_8_" gradientUnits="userSpaceOnUse" x1="29.5361" y1="16.5898" x2="29.5361" y2="6.2822">
				<stop  offset="0" style="stop-color:#3E198A"/>
				<stop  offset="0.0833" style="stop-color:#441B99"/>
				<stop  offset="0.2439" style="stop-color:#5521C1"/>
				<stop  offset="0.46" style="stop-color:#702AFF"/>
				<stop  offset="0.5752" style="stop-color:#972AFF"/>
				<stop  offset="0.6903" style="stop-color:#B72AFF"/>
				<stop  offset="0.8017" style="stop-color:#CE2AFF"/>
				<stop  offset="0.907" style="stop-color:#DB2AFF"/>
				<stop  offset="1" style="stop-color:#E02AFF"/>
			</linearGradient>
			<path fill="url(#SVGID_8_)" d="M40.103,12.263l-2.358,4.327c-0.063-0.144-0.144-0.271-0.224-0.4
				c-0.802-1.314-2.084-2.533-3.384-3.318c-2.356-1.409-5.34-1.811-8.017-2.115h-0.064v0.033H18.97V6.282h7.086
				c2.855,0.16,5.659,0.627,8.273,1.763C36.478,8.991,38.498,10.45,40.103,12.263z"/>
			<linearGradient id="SVGID_9_" gradientUnits="userSpaceOnUse" x1="50.7544" y1="47.3564" x2="50.7544" y2="2.644">
				<stop  offset="0" style="stop-color:#3E198A"/>
				<stop  offset="0.0833" style="stop-color:#441B99"/>
				<stop  offset="0.2439" style="stop-color:#5521C1"/>
				<stop  offset="0.46" style="stop-color:#702AFF"/>
				<stop  offset="0.5752" style="stop-color:#972AFF"/>
				<stop  offset="0.6903" style="stop-color:#B72AFF"/>
				<stop  offset="0.8017" style="stop-color:#CE2AFF"/>
				<stop  offset="0.907" style="stop-color:#DB2AFF"/>
				<stop  offset="1" style="stop-color:#E02AFF"/>
			</linearGradient>
			<path fill="url(#SVGID_9_)" d="M74.731,33.811l7.808,4.506l-7.808,4.518l-7.823,4.522v-7.086h-7.566v0.017h-0.146
				c-3.174-0.017-6.349-0.288-9.27-1.666c-2.835-1.333-5.257-3.271-6.971-5.788c0,0.048-0.016,0.079-0.033,0.13
				c-1.33,4.024-4.778,7.308-8.594,8.991c-2.614,1.122-5.418,1.604-8.273,1.765v0.048H18.97v-4.503h7.086v-0.018h0.064
				c2.677-0.307,5.66-0.707,8.017-2.115c1.3-0.786,2.582-2.007,3.384-3.32c1.618-2.646,2.036-5.756,2.598-8.803
				c0.287-1.521,0.591-3.044,1.121-4.472c0.45-1.202,1.027-2.342,1.717-3.366c1.714-2.518,4.136-4.459,6.971-5.79
				c2.921-1.377,6.096-1.649,9.27-1.665h0.146V9.73h7.566V2.644l7.823,4.521l7.808,4.521l-7.808,4.504l-7.823,4.522v-6.639h-7.681
				c-0.271,0-0.513,0.018-0.785,0.018c-2.869,0.063-5.933,0.64-8.401,2.147c-3.448,2.117-4.632,5.325-5.387,8.754
				c0.755,3.447,1.938,6.654,5.387,8.771c2.469,1.507,5.532,2.082,8.401,2.147c0.272,0,0.515,0.017,0.785,0.017h7.681v-6.639
				L74.731,33.811z"/>
		</g>
	</g>
</g>
</svg>
